<svg width="648" height="648" viewBox="0 0 648 648" fill="none" xmlns="http://www.w3.org/2000/svg">
<path d="M616.624 359.057C599.141 412.05 561.466 470.15 506.01 489.059C422.237 517.648 414.72 586.349 262.712 585.883C240.515 585.913 218.379 583.536 196.694 578.794C186.092 576.437 175.651 573.406 165.434 569.722C75.3624 537.231 26.0496 459.963 18.9864 377.395C9.71999 268.79 83.6179 214.008 131.738 181.699C179.859 149.39 234.809 29.484 384.29 28.7712C407.109 28.5666 429.875 30.9976 452.135 36.0158C502.887 47.6798 555.116 75.7642 586.492 118.571C588.838 121.785 591.093 125.051 593.27 128.447C635.636 194.322 640.47 286.792 616.624 359.057Z" fill="#0EA960"/>
<path opacity="0.7" d="M616.624 359.057C599.141 412.05 561.466 470.15 506.01 489.059C422.237 517.648 414.72 586.349 262.712 585.883C240.515 585.913 218.379 583.536 196.694 578.794C186.092 576.437 175.651 573.406 165.434 569.722C75.3624 537.231 26.0496 459.963 18.9864 377.395C9.71999 268.79 83.6179 214.008 131.738 181.699C179.859 149.39 234.809 29.484 384.29 28.7712C407.109 28.5666 429.875 30.9976 452.135 36.0158C502.887 47.6798 555.116 75.7642 586.492 118.571C588.838 121.785 591.093 125.051 593.27 128.447C635.636 194.322 640.47 286.792 616.624 359.057Z" fill="white"/>
<path d="M39.2817 593.361H616.702" stroke="#263238" stroke-linecap="round" stroke-linejoin="round"/>
<path d="M125.362 205.831C125.352 211.927 123.534 217.883 120.138 222.945C116.743 228.008 111.922 231.95 106.286 234.273C100.65 236.596 94.4518 237.195 88.4752 235.994C82.4986 234.794 77.0121 231.848 72.7098 227.53C68.4075 223.211 65.4825 217.714 64.3049 211.732C63.1273 205.751 63.7499 199.555 66.0939 193.928C68.438 188.301 72.3982 183.495 77.4738 180.119C82.5493 176.743 88.5121 174.947 94.608 174.96C98.6594 174.95 102.673 175.742 106.416 177.291C110.16 178.84 113.559 181.116 116.419 183.986C119.278 186.856 121.541 190.264 123.076 194.014C124.611 197.763 125.388 201.779 125.362 205.831V205.831Z" stroke="#263238" stroke-linecap="round" stroke-linejoin="round"/>
<path d="M101.316 211.942C107.361 208.205 109.233 200.275 105.496 194.229C101.759 188.183 93.8289 186.312 87.7831 190.048C81.7372 193.785 79.8655 201.716 83.6024 207.762C87.3393 213.807 95.2698 215.679 101.316 211.942Z" stroke="#263238" stroke-linecap="round" stroke-linejoin="round"/>
<path d="M113.568 230.053C108.141 234.317 101.439 236.635 94.5367 236.635C87.6346 236.635 80.9324 234.317 75.5049 230.053C76.4157 225.679 78.8053 221.752 82.2715 218.934C85.7377 216.115 90.069 214.576 94.5367 214.576C99.0044 214.576 103.336 216.115 106.802 218.934C110.268 221.752 112.658 225.679 113.568 230.053Z" stroke="#263238" stroke-linecap="round" stroke-linejoin="round"/>
<path d="M601.966 524.193C601.966 530.288 600.159 536.247 596.772 541.315C593.386 546.383 588.572 550.333 582.941 552.666C577.31 554.999 571.113 555.609 565.135 554.42C559.156 553.231 553.665 550.295 549.355 545.985C545.045 541.675 542.11 536.184 540.92 530.206C539.731 524.227 540.342 518.031 542.674 512.399C545.007 506.768 548.957 501.955 554.025 498.568C559.093 495.182 565.052 493.374 571.147 493.374C575.199 493.359 579.213 494.145 582.959 495.689C586.705 497.232 590.109 499.502 592.974 502.366C595.839 505.231 598.108 508.635 599.651 512.381C601.195 516.127 601.981 520.142 601.966 524.193V524.193Z" stroke="#263238" stroke-linecap="round" stroke-linejoin="round"/>
<path d="M573.249 532.022C580.264 530.879 585.024 524.266 583.882 517.251C582.739 510.236 576.126 505.475 569.111 506.618C562.096 507.76 557.336 514.373 558.478 521.388C559.621 528.403 566.234 533.164 573.249 532.022Z" stroke="#263238" stroke-linecap="round" stroke-linejoin="round"/>
<path d="M590.172 548.415C584.745 552.679 578.043 554.997 571.141 554.997C564.238 554.997 557.536 552.679 552.109 548.415C553.02 544.041 555.409 540.115 558.875 537.296C562.342 534.477 566.673 532.938 571.141 532.938C575.608 532.938 579.94 534.477 583.406 537.296C586.872 540.115 589.262 544.041 590.172 548.415Z" stroke="#263238" stroke-linecap="round" stroke-linejoin="round"/>
<path d="M54.1987 271.797L52.6306 270.864L54.6005 268.116L51.6715 266.976L52.3066 265.278L55.1189 266.769L54.8208 263.347H56.8296L56.5056 266.769L59.3309 265.278L59.9529 266.976L57.024 268.116L59.0069 270.838L57.3998 271.784L55.8058 268.687L54.1987 271.797Z" fill="#263238"/>
<path d="M64.0743 271.797L62.5061 270.864L64.4631 268.117L61.5471 266.976L62.208 265.291L65.0203 266.782L64.7223 263.36H66.7311L66.4071 266.782L69.2323 265.291L69.8544 266.989L66.9255 268.129L68.9083 270.851L67.3013 271.797L65.7072 268.7L64.0743 271.797Z" fill="#263238"/>
<path d="M73.9498 271.797L72.3816 270.864L74.3386 268.116L71.4096 266.976L72.0576 265.278L74.857 266.769L74.5589 263.347H76.5806L76.2566 266.769L79.056 265.291L79.704 266.976L76.7751 268.116L78.7579 270.838L77.1509 271.784L75.5568 268.687L73.9498 271.797Z" fill="#263238"/>
<path d="M83.8253 271.797L82.2571 270.864L84.24 268.104L81.2851 266.976L81.9331 265.278L84.7325 266.769L84.4344 263.347H86.4432L86.1192 266.769L88.9574 265.278L89.5795 266.976L86.6505 268.116L88.6334 270.838L87.0134 271.784L85.4323 268.687L83.8253 271.797Z" fill="#263238"/>
<path d="M93.6879 271.797L92.1326 270.851L94.0896 268.104L91.1606 266.976L91.8086 265.278L94.608 266.782L94.3099 263.36H96.3187L95.9947 266.782L98.833 265.291L99.4421 266.989L96.5261 268.129L98.496 270.864L96.876 271.81L95.2949 268.713L93.6879 271.797Z" fill="#263238"/>
<path d="M103.563 271.797L102.008 270.851L103.965 268.104L101.088 266.976L101.736 265.278L104.535 266.769L104.237 263.347H106.246L105.922 266.769L108.76 265.278L109.369 266.976L106.44 268.116L108.436 270.838L106.816 271.784L105.235 268.687L103.563 271.797Z" fill="#263238"/>
<path d="M113.439 271.797L111.871 270.864L113.841 268.117L110.912 266.976L111.56 265.278L114.359 266.769L114.048 263.36H116.057L115.733 266.782L118.558 265.291L119.232 266.976L116.303 268.117L118.286 270.838L116.679 271.784L115.098 268.687L113.439 271.797Z" fill="#263238"/>
<path d="M123.314 271.797L121.746 270.864L123.716 268.116L120.787 266.976L121.422 265.278L124.235 266.769L123.936 263.347H125.945L125.621 266.769L128.447 265.278L129.069 266.976L126.14 268.116L128.123 270.838L126.515 271.784L124.921 268.687L123.314 271.797Z" fill="#263238"/>
<path d="M133.19 271.797L131.622 270.851L133.579 268.104L130.663 266.989L131.298 265.291L134.11 266.782L133.812 263.36H135.821L135.497 266.782L138.322 265.291L138.944 266.989L136.015 268.129L137.998 270.851L136.391 271.797L134.784 268.7L133.19 271.797Z" fill="#263238"/>
<path d="M221.37 60.588L219.802 59.616L221.759 56.8555L218.83 55.728L219.478 54.0432L222.277 55.5336L221.979 52.0992H224.001L223.677 55.5336L226.502 54.0432L227.124 55.728L224.195 56.8685L226.178 59.616L224.571 60.5491L222.977 57.4517L221.37 60.588Z" fill="#263238"/>
<path d="M231.232 60.588L229.677 59.6549L231.634 56.8944L228.705 55.728L229.353 54.0432L232.152 55.5336L231.854 52.0992H233.863L233.539 55.5336L236.377 54.0432L236.999 55.728L234.071 56.8685L236.053 59.616L234.433 60.5491L232.852 57.4517L231.232 60.588Z" fill="#263238"/>
<path d="M241.056 60.588L239.501 59.6549L241.458 56.8944L238.581 55.728L239.229 54.0432L242.028 55.5336L241.73 52.0992H243.739L243.415 55.5336L246.24 54.095L246.849 55.7798L243.92 56.9203L245.929 59.616L244.309 60.5491L242.728 57.4517L241.056 60.588Z" fill="#263238"/>
<path d="M250.983 60.588L249.428 59.6549L251.424 56.8944L248.456 55.728L249.104 54.0432L251.904 55.5336L251.605 52.0992H253.614L253.29 55.5336L256.116 54.0432L256.738 55.728L253.809 56.8685L255.792 59.616L254.184 60.5491L252.603 57.4517L250.983 60.588Z" fill="#263238"/>
<path d="M260.859 60.588L259.291 59.616L261.261 56.8555L258.332 55.728L258.98 54.0432L261.792 55.5854L261.494 52.151H263.503L263.179 55.5854L266.004 54.095L266.626 55.7798L263.697 56.9203L265.68 59.616L264.073 60.5491L262.479 57.4517L260.859 60.588Z" fill="#263238"/>
<path d="M270.734 60.588L269.166 59.616L271.136 56.8555L268.272 55.728L268.907 54.0432L271.719 55.5336L271.421 52.0992H273.43L273.106 55.5336L275.931 54.0432L276.553 55.728L273.624 56.8685L275.543 59.616L273.935 60.5491L272.341 57.4517L270.734 60.588Z" fill="#263238"/>
<path d="M280.61 60.588L279.042 59.616L280.999 56.8555L278.083 55.728L278.718 54.0432L281.53 55.5336L281.232 52.151H283.241L282.917 55.5854L285.742 54.095L286.416 55.728L283.487 56.8685L285.418 59.616L283.811 60.5491L282.217 57.4517L280.61 60.588Z" fill="#263238"/>
<path d="M290.485 60.588L288.917 59.616L290.874 56.8555L287.945 55.728L288.593 54.0432L291.393 55.5336L291.095 52.0992H293.116L292.792 55.5336L295.618 54.0432L296.24 55.728L293.311 56.8685L295.294 59.616L293.687 60.5491L292.093 57.4517L290.485 60.588Z" fill="#263238"/>
<path d="M300.361 60.588L298.793 59.616L300.75 56.8555L297.821 55.728L298.469 54.0432L301.268 55.5336L300.97 52.0992H302.979L302.668 55.5336L305.493 54.0432L306.115 55.728L303.186 56.8685L305.169 59.616L303.549 60.5491L301.968 57.4906L300.361 60.588Z" fill="#263238"/>
<path d="M523.364 190.162L521.808 189.216L523.765 186.456L520.836 185.341L521.484 183.656L524.284 185.147L523.986 181.725H525.994L525.67 185.147L528.509 183.656L529.118 185.341L526.202 186.494L528.185 189.216L526.565 190.162L524.984 187.052L523.364 190.162Z" fill="#263238"/>
<path d="M533.239 190.162L531.684 189.216L533.641 186.456L530.712 185.328L531.36 183.643L534.159 185.134L533.861 181.712H535.87L535.546 185.134L538.384 183.643L538.993 185.328L536.064 186.481L538.06 189.203L536.44 190.149L534.859 187.039L533.239 190.162Z" fill="#263238"/>
<path d="M543.115 190.162L541.547 189.216L543.516 186.456L540.588 185.341L541.236 183.656L544.035 185.147L543.737 181.725H545.746L545.422 185.147L548.247 183.656L548.869 185.341L545.94 186.494L547.923 189.216L546.316 190.162L544.735 187.052L543.115 190.162Z" fill="#263238"/>
<path d="M552.99 190.162L551.422 189.216L553.392 186.456L550.463 185.341L551.098 183.656L553.91 185.147L553.612 181.725H555.621L555.297 185.147L558.122 183.656L558.744 185.341L555.815 186.494L557.798 189.216L556.191 190.162L554.597 187.052L552.99 190.162Z" fill="#263238"/>
<path d="M562.866 190.162L561.298 189.216L563.255 186.456L560.339 185.341L560.974 183.656L563.786 185.147L563.488 181.725H565.497L565.173 185.147L567.998 183.656L568.62 185.341L565.691 186.494L567.648 189.216L566.041 190.162L564.447 187.052L562.866 190.162Z" fill="#263238"/>
<path d="M572.741 190.162L571.173 189.216L573.13 186.456L570.24 185.328L570.875 183.643L573.687 185.134L573.389 181.712H575.424L575.1 185.134L577.925 183.643L578.547 185.328L575.618 186.481L577.601 189.203L575.994 190.149L574.4 187.039L572.741 190.162Z" fill="#263238"/>
<path d="M582.617 190.162L581.049 189.216L583.006 186.456L580.077 185.341L580.725 183.656L583.524 185.147L583.226 181.725H585.248L584.924 185.147L587.749 183.656L588.384 185.328L585.455 186.481L587.438 189.203L585.831 190.149L584.237 187.039L582.617 190.162Z" fill="#263238"/>
<path d="M592.479 190.162L590.976 189.216L592.933 186.456L590.004 185.341L590.652 183.656L593.451 185.147L593.153 181.725H595.162L594.838 185.147L597.676 183.656L598.298 185.341L595.369 186.494L597.352 189.216L595.732 190.162L594.151 187.052L592.479 190.162Z" fill="#263238"/>
<path d="M602.355 190.162L600.8 189.216L602.757 186.456L599.828 185.341L600.476 183.656L603.275 185.147L602.977 181.725H604.986L604.662 185.147L607.5 183.656L608.109 185.341L605.193 186.494L607.176 189.216L605.556 190.162L603.975 187.052L602.355 190.162Z" fill="#263238"/>
<path d="M589.369 110.938H538.618V160.587H589.369V110.938Z" stroke="#263238" stroke-linecap="round" stroke-linejoin="round"/>
<path d="M547.936 110.951V99.5328C547.875 97.3849 548.245 95.2465 549.025 93.2442C549.805 91.2419 550.978 89.4163 552.476 87.8755C553.974 86.3346 555.765 85.1098 557.745 84.2734C559.724 83.437 561.851 83.0061 564 83.0061C566.149 83.0061 568.276 83.437 570.255 84.2734C572.234 85.1098 574.026 86.3346 575.523 87.8755C577.021 89.4163 578.195 91.2419 578.974 93.2442C579.754 95.2465 580.125 97.3849 580.064 99.5328V110.951H587.451V99.5328C587.524 96.4068 586.972 93.2976 585.827 90.3881C584.681 87.4785 582.965 84.8274 580.781 82.5905C578.596 80.3536 575.986 78.5762 573.104 77.3626C570.222 76.149 567.127 75.5239 564 75.5239C560.873 75.5239 557.777 76.149 554.896 77.3626C552.014 78.5762 549.404 80.3536 547.219 82.5905C545.034 84.8274 543.318 87.4785 542.173 90.3881C541.027 93.2976 540.475 96.4068 540.549 99.5328V110.951H547.936Z" stroke="#263238" stroke-miterlimit="10"/>
<path d="M569.838 130.183C569.842 129.118 569.554 128.073 569.007 127.159C568.459 126.246 567.673 125.499 566.732 125C565.791 124.501 564.732 124.268 563.669 124.328C562.605 124.387 561.578 124.735 560.699 125.336C559.819 125.936 559.12 126.765 558.677 127.734C558.235 128.702 558.065 129.773 558.187 130.831C558.308 131.889 558.717 132.894 559.368 133.737C560.019 134.58 560.888 135.229 561.881 135.613V147.174H566.119V135.613C567.213 135.188 568.154 134.442 568.818 133.473C569.481 132.504 569.837 131.358 569.838 130.183Z" stroke="#263238" stroke-linecap="round" stroke-linejoin="round"/>
<path d="M118.791 520.448H68.04V570.097H118.791V520.448Z" stroke="#263238" stroke-linecap="round" stroke-linejoin="round"/>
<path d="M77.3582 520.474V509.043C77.477 504.861 79.2215 500.891 82.2211 497.975C85.2207 495.06 89.239 493.429 93.4221 493.429C97.6052 493.429 101.624 495.06 104.623 497.975C107.623 500.891 109.367 504.861 109.486 509.043V520.474H116.873V509.043C116.729 502.919 114.195 497.094 109.813 492.813C105.431 488.533 99.548 486.137 93.4221 486.137C87.2963 486.137 81.4134 488.533 77.0312 492.813C72.6489 497.094 70.115 502.919 69.971 509.043V520.474H77.3582Z" stroke="#263238" stroke-miterlimit="10"/>
<path d="M99.2606 539.706C99.2642 538.641 98.9767 537.596 98.4293 536.682C97.8819 535.769 97.0953 535.022 96.1544 534.523C95.2136 534.024 94.1543 533.792 93.091 533.851C92.0277 533.91 91.0007 534.258 90.1211 534.859C89.2414 535.459 88.5425 536.288 88.0997 537.257C87.657 538.225 87.4873 539.296 87.609 540.354C87.7307 541.412 88.1391 542.417 88.7902 543.26C89.4413 544.103 90.3102 544.752 91.3032 545.136V556.697H95.5411V545.136C96.6358 544.711 97.5765 543.965 98.2401 542.996C98.9038 542.027 99.2595 540.881 99.2606 539.706V539.706Z" stroke="#263238" stroke-linecap="round" stroke-linejoin="round"/>
<path d="M51.2957 456.529C55.8706 454.028 62.8172 444.658 62.8172 444.645C62.8172 444.632 55.2485 441.949 54.7431 441.832C48.95 440.536 37.0008 441.547 33.6701 447.301C33.1403 448.269 32.8204 449.338 32.7312 450.437C32.6419 451.537 32.7854 452.643 33.1522 453.684C33.519 454.724 34.101 455.676 34.8601 456.477C35.6192 457.277 36.5385 457.909 37.5581 458.33C41.8608 460.261 47.4077 458.641 51.2957 456.529Z" fill="#919191"/>
<path d="M80.4687 474.064C84.0715 470.591 88.0762 460.521 88.3872 459.717C94.1469 462.011 100.052 463.92 106.065 465.433C109.564 466.34 113.115 467.143 116.679 467.895C114.994 467.791 113.491 467.713 113.283 467.726C107.361 468.037 96.0855 472.133 94.3877 478.561C94.1356 479.636 94.1128 480.753 94.3209 481.838C94.5289 482.923 94.9631 483.952 95.5952 484.858C96.2273 485.764 97.0431 486.526 97.9895 487.096C98.9358 487.666 99.9916 488.03 101.088 488.164C105.715 488.903 110.64 485.87 113.841 482.799C117.042 479.727 120.658 471.135 121.617 468.893C122.99 469.165 124.351 469.463 125.725 469.722C132.322 471.018 138.905 472.314 145.32 473.74C147.588 474.245 149.792 474.829 152.008 475.399C150.517 475.308 149.26 475.243 149.066 475.256C143.13 475.567 131.868 479.663 130.17 486.091C129.918 487.165 129.895 488.281 130.102 489.365C130.31 490.449 130.743 491.477 131.373 492.383C132.004 493.289 132.818 494.052 133.763 494.622C134.708 495.193 135.762 495.558 136.858 495.694C141.497 496.433 146.422 493.4 149.61 490.329C152.798 487.257 156.09 479.52 157.192 476.824C159.434 477.485 161.689 478.12 163.84 478.872C165.292 479.416 166.73 479.831 168.169 480.453L172.42 482.19C175.077 483.395 177.837 484.613 180.403 485.857C182.192 486.7 183.876 487.542 185.587 488.385C183.345 487.853 178.926 486.907 178.55 486.868C172.64 486.285 160.885 488.631 158.229 494.722C157.816 495.748 157.625 496.85 157.667 497.955C157.709 499.06 157.984 500.144 158.473 501.135C158.962 502.127 159.655 503.005 160.506 503.711C161.357 504.417 162.348 504.935 163.413 505.233C167.884 506.658 173.21 504.416 176.826 501.863C180.818 499.038 186.132 490.082 186.78 488.903C189.605 490.303 192.326 491.702 194.88 493.05C200.53 496.031 205.494 498.83 209.654 501.254L212.324 497.807C207.956 495.383 202.707 492.623 196.681 489.551C193.83 488.112 190.745 486.635 187.609 485.145C188.534 481.925 189.265 478.654 189.799 475.347C194.802 474.919 203.55 470.681 204.677 470.163C206.258 472.885 207.762 475.554 209.148 478.094C212.052 483.395 214.527 488.216 216.6 492.35L219.491 488.618C217.508 484.885 215.201 480.686 212.583 476.125C210.989 473.351 209.239 470.409 207.399 467.415C208.371 466.599 216.276 459.782 218.35 455.363C220.229 451.345 221.512 445.707 219.322 441.56C218.841 440.566 218.155 439.685 217.311 438.974C216.466 438.263 215.481 437.737 214.42 437.431C213.359 437.126 212.245 437.047 211.152 437.2C210.058 437.353 209.009 437.735 208.073 438.32C202.539 442.001 202.293 453.989 203.9 459.704C204.003 460.041 205.442 463.592 206.388 465.795C205.636 464.577 204.911 463.385 204.12 462.141C202.578 459.665 200.958 457.242 199.221 454.624L196.461 451.008C195.592 449.712 194.517 448.507 193.545 447.25C191.238 444.36 188.749 441.547 186.17 438.774C188.335 437.413 195.955 432.475 198.431 428.769C200.906 425.062 203.018 419.697 201.476 415.277C201.151 414.222 200.608 413.247 199.881 412.415C199.154 411.584 198.261 410.914 197.258 410.451C196.256 409.988 195.167 409.741 194.063 409.726C192.958 409.711 191.863 409.929 190.849 410.365C184.823 413.165 182.762 424.984 183.488 430.868C183.488 431.244 184.537 435.404 185.121 437.685C183.565 436.026 182.023 434.367 180.39 432.747C175.686 428.056 170.774 423.468 165.901 418.854L161.456 414.603C162.233 414.124 171.409 408.434 174.182 404.3C176.645 400.607 178.77 395.228 177.228 390.796C176.903 389.74 176.36 388.765 175.633 387.934C174.906 387.103 174.012 386.434 173.009 385.972C172.006 385.51 170.917 385.264 169.813 385.251C168.709 385.238 167.614 385.458 166.601 385.897C160.574 388.696 158.514 400.503 159.24 406.4C159.24 406.84 160.743 412.88 161.184 414.344C157.931 411.208 154.704 408.072 151.671 404.832C147.532 400.493 143.683 395.886 140.149 391.042C140.512 390.822 150.116 384.938 152.954 380.674C155.429 376.993 157.542 371.602 156 367.183C155.675 366.127 155.131 365.152 154.404 364.321C153.678 363.49 152.783 362.821 151.781 362.359C150.778 361.896 149.689 361.651 148.584 361.638C147.48 361.625 146.386 361.845 145.372 362.284C139.346 365.083 137.285 376.89 138.024 382.774C138.024 383.24 139.631 389.694 139.994 390.835C139.8 390.563 139.553 390.29 139.359 390.005C135.946 385.051 132.98 379.803 130.494 374.324C129.082 371.317 127.902 368.362 126.827 365.459C128.732 364.552 137.363 360.275 140.344 356.737C143.325 353.199 145.904 348.235 144.854 343.66C144.647 342.576 144.215 341.548 143.584 340.642C142.953 339.736 142.139 338.973 141.194 338.403C140.248 337.834 139.194 337.469 138.098 337.335C137.003 337.2 135.891 337.297 134.836 337.621C128.537 339.746 125.194 351.255 125.271 357.191C125.271 357.515 125.686 360.793 126.01 363.165C125.544 361.869 125.038 360.508 124.61 359.277C123.003 354.417 121.824 349.92 120.826 346.032C120.269 343.777 119.802 341.729 119.4 339.811C120.8 337.932 126.347 330.337 127.332 325.905C128.317 321.473 128.343 315.796 125.31 312.206C124.626 311.343 123.768 310.633 122.791 310.122C121.815 309.612 120.742 309.312 119.643 309.242C118.543 309.172 117.441 309.335 116.408 309.718C115.375 310.101 114.434 310.697 113.646 311.468C109.033 316.25 111.365 328.018 114.178 333.241C114.411 333.694 119.012 340.33 119.089 340.239L119.18 340.122C119.53 341.989 119.932 344.01 120.476 346.136C121.409 350.127 122.485 354.625 123.988 359.446C125.555 364.652 127.424 369.763 129.587 374.751C131.98 380.355 134.868 385.733 138.218 390.822L138.348 391.003C136.832 389.772 132.464 386.506 132.101 386.299C126.995 383.292 115.331 380.493 110.367 384.912C109.57 385.669 108.941 386.585 108.52 387.6C108.098 388.616 107.895 389.708 107.922 390.807C107.948 391.906 108.205 392.987 108.676 393.981C109.146 394.975 109.819 395.859 110.652 396.576C114.113 399.738 119.893 399.933 124.248 399.168C129.172 398.274 138.063 392.066 138.763 391.573C142.3 396.651 146.166 401.491 150.336 406.063C152.76 408.745 155.287 411.363 157.84 413.968C156.544 412.957 155.248 412.063 155.105 411.947C149.986 408.94 138.335 406.14 133.371 410.573C132.574 411.329 131.943 412.244 131.521 413.259C131.099 414.274 130.894 415.366 130.919 416.465C130.945 417.564 131.201 418.646 131.67 419.64C132.139 420.634 132.811 421.519 133.644 422.237C137.104 425.399 142.884 425.593 147.252 424.829C151.619 424.064 159.356 418.88 161.378 417.493C162.363 418.491 163.348 419.489 164.346 420.461C169.128 425.192 173.923 429.87 178.472 434.614C180.092 436.285 181.608 437.996 183.138 439.694C181.945 438.8 180.922 438.048 180.753 437.944C175.634 434.951 163.983 432.138 159.019 436.571C158.222 437.328 157.593 438.244 157.172 439.259C156.75 440.274 156.547 441.367 156.573 442.466C156.6 443.565 156.857 444.646 157.328 445.64C157.798 446.633 158.471 447.517 159.304 448.235C162.765 451.397 168.545 451.591 172.899 450.827C177.254 450.062 184.265 445.383 186.663 443.75C188.179 445.526 189.696 447.314 191.082 449.116C192.002 450.412 192.974 451.513 193.83 452.822L196.422 456.62C197.977 459.082 199.597 461.622 201.061 464.072C202.085 465.769 203.031 467.402 203.99 469.048C202.409 467.364 199.247 464.137 198.949 463.864C194.778 460.719 189.869 458.698 184.693 457.993C184.244 457.623 183.762 457.293 183.254 457.009C182.304 456.445 181.246 456.089 180.148 455.962C179.051 455.835 177.939 455.94 176.885 456.272C175.831 456.603 174.859 457.153 174.031 457.885C173.204 458.617 172.54 459.515 172.083 460.521C169.491 466.638 175.971 476.772 180.403 480.648C180.662 480.868 183.825 483.032 185.833 484.354L181.945 482.553C179.353 481.347 176.606 480.22 173.716 478.989L169.426 477.356C168.013 476.772 166.445 476.345 164.929 475.826C161.404 474.699 157.788 473.727 154.107 472.833C155.157 470.5 158.786 462.18 158.812 457.721C158.838 453.263 157.632 447.638 153.9 444.761C153.048 444.059 152.057 443.545 150.993 443.252C149.928 442.959 148.814 442.894 147.722 443.062C146.631 443.229 145.588 443.625 144.66 444.224C143.732 444.823 142.942 445.611 142.34 446.537C138.853 452.187 143.636 463.177 147.524 467.688C147.757 467.973 150.893 470.902 152.708 472.47C150.492 471.951 148.288 471.42 146.033 470.966C139.553 469.67 132.892 468.517 126.282 467.364C124.261 467.014 122.252 466.638 120.23 466.275C120.619 465.445 125.129 455.648 125.168 450.658C125.168 446.226 123.988 440.575 120.256 437.698C119.403 436.997 118.412 436.483 117.347 436.19C116.282 435.897 115.168 435.832 114.076 435.998C112.984 436.164 111.94 436.559 111.011 437.155C110.081 437.752 109.288 438.537 108.683 439.461C105.196 445.124 109.979 456.114 113.867 460.624C114.165 460.961 118.675 465.173 119.88 466.184C115.435 465.368 111.015 464.512 106.7 463.501C100.851 462.153 95.0974 460.421 89.4759 458.317C89.6573 457.929 94.4266 447.716 94.4525 442.61C94.4525 438.178 93.2731 432.527 89.5407 429.65C88.6744 428.918 87.6599 428.382 86.5668 428.079C85.4738 427.777 84.3281 427.714 83.2087 427.896C82.0892 428.079 81.0225 428.501 80.082 429.135C79.1414 429.769 78.3492 430.599 77.76 431.568C74.2738 437.232 79.056 448.209 82.944 452.719C83.2421 453.082 88.128 457.592 89.0352 458.356C88.7112 458.227 88.3613 458.136 88.0373 458.019C82.4652 455.761 77.101 453.02 72.0058 449.829C69.1675 448.092 66.5496 446.278 64.0483 444.463C65.137 442.649 69.984 434.316 70.5283 429.728C71.0727 425.14 70.5283 419.567 67.081 416.327C66.3107 415.541 65.3836 414.925 64.36 414.52C63.3364 414.115 62.2391 413.93 61.1393 413.976C60.0395 414.023 58.9617 414.3 57.9759 414.79C56.9901 415.279 56.1183 415.971 55.417 416.82C51.3216 422.004 54.8856 433.512 58.2293 438.411C58.4107 438.683 60.5621 441.184 62.1173 442.999C61.0027 442.156 59.8363 441.314 58.7736 440.485C54.8856 437.4 51.3735 434.329 48.4056 431.581C46.6949 430 45.1786 428.548 43.7789 427.162C43.9085 424.829 44.3362 415.433 42.7291 411.182C41.1221 406.931 37.9858 402.201 33.4887 400.892C32.439 400.545 31.3282 400.424 30.2284 400.535C29.1287 400.647 28.0649 400.989 27.1062 401.539C26.1475 402.089 25.3156 402.835 24.6646 403.729C24.0136 404.622 23.5582 405.643 23.328 406.724C22.1227 413.268 30.5597 421.783 35.7826 424.596C36.2362 424.842 43.74 427.836 43.74 427.719C43.74 427.602 43.74 427.602 43.74 427.576C45.036 428.872 46.5005 430.363 48.0946 431.905C51.0624 434.717 54.445 437.88 58.3589 441.068C62.5376 444.549 66.9169 447.781 71.4744 450.749C76.5565 454.107 81.9307 457 87.5319 459.393L87.7392 459.471C85.8082 459.289 80.365 458.965 79.9632 458.978C74.0405 459.302 62.7783 463.398 61.0805 469.826C60.8284 470.9 60.8052 472.016 61.0125 473.1C61.2198 474.184 61.6528 475.213 62.2836 476.118C62.9143 477.024 63.7285 477.787 64.6734 478.357C65.6183 478.928 66.6726 479.293 67.7679 479.429C72.3557 480.168 77.2805 477.135 80.4687 474.064Z" fill="#919191"/>
<path d="M125.712 364.863C125.816 364.863 120.878 358.383 120.528 358.072C116.381 353.821 105.883 348.041 99.9216 350.996C98.9465 351.514 98.0916 352.233 97.4124 353.104C96.7333 353.975 96.2452 354.979 95.9799 356.051C95.7146 357.123 95.6781 358.239 95.8727 359.327C96.0673 360.414 96.4886 361.448 97.1093 362.362C99.6106 366.327 105.132 368.038 109.551 368.414C114.709 368.855 125.712 364.863 125.712 364.863Z" fill="#919191"/>
<path d="M596.536 456.529C591.961 454.028 585.014 444.658 585.014 444.645C585.014 444.632 592.583 441.949 593.088 441.832C598.882 440.536 610.831 441.547 614.161 447.301C614.691 448.269 615.011 449.338 615.1 450.437C615.19 451.537 615.046 452.643 614.679 453.684C614.313 454.724 613.731 455.676 612.971 456.477C612.212 457.277 611.293 457.909 610.273 458.33C605.971 460.261 600.424 458.641 596.536 456.529Z" fill="#919191"/>
<path d="M567.363 474.064C563.76 470.591 559.768 460.521 559.444 459.717C553.673 462.015 547.754 463.924 541.728 465.432C538.229 466.34 534.678 467.143 531.114 467.895C532.799 467.791 534.302 467.713 534.509 467.726C540.432 468.037 551.707 472.133 553.405 478.561C553.657 479.636 553.68 480.751 553.473 481.835C553.266 482.919 552.833 483.948 552.202 484.853C551.571 485.759 550.757 486.522 549.812 487.092C548.867 487.663 547.813 488.028 546.718 488.164C542.078 488.903 537.153 485.87 533.965 482.799C530.777 479.727 527.135 471.135 526.189 468.893C524.815 469.165 523.454 469.463 522.081 469.722C515.484 471.018 508.9 472.314 502.485 473.74C500.217 474.245 498.014 474.828 495.798 475.399C497.288 475.308 498.545 475.243 498.74 475.256C504.675 475.567 515.938 479.663 517.635 486.091C517.89 487.165 517.914 488.282 517.708 489.366C517.501 490.451 517.069 491.48 516.438 492.387C515.807 493.293 514.991 494.056 514.045 494.626C513.1 495.196 512.044 495.56 510.948 495.694C506.308 496.433 501.383 493.4 498.195 490.329C495.007 487.257 491.715 479.52 490.614 476.824C488.372 477.485 486.117 478.12 483.965 478.872C482.514 479.416 481.075 479.831 479.637 480.453L475.386 482.19C472.729 483.395 469.981 484.613 467.415 485.857C465.614 486.7 463.929 487.542 462.231 488.385C464.473 487.853 468.893 486.907 469.282 486.868C475.178 486.285 486.933 488.631 489.59 494.722C490.004 495.748 490.197 496.85 490.156 497.956C490.115 499.061 489.841 500.146 489.352 501.138C488.862 502.131 488.169 503.008 487.316 503.714C486.464 504.42 485.472 504.937 484.406 505.233C479.935 506.658 474.608 504.416 470.992 501.863C467.001 499.038 461.687 490.082 461.039 488.903C458.214 490.303 455.492 491.702 452.939 493.05C447.288 496.031 442.325 498.83 438.165 501.254L435.495 497.807C439.862 495.383 445.111 492.623 451.138 489.551C453.989 488.112 457.073 486.635 460.21 485.145C459.285 481.925 458.553 478.654 458.019 475.347C453.017 474.919 444.269 470.681 443.141 470.163C441.56 472.884 440.057 475.554 438.67 478.094C435.767 483.395 433.292 488.216 431.218 492.35L428.328 488.618C430.311 484.885 432.618 480.686 435.236 476.124C436.83 473.351 438.579 470.409 440.42 467.415C439.435 466.599 431.529 459.782 429.455 455.363C427.576 451.345 426.293 445.707 428.483 441.56C428.965 440.566 429.65 439.685 430.495 438.974C431.34 438.263 432.324 437.737 433.386 437.431C434.447 437.126 435.56 437.047 436.654 437.2C437.747 437.353 438.796 437.735 439.733 438.32C445.267 442.001 445.513 453.989 443.906 459.704C443.802 460.041 442.364 463.592 441.418 465.795C442.182 464.577 442.895 463.385 443.686 462.141C445.241 459.665 446.848 457.242 448.584 454.624L451.254 450.891C452.123 449.595 453.198 448.39 454.17 447.133C456.477 444.243 458.965 441.431 461.544 438.657C459.38 437.296 451.76 432.359 449.284 428.652C446.809 424.945 444.696 419.58 446.239 415.161C446.564 414.105 447.107 413.13 447.834 412.298C448.561 411.467 449.454 410.798 450.457 410.334C451.459 409.871 452.548 409.624 453.652 409.609C454.756 409.594 455.851 409.812 456.866 410.249C462.892 413.048 464.953 424.868 464.227 430.752C464.227 431.127 463.177 435.288 462.594 437.568C464.149 435.91 465.692 434.251 467.325 432.631C472.029 427.939 476.941 423.351 481.814 418.738L486.259 414.487C485.482 414.007 476.306 408.318 473.532 404.184C471.07 400.49 468.945 395.112 470.487 390.679C470.811 389.624 471.355 388.649 472.082 387.817C472.809 386.986 473.703 386.317 474.706 385.855C475.709 385.393 476.798 385.147 477.902 385.134C479.006 385.122 480.101 385.342 481.114 385.78C487.14 388.58 489.201 400.386 488.475 406.283C488.411 406.724 486.972 412.763 486.531 414.228C489.784 411.091 493.011 407.955 496.044 404.715C500.183 400.376 504.031 395.77 507.565 390.925C507.203 390.705 497.599 384.821 494.761 380.557C492.286 376.877 490.173 371.485 491.715 367.066C492.04 366.011 492.583 365.035 493.31 364.204C494.037 363.373 494.931 362.704 495.934 362.242C496.937 361.78 498.026 361.534 499.13 361.521C500.235 361.508 501.329 361.728 502.343 362.167C508.369 364.967 510.43 376.773 509.691 382.657C509.691 383.124 508.084 389.578 507.721 390.718C507.915 390.446 508.162 390.174 508.356 389.889C511.769 384.934 514.735 379.686 517.221 374.207C518.633 371.2 519.813 368.245 520.888 365.342C518.996 364.435 510.352 360.158 507.371 356.62C504.39 353.082 501.811 348.119 502.861 343.544C503.067 342.459 503.5 341.431 504.131 340.525C504.761 339.619 505.576 338.857 506.521 338.287C507.467 337.717 508.521 337.353 509.617 337.218C510.712 337.083 511.824 337.181 512.879 337.504C519.178 339.63 522.521 351.138 522.443 357.074C522.443 357.398 522.042 360.677 521.705 363.049C522.171 361.753 522.69 360.392 523.104 359.16C524.712 354.391 525.891 349.933 526.889 345.967C527.446 343.712 527.913 341.664 528.314 339.746C526.915 337.867 521.381 330.273 520.383 325.84C519.385 321.408 519.372 315.732 522.405 312.142C523.089 311.278 523.947 310.568 524.924 310.057C525.9 309.547 526.973 309.247 528.072 309.177C529.172 309.108 530.274 309.27 531.307 309.653C532.34 310.037 533.281 310.633 534.069 311.403C538.682 316.185 536.35 327.953 533.55 333.176C533.304 333.629 528.703 340.265 528.625 340.174L528.548 340.057C528.185 341.924 527.783 343.945 527.252 346.071C526.331 350.063 525.243 354.56 523.739 359.381C522.173 364.587 520.304 369.698 518.141 374.687C515.748 380.29 512.86 385.668 509.509 390.757L509.38 390.938C510.909 389.707 515.264 386.441 515.627 386.234C520.746 383.227 532.397 380.428 537.36 384.847C538.159 385.603 538.79 386.519 539.213 387.534C539.635 388.55 539.84 389.643 539.813 390.743C539.786 391.842 539.528 392.924 539.057 393.918C538.585 394.911 537.91 395.795 537.075 396.511C533.615 399.673 527.835 399.868 523.48 399.103C518.556 398.209 509.665 392.001 508.965 391.509C505.425 396.6 501.555 401.453 497.379 406.037C494.955 408.72 492.441 411.337 489.875 413.942C491.171 412.932 492.467 412.037 492.61 411.921C497.729 408.914 509.393 406.115 514.356 410.547C515.152 411.305 515.779 412.221 516.2 413.237C516.62 414.252 516.823 415.344 516.796 416.442C516.769 417.54 516.513 418.621 516.044 419.615C515.574 420.608 514.903 421.492 514.071 422.211C510.611 425.373 504.831 425.568 500.476 424.803C496.122 424.038 488.359 418.854 486.337 417.468C485.352 418.465 484.367 419.463 483.369 420.435C478.587 425.166 473.792 429.844 469.243 434.588C467.636 436.26 466.106 437.97 464.577 439.668C465.782 438.774 466.793 438.022 466.962 437.918C472.081 434.925 483.732 432.112 488.696 436.545C489.494 437.301 490.125 438.216 490.548 439.232C490.97 440.248 491.175 441.34 491.148 442.44C491.121 443.54 490.863 444.621 490.392 445.615C489.92 446.609 489.245 447.492 488.411 448.209C484.95 451.371 479.17 451.565 474.815 450.801C470.461 450.036 463.45 445.357 461.052 443.725C459.536 445.5 458.019 447.288 456.633 449.09C455.712 450.386 454.74 451.488 453.885 452.797L451.293 456.594C449.738 459.056 448.118 461.596 446.653 464.046C445.63 465.744 444.684 467.376 443.724 469.022C445.306 467.338 448.468 464.111 448.766 463.838C452.937 460.693 457.846 458.672 463.022 457.968C463.471 457.597 463.952 457.267 464.46 456.983C465.411 456.419 466.469 456.063 467.567 455.936C468.664 455.809 469.776 455.915 470.83 456.246C471.884 456.577 472.856 457.127 473.683 457.859C474.511 458.591 475.175 459.489 475.632 460.495C478.224 466.612 471.809 476.747 467.312 480.622C467.052 480.842 463.903 483.006 461.881 484.328L465.769 482.527C468.426 481.321 471.109 480.194 473.999 478.963L478.289 477.33C479.701 476.747 481.283 476.319 482.786 475.8C486.311 474.673 489.94 473.701 493.607 472.807C492.558 470.474 488.929 462.154 488.903 457.695C488.877 453.237 490.082 447.613 493.815 444.735C494.669 444.035 495.661 443.522 496.726 443.23C497.791 442.938 498.906 442.874 499.998 443.041C501.089 443.209 502.134 443.604 503.062 444.202C503.991 444.8 504.784 445.587 505.388 446.511C508.861 452.161 504.092 463.152 500.204 467.662C499.971 467.947 496.835 470.876 495.085 472.444C497.301 471.925 499.504 471.394 501.759 470.941C508.239 469.645 514.901 468.491 521.51 467.338C523.532 466.988 525.541 466.612 527.563 466.249C527.174 465.42 522.664 455.622 522.638 450.632C522.638 446.2 523.804 440.549 527.537 437.672C528.39 436.971 529.381 436.457 530.446 436.164C531.51 435.871 532.625 435.806 533.717 435.972C534.808 436.139 535.853 436.533 536.782 437.129C537.711 437.726 538.504 438.511 539.11 439.435C542.596 445.098 537.814 456.088 533.926 460.598C533.628 460.935 529.118 465.147 527.913 466.158C532.358 465.342 536.777 464.486 541.106 463.476C546.95 462.125 552.699 460.393 558.317 458.292C558.135 457.903 553.366 447.69 553.34 442.584C553.34 438.152 554.52 432.501 558.252 429.624C559.106 428.923 560.098 428.411 561.163 428.119C562.228 427.827 563.343 427.762 564.435 427.93C565.526 428.097 566.571 428.493 567.499 429.091C568.428 429.689 569.221 430.475 569.825 431.4C573.299 437.063 568.529 448.04 564.641 452.55C564.343 452.913 559.457 457.423 558.55 458.188C558.874 458.058 559.224 457.968 559.548 457.851C565.121 455.595 570.486 452.854 575.579 449.66C578.418 447.924 581.036 446.109 583.537 444.295C582.448 442.48 577.601 434.147 577.057 429.559C576.513 424.971 577.057 419.399 580.504 416.159C581.276 415.374 582.203 414.76 583.226 414.356C584.25 413.952 585.346 413.768 586.446 413.814C587.545 413.861 588.622 414.137 589.608 414.626C590.594 415.114 591.466 415.804 592.168 416.651C596.251 421.835 592.687 433.344 589.343 438.242C589.162 438.515 587.023 441.016 585.455 442.83C586.57 441.988 587.736 441.145 588.799 440.316C592.764 437.232 596.199 434.16 599.232 431.412C600.929 429.831 602.446 428.38 603.845 426.993C603.716 424.66 603.288 415.264 604.895 411.013C606.502 406.763 609.638 402.032 614.135 400.723C615.184 400.377 616.294 400.255 617.393 400.365C618.492 400.476 619.556 400.817 620.514 401.366C621.473 401.915 622.305 402.66 622.956 403.551C623.608 404.443 624.064 405.462 624.296 406.542C625.501 413.087 617.064 421.602 611.842 424.414C611.388 424.66 603.884 427.654 603.884 427.537C603.884 427.421 603.884 427.421 603.884 427.395C602.588 428.691 601.137 430.181 599.53 431.724C596.562 434.536 593.179 437.698 589.265 440.886C585.087 444.367 580.707 447.6 576.15 450.567C571.068 453.925 565.693 456.818 560.092 459.212L559.885 459.289C561.829 459.108 567.259 458.784 567.661 458.797C573.584 459.121 584.846 463.216 586.544 469.645C586.796 470.719 586.819 471.835 586.612 472.919C586.404 474.003 585.971 475.031 585.341 475.937C584.71 476.843 583.896 477.605 582.951 478.176C582.006 478.746 580.952 479.112 579.856 479.248C575.424 480.168 570.564 477.135 567.363 474.064Z" fill="#919191"/>
<path d="M522.158 364.863C522.042 364.863 526.98 358.383 527.342 358.072C531.49 353.821 541.987 348.041 547.949 350.996C548.927 351.511 549.786 352.227 550.469 353.096C551.152 353.966 551.644 354.969 551.913 356.042C552.182 357.114 552.222 358.231 552.03 359.32C551.838 360.409 551.419 361.446 550.8 362.362C548.299 366.327 542.778 368.038 538.371 368.414C533.123 368.855 522.158 364.863 522.158 364.863Z" fill="#919191"/>
<path d="M387.971 81.311C383.823 84.4474 372.419 86.9357 372.419 86.9357C372.419 86.9357 373.067 78.9264 373.17 78.421C374.401 72.6149 380.195 62.1173 386.817 61.4434C387.919 61.359 389.027 61.5078 390.067 61.8801C391.108 62.2524 392.058 62.8398 392.857 63.604C393.655 64.3682 394.284 65.2921 394.701 66.3155C395.119 67.3388 395.316 68.4387 395.28 69.5434C395.28 74.2349 391.496 78.6283 387.971 81.311Z" fill="#919191"/>
<path d="M391.988 115.111C387.348 116.964 376.514 116.472 375.659 116.407C375.39 122.602 374.706 128.771 373.611 134.875C373.002 138.439 372.315 142.003 371.498 145.567C372.095 143.986 372.639 142.586 372.794 142.404C375.516 137.13 383.888 128.537 390.433 129.626C391.517 129.837 392.544 130.274 393.448 130.908C394.352 131.542 395.112 132.359 395.68 133.307C396.247 134.254 396.608 135.31 396.74 136.407C396.873 137.503 396.772 138.615 396.446 139.67C395.15 144.193 390.433 147.446 386.325 149.092C382.216 150.738 372.898 150.53 370.462 150.388C370.151 151.749 369.852 153.122 369.528 154.483C368.012 160.963 366.457 167.547 365.148 173.923C364.681 176.204 364.306 178.459 363.917 180.714C364.448 179.315 364.902 178.122 364.992 177.967C367.714 172.692 376.073 164.1 382.631 165.188C383.715 165.399 384.742 165.836 385.646 166.47C386.55 167.104 387.311 167.922 387.878 168.869C388.445 169.816 388.806 170.873 388.939 171.969C389.071 173.065 388.97 174.177 388.644 175.232C387.413 179.755 382.631 183.008 378.51 184.654C374.388 186.3 366.003 186.119 363.087 185.95C362.763 188.27 362.439 190.603 362.232 192.858C362.115 194.413 361.908 195.89 361.882 197.446C361.856 199.001 361.778 200.53 361.727 202.033C361.727 204.962 361.727 207.969 361.791 210.82C361.791 212.803 361.908 214.708 361.973 216.6C362.413 214.332 363.359 209.913 363.476 209.55C365.368 203.926 372.328 194.167 379.028 194.244C380.137 194.288 381.224 194.565 382.218 195.059C383.212 195.552 384.09 196.25 384.795 197.107C385.5 197.963 386.016 198.96 386.308 200.03C386.601 201.1 386.664 202.22 386.493 203.316C385.962 207.982 381.724 211.909 377.914 214.164C373.702 216.652 363.359 217.806 362.063 217.948C362.18 221.098 362.336 224.156 362.517 227.02C362.919 233.397 363.424 239.073 363.93 243.868L359.692 244.892C359.277 239.916 358.862 233.967 358.59 227.241C358.448 224.052 358.37 220.631 358.318 217.119C355.002 216.64 351.718 215.964 348.481 215.097C346.032 219.478 338.567 225.711 337.608 226.515C339.435 229.107 341.25 231.543 342.999 233.85C346.641 238.671 350.024 242.922 352.979 246.512L348.391 247.614C345.799 244.27 342.909 240.447 339.837 236.183C337.958 233.591 335.949 230.792 334.018 227.902C332.865 228.446 323.417 232.865 318.466 232.943C314.034 232.943 308.37 231.854 305.506 228.148C304.798 227.301 304.275 226.315 303.973 225.253C303.671 224.191 303.596 223.078 303.752 221.985C303.909 220.892 304.293 219.844 304.881 218.91C305.469 217.976 306.247 217.176 307.165 216.562C312.803 213.024 323.831 217.728 328.367 221.538C328.64 221.772 331.284 224.532 332.916 226.308C332.113 225.115 331.322 223.975 330.506 222.744C328.886 220.307 327.344 217.845 325.672 215.188L323.352 211.222C322.561 209.926 321.875 208.436 321.123 207.023C319.451 203.731 317.909 200.31 316.431 196.824C314.306 198.236 306.672 203.148 302.279 203.887C297.886 204.625 292.131 204.353 288.723 201.126C287.901 200.397 287.241 199.503 286.785 198.503C286.329 197.503 286.088 196.419 286.077 195.32C286.066 194.221 286.286 193.132 286.721 192.123C287.157 191.114 287.799 190.208 288.606 189.462C293.635 185.108 305.247 188.088 310.327 191.173C310.638 191.354 314.034 193.985 315.861 195.463C314.993 193.35 314.124 191.264 313.269 189.112C310.923 182.904 308.746 176.528 306.556 170.191C305.882 168.26 305.182 166.303 304.495 164.398C303.743 164.903 294.788 170.942 289.876 171.772C285.509 172.511 279.729 172.225 276.32 169.011C275.5 168.281 274.841 167.387 274.387 166.387C273.932 165.387 273.692 164.303 273.681 163.205C273.67 162.107 273.889 161.018 274.323 160.01C274.757 159.001 275.398 158.094 276.203 157.347C281.232 153.006 292.844 155.974 297.924 159.058C298.3 159.291 303.173 163.076 304.404 164.1C302.888 159.836 301.346 155.611 299.648 151.515C297.385 145.965 294.766 140.567 291.807 135.354C291.457 135.588 282.139 141.925 277.111 142.78C272.73 143.519 266.963 143.234 263.542 140.02C262.724 139.287 262.068 138.393 261.616 137.392C261.163 136.392 260.925 135.308 260.915 134.211C260.905 133.113 261.125 132.025 261.559 131.017C261.993 130.009 262.633 129.103 263.438 128.356C268.466 124.014 280.079 126.982 285.159 130.067C285.548 130.313 290.796 134.382 291.639 135.186C291.47 134.888 291.315 134.551 291.146 134.253C288.03 129.107 284.46 124.249 280.48 119.737C278.316 117.223 276.113 114.929 273.91 112.752C272.303 114.048 264.838 120.243 260.405 121.5C255.973 122.757 250.374 123.081 246.629 120.204C245.717 119.571 244.949 118.752 244.377 117.801C243.804 116.85 243.44 115.789 243.307 114.687C243.175 113.584 243.278 112.467 243.609 111.407C243.941 110.348 244.493 109.371 245.229 108.54C249.752 103.654 261.624 105.339 267.002 107.853C267.3 107.983 270.112 109.693 272.186 110.976C271.188 110.004 270.164 108.994 269.179 108.086C265.499 104.665 261.909 101.762 258.707 99.2218C256.88 97.7832 255.195 96.5261 253.614 95.3338C251.333 95.8522 242.119 97.7702 237.673 96.863C233.228 95.9558 228.044 93.636 226.009 89.3981C225.501 88.4186 225.205 87.3431 225.139 86.2415C225.074 85.1399 225.241 84.0368 225.629 83.004C226.018 81.9712 226.62 81.0317 227.395 80.2466C228.171 79.4614 229.103 78.8483 230.131 78.4469C236.39 76.2048 246.149 83.1643 249.765 87.8688C250.076 88.2706 254.249 95.1912 254.12 95.2171H253.99C255.528 96.2971 257.187 97.4938 258.967 98.807C262.22 101.295 265.874 104.121 269.646 107.477C273.751 111.045 277.646 114.849 281.31 118.869C285.429 123.401 289.133 128.294 292.378 133.488C292.378 133.488 292.442 133.618 292.481 133.669C291.989 131.79 290.796 126.477 290.758 126.062C290.11 120.152 292.339 108.372 298.417 105.663C299.437 105.242 300.535 105.041 301.638 105.072C302.742 105.104 303.826 105.367 304.821 105.845C305.816 106.323 306.7 107.005 307.414 107.846C308.128 108.688 308.657 109.671 308.966 110.73C310.444 115.188 308.241 120.528 305.726 124.183C302.875 128.291 293.57 133.851 292.766 134.304C295.965 139.615 298.801 145.135 301.255 150.828C302.707 154.133 304.067 157.503 305.389 160.911C305.014 159.265 304.69 157.801 304.677 157.581C304.029 151.684 306.271 139.903 312.336 137.195C313.356 136.774 314.454 136.573 315.558 136.604C316.661 136.635 317.745 136.898 318.74 137.376C319.735 137.854 320.619 138.536 321.333 139.378C322.047 140.22 322.576 141.202 322.885 142.262C324.363 146.72 322.16 152.06 319.645 155.714C317.131 159.369 309.277 164.32 307.152 165.59C307.644 166.886 308.15 168.182 308.642 169.478C310.988 175.764 313.295 182.062 315.744 188.166C316.613 190.318 317.533 192.404 318.453 194.504C318.129 193.039 317.87 191.808 317.844 191.614C317.209 185.717 319.438 173.936 325.503 171.228C326.525 170.805 327.623 170.602 328.728 170.632C329.833 170.662 330.919 170.925 331.916 171.403C332.912 171.881 333.797 172.564 334.512 173.407C335.227 174.25 335.757 175.234 336.066 176.295C337.53 180.74 335.34 186.093 332.813 189.734C330.286 193.376 323.184 197.86 320.708 199.377C321.706 201.489 322.717 203.615 323.793 205.623C324.557 206.919 325.192 208.319 326.035 209.641C326.877 210.963 327.642 212.233 328.432 213.529C330.052 215.965 331.698 218.48 333.331 220.812C334.459 222.445 335.56 223.988 336.675 225.53C335.781 223.404 334.083 219.192 334.083 218.817C332.931 213.726 333.101 208.426 334.575 203.42C334.419 202.857 334.319 202.28 334.277 201.696C334.153 200.6 334.262 199.49 334.596 198.438C334.93 197.387 335.482 196.417 336.215 195.593C336.949 194.769 337.848 194.109 338.854 193.655C339.86 193.202 340.95 192.965 342.053 192.961C348.702 193.117 355.311 203.122 356.996 208.812C357.1 209.136 357.774 212.907 358.15 215.292C358.15 213.853 358.15 212.453 358.15 210.989C358.15 208.06 358.214 205.144 358.279 202.02C358.366 200.508 358.456 198.979 358.551 197.433C358.551 195.903 358.849 194.283 359.005 192.702C359.42 189.022 360.029 185.315 360.716 181.608C358.124 181.608 349.052 181.492 345.008 179.69C340.965 177.889 336.299 174.506 335.223 169.906C334.933 168.84 334.871 167.725 335.041 166.633C335.211 165.542 335.609 164.499 336.209 163.571C336.81 162.644 337.599 161.854 338.526 161.253C339.452 160.652 340.495 160.253 341.587 160.082C348.183 159.227 356.232 168.117 358.759 173.483C358.914 173.82 360.301 177.876 361.014 180.118C361.454 177.889 361.869 175.66 362.387 173.418C363.852 166.938 365.55 160.458 367.209 153.978C367.727 151.995 368.207 149.999 368.699 148.016C367.792 148.016 357.035 148.12 352.434 146.098C348.391 144.297 343.725 140.914 342.649 136.313C342.361 135.247 342.301 134.131 342.473 133.04C342.644 131.948 343.044 130.905 343.645 129.978C344.247 129.052 345.037 128.262 345.964 127.661C346.891 127.06 347.934 126.661 349.026 126.49C355.609 125.634 363.658 134.525 366.185 139.89C366.379 140.292 368.362 146.137 368.777 147.666C369.865 143.273 370.902 138.905 371.745 134.538C372.921 128.66 373.718 122.711 374.129 116.731C373.702 116.731 362.465 116.886 357.761 114.813C353.704 113.024 349.052 109.629 347.976 105.028C347.69 103.962 347.631 102.848 347.804 101.758C347.976 100.668 348.376 99.6267 348.978 98.7015C349.579 97.7762 350.368 96.9878 351.294 96.3875C352.22 95.7872 353.262 95.3885 354.352 95.2171C360.936 94.3618 368.984 103.239 371.511 108.618C371.719 109.032 373.844 115.318 374.103 116.484C374.103 116.135 374.194 115.785 374.207 115.435C374.445 109.424 374.15 103.405 373.326 97.4462C372.911 94.1544 372.328 90.9662 371.693 87.9984C369.606 88.2446 360.029 89.2944 355.609 87.8429C351.19 86.3914 346.369 83.6179 344.801 79.1986C344.398 78.171 344.216 77.0702 344.267 75.9677C344.317 74.8652 344.599 73.7857 345.094 72.7993C345.589 71.8129 346.286 70.9417 347.14 70.2423C347.994 69.5429 348.985 69.031 350.05 68.7398C356.53 67.1587 365.485 75.1162 368.595 80.1706C368.764 80.4427 370.163 83.4365 371.187 85.6267C370.876 84.3307 370.591 82.8533 370.267 81.5443C369.075 76.6584 367.675 72.265 366.379 68.377C365.64 66.1738 364.928 64.1909 364.254 62.3506C362.063 61.5211 353.328 58.0478 350.114 54.8338C346.9 51.6197 343.868 46.8245 344.516 42.1848C344.631 41.0859 344.976 40.0235 345.529 39.067C346.083 38.1104 346.831 37.2811 347.726 36.6331C348.621 35.9851 349.642 35.5329 350.724 35.3059C351.805 35.079 352.922 35.0824 354.002 35.316C360.482 36.8971 364.759 48.0816 365.174 54.0043C365.174 54.5098 364.863 62.5838 364.759 62.545H364.63C365.316 64.3075 366.042 66.1997 366.781 68.2862C368.077 72.1742 369.619 76.5418 370.928 81.4147C372.382 86.6535 373.533 91.9716 374.375 97.3426C375.341 103.341 375.774 109.412 375.671 115.487C375.679 115.56 375.679 115.634 375.671 115.707C376.307 113.867 378.264 108.773 378.445 108.397C381.167 103.123 389.526 94.5302 396.071 95.6189C397.154 95.8298 398.182 96.2666 399.086 96.9008C399.99 97.5349 400.75 98.3523 401.317 99.2997C401.885 100.247 402.246 101.303 402.378 102.4C402.51 103.496 402.41 104.608 402.084 105.663C400.879 110.16 396.096 113.452 391.988 115.111Z" fill="#919191"/>
<path d="M273.858 111.456C273.767 111.547 269.97 104.419 269.788 103.939C267.611 98.4182 266.652 86.4691 271.797 82.2571C272.669 81.5806 273.674 81.0955 274.747 80.8335C275.819 80.5715 276.934 80.5385 278.02 80.7366C279.106 80.9347 280.138 81.3594 281.049 81.9832C281.96 82.607 282.728 83.4157 283.306 84.3566C285.898 88.2446 285.198 93.9989 283.72 98.185C281.997 103.136 273.858 111.456 273.858 111.456Z" fill="#919191"/>
<path d="M484.263 158.76V142.016H473.195L166.147 449.051V476.876L484.263 158.76Z" fill="white"/>
<path d="M166.147 229.172V338.256L362.4 142.016H253.303L166.147 229.172Z" fill="white"/>
<path d="M436.908 563.112L484.263 515.756V406.672L327.823 563.112H436.908Z" fill="white"/>
<path d="M493.88 111.767H156.531C149.223 111.767 143.299 117.691 143.299 124.999V580.128C143.299 587.436 149.223 593.361 156.531 593.361H493.88C501.188 593.361 507.112 587.436 507.112 580.128V124.999C507.112 117.691 501.188 111.767 493.88 111.767Z" fill="#263238"/>
<path d="M484.263 142.016H166.147V563.125H484.263V142.016Z" fill="#0EA960"/>
<path opacity="0.2" d="M143.299 185.6V320.332L351.864 111.767H217.132L143.299 185.6Z" fill="white"/>
<path opacity="0.2" d="M507.112 127.747V123.522C507.112 120.404 505.873 117.414 503.669 115.21C501.465 113.005 498.475 111.767 495.357 111.767H488.722L143.299 457.19V491.56L507.112 127.747Z" fill="white"/>
<path opacity="0.2" d="M507.112 568.698V433.966L347.704 593.361H482.449L507.112 568.698Z" fill="white"/>
<path d="M399.79 307.632H250.607V332.929H399.79V307.632Z" fill="white" stroke="#263238" stroke-linecap="round" stroke-linejoin="round"/>
<path d="M399.79 354.741H250.607V380.039H399.79V354.741Z" fill="white" stroke="#263238" stroke-linecap="round" stroke-linejoin="round"/>
<path d="M359.523 402.162H290.874C287.41 402.162 284.602 404.97 284.602 408.434V421.187C284.602 424.651 287.41 427.46 290.874 427.46H359.523C362.988 427.46 365.796 424.651 365.796 421.187V408.434C365.796 404.97 362.988 402.162 359.523 402.162Z" fill="#263238" stroke="#263238" stroke-linecap="round" stroke-linejoin="round"/>
<path d="M350.827 227.876C350.82 232.95 349.308 237.908 346.483 242.123C343.658 246.338 339.647 249.621 334.956 251.557C330.266 253.493 325.107 253.994 320.132 252.999C315.156 252.003 310.588 249.555 307.003 245.963C303.419 242.372 300.98 237.798 299.994 232.821C299.009 227.843 299.521 222.685 301.466 217.999C303.412 213.313 306.703 209.308 310.924 206.492C315.144 203.675 320.105 202.173 325.179 202.176C328.555 202.164 331.9 202.821 335.021 204.109C338.141 205.397 340.976 207.29 343.36 209.68C345.745 212.069 347.633 214.907 348.914 218.031C350.196 221.154 350.846 224.5 350.827 227.876Z" fill="white" stroke="#263238" stroke-linecap="round" stroke-linejoin="round"/>
<path d="M332.747 231.444C336.933 227.258 336.933 220.472 332.747 216.286C328.562 212.101 321.775 212.101 317.59 216.286C313.404 220.472 313.404 227.258 317.59 231.444C321.775 235.629 328.562 235.629 332.747 231.444Z" fill="#263238" stroke="#263238" stroke-linecap="round" stroke-linejoin="round"/>
<path d="M341.016 248.041C336.503 251.602 330.922 253.538 325.173 253.538C319.424 253.538 313.843 251.602 309.329 248.041C310.127 244.433 312.132 241.206 315.012 238.892C317.893 236.578 321.478 235.317 325.173 235.317C328.868 235.317 332.452 236.578 335.333 238.892C338.214 241.206 340.219 244.433 341.016 248.041Z" fill="#263238" stroke="#263238" stroke-linecap="round" stroke-linejoin="round"/>
<path d="M309.744 283.098V271.914H311.792V281.686H314.5V283.098H309.744Z" fill="#263238"/>
<path d="M318.518 283.254C317.855 283.282 317.196 283.13 316.613 282.813C316.142 282.508 315.789 282.051 315.615 281.517C315.394 280.884 315.289 280.217 315.304 279.547V275.361C315.289 274.7 315.394 274.041 315.615 273.417C315.782 272.88 316.136 272.42 316.613 272.121C317.209 271.84 317.859 271.694 318.518 271.694C319.177 271.694 319.827 271.84 320.423 272.121C320.9 272.423 321.257 272.881 321.434 273.417C321.655 274.041 321.76 274.7 321.745 275.361V279.56C321.76 280.222 321.655 280.88 321.434 281.504C321.247 282.034 320.892 282.489 320.423 282.8C319.844 283.129 319.183 283.286 318.518 283.254ZM318.518 281.75C318.787 281.769 319.053 281.691 319.27 281.53C319.431 281.36 319.543 281.15 319.594 280.921C319.647 280.643 319.673 280.361 319.671 280.079V274.895C319.674 274.612 319.648 274.33 319.594 274.052C319.545 273.83 319.432 273.628 319.27 273.469C319.053 273.308 318.787 273.23 318.518 273.249C318.253 273.232 317.991 273.31 317.779 273.469C317.608 273.623 317.49 273.827 317.442 274.052C317.388 274.33 317.362 274.612 317.365 274.895V280.079C317.363 280.361 317.389 280.643 317.442 280.921C317.481 281.154 317.594 281.368 317.766 281.53C317.982 281.691 318.249 281.769 318.518 281.75Z" fill="#263238"/>
<path d="M326.061 283.254C325.439 283.285 324.823 283.122 324.298 282.787C323.864 282.458 323.539 282.007 323.365 281.491C323.167 280.827 323.071 280.137 323.08 279.444V275.659C323.062 274.957 323.158 274.257 323.365 273.586C323.529 273.054 323.872 272.596 324.337 272.29C324.921 271.947 325.592 271.785 326.268 271.823C326.896 271.794 327.521 271.928 328.082 272.212C328.528 272.457 328.872 272.852 329.054 273.326C329.272 273.888 329.374 274.487 329.353 275.089V275.659H327.409V275.024C327.412 274.716 327.386 274.407 327.331 274.104C327.297 273.882 327.192 273.678 327.033 273.521C326.806 273.369 326.54 273.288 326.268 273.288C325.996 273.288 325.73 273.369 325.503 273.521C325.336 273.719 325.232 273.963 325.205 274.221C325.163 274.53 325.141 274.842 325.141 275.154V279.845C325.138 280.181 325.173 280.515 325.244 280.843C325.293 281.093 325.415 281.323 325.594 281.504C325.808 281.671 326.075 281.754 326.346 281.737C326.625 281.754 326.899 281.661 327.11 281.478C327.294 281.289 327.42 281.05 327.473 280.791C327.545 280.446 327.58 280.094 327.577 279.742V278.692H326.372V277.396H329.417V283.072H328.121L327.979 281.971C327.831 282.324 327.6 282.635 327.305 282.878C326.946 283.142 326.506 283.275 326.061 283.254Z" fill="#263238"/>
<path d="M331.024 283.098V271.914H333.072V283.098H331.024Z" fill="#263238"/>
<path d="M334.77 283.098V271.914H336.195L338.917 278.29V271.914H340.602V283.098H339.306L336.558 276.411V283.098H334.77Z" fill="#263238"/>
<path d="M301.126 326.735C300.471 326.775 299.821 326.602 299.272 326.242C298.832 325.928 298.515 325.47 298.378 324.946C298.212 324.277 298.133 323.588 298.145 322.898V315.485H299.635V322.963C299.636 323.397 299.671 323.831 299.739 324.259C299.786 324.603 299.93 324.927 300.154 325.192C300.283 325.314 300.436 325.408 300.603 325.468C300.771 325.529 300.948 325.554 301.126 325.542C301.305 325.556 301.485 325.531 301.655 325.471C301.825 325.411 301.98 325.316 302.111 325.192C302.335 324.927 302.479 324.603 302.525 324.259C302.594 323.831 302.628 323.397 302.629 322.963V315.485H304.106V322.898C304.118 323.588 304.04 324.277 303.873 324.946C303.732 325.464 303.422 325.92 302.992 326.242C302.44 326.604 301.785 326.777 301.126 326.735Z" fill="#CBCBCB"/>
<path d="M308.448 326.735C307.884 326.754 307.325 326.61 306.841 326.32C306.41 326.04 306.071 325.639 305.869 325.166C305.636 324.629 305.504 324.054 305.48 323.469L306.867 323.093C306.887 323.483 306.948 323.869 307.048 324.246C307.128 324.585 307.293 324.897 307.528 325.153C307.783 325.376 308.11 325.498 308.448 325.498C308.786 325.498 309.113 325.376 309.368 325.153C309.589 324.88 309.7 324.533 309.679 324.181C309.717 323.722 309.593 323.264 309.329 322.885C309.076 322.543 308.784 322.23 308.461 321.952L306.582 320.293C306.243 320.001 305.966 319.644 305.765 319.244C305.583 318.796 305.495 318.315 305.506 317.831C305.487 317.481 305.539 317.13 305.659 316.8C305.78 316.47 305.966 316.169 306.206 315.913C306.738 315.447 307.43 315.205 308.137 315.239C308.533 315.234 308.927 315.295 309.303 315.42C309.626 315.52 309.917 315.704 310.146 315.952C310.382 316.211 310.562 316.515 310.677 316.846C310.825 317.264 310.917 317.7 310.949 318.142L309.653 318.505C309.628 318.159 309.571 317.817 309.485 317.481C309.414 317.197 309.261 316.939 309.044 316.742C308.786 316.549 308.472 316.444 308.15 316.444C307.828 316.444 307.514 316.549 307.256 316.742C307.141 316.865 307.052 317.01 306.996 317.168C306.941 317.327 306.919 317.495 306.932 317.663C306.919 317.953 306.977 318.242 307.1 318.505C307.245 318.76 307.434 318.989 307.657 319.179L309.55 320.838C309.99 321.209 310.37 321.647 310.677 322.134C311.004 322.682 311.17 323.31 311.157 323.948C311.17 324.446 311.049 324.939 310.807 325.374C310.592 325.769 310.262 326.09 309.861 326.294C309.438 326.564 308.95 326.716 308.448 326.735Z" fill="#CBCBCB"/>
<path d="M312.336 326.592V315.408H316.665V316.561H313.891V320.268H316.146V321.408H313.891V325.516H316.704V326.592H312.336Z" fill="#CBCBCB"/>
<path d="M317.909 326.592V315.408H320.112C320.743 315.383 321.373 315.485 321.965 315.706C322.433 315.875 322.821 316.212 323.054 316.652C323.309 317.189 323.429 317.781 323.404 318.375C323.406 318.773 323.358 319.169 323.261 319.555C323.184 319.882 323.033 320.188 322.821 320.449C322.613 320.704 322.333 320.89 322.017 320.98L323.611 326.592H322.108L320.643 321.408H319.425V326.592H317.909ZM319.464 320.229H320.112C320.478 320.237 320.842 320.18 321.188 320.06C321.455 319.954 321.673 319.75 321.797 319.49C321.943 319.137 322.009 318.757 321.991 318.375C322.038 317.877 321.91 317.377 321.628 316.963C321.437 316.789 321.211 316.66 320.964 316.584C320.718 316.508 320.458 316.487 320.203 316.522H319.516L319.464 320.229Z" fill="#CBCBCB"/>
<path d="M325.076 326.592V315.408H326.138L329.314 322.834V315.408H330.61V326.592H329.625L326.398 318.959V326.592H325.076Z" fill="#CBCBCB"/>
<path d="M331.776 326.592L334.148 315.408H335.664L338.062 326.592H336.584L336.066 323.78H333.785L333.254 326.592H331.776ZM333.979 322.704H335.846L334.912 317.663L333.979 322.704Z" fill="#CBCBCB"/>
<path d="M339.137 326.592L339.345 315.408H340.848L342.831 324.48L344.814 315.408H346.33L346.538 326.592H345.242L345.125 318.466L343.298 326.592H342.416L340.537 318.466L340.407 326.592H339.137Z" fill="#CBCBCB"/>
<path d="M348.287 326.592V315.408H352.616V316.561H349.842V320.268H352.097V321.408H349.842V325.516H352.655V326.592H348.287Z" fill="#CBCBCB"/>
<path d="M297.16 372.898V361.714H299.933C300.492 361.683 301.049 361.808 301.54 362.076C301.946 362.321 302.256 362.696 302.422 363.139C302.617 363.674 302.71 364.242 302.694 364.811C302.707 365.338 302.6 365.86 302.383 366.34C302.189 366.758 301.873 367.106 301.476 367.338C301.005 367.585 300.478 367.706 299.946 367.688H298.715V372.872L297.16 372.898ZM298.715 366.574H299.441C299.802 366.588 300.162 366.535 300.504 366.418C300.629 366.374 300.743 366.304 300.84 366.213C300.936 366.121 301.011 366.01 301.061 365.887C301.179 365.545 301.232 365.185 301.216 364.824C301.229 364.41 301.19 363.997 301.1 363.593C301.07 363.462 301.01 363.339 300.925 363.236C300.839 363.132 300.73 363.05 300.607 362.997C300.237 362.869 299.845 362.812 299.454 362.828H298.715V366.574Z" fill="#CBCBCB"/>
<path d="M302.655 372.898L305.04 361.714H306.543L308.928 372.898H307.45L306.945 370.086H304.664L304.119 372.898H302.655ZM304.871 369.01H306.737L305.791 363.969L304.871 369.01Z" fill="#CBCBCB"/>
<path d="M312.699 373.028C312.134 373.047 311.576 372.903 311.092 372.613C310.663 372.337 310.325 371.94 310.12 371.472C309.888 370.93 309.756 370.351 309.731 369.762L311.118 369.399C311.144 369.784 311.205 370.165 311.299 370.539C311.385 370.876 311.549 371.187 311.779 371.447C311.899 371.566 312.043 371.659 312.201 371.72C312.36 371.78 312.53 371.806 312.699 371.796C312.867 371.809 313.037 371.785 313.195 371.727C313.354 371.669 313.498 371.578 313.619 371.46C313.843 371.187 313.954 370.839 313.93 370.488C313.951 370.05 313.828 369.618 313.58 369.256C313.32 368.92 313.029 368.607 312.712 368.323L310.833 366.677C310.491 366.383 310.213 366.021 310.016 365.615C309.825 365.16 309.732 364.669 309.744 364.176C309.722 363.826 309.774 363.476 309.897 363.147C310.02 362.819 310.211 362.52 310.457 362.271C310.709 362.038 311.005 361.857 311.327 361.739C311.65 361.621 311.993 361.568 312.336 361.584C312.732 361.579 313.126 361.64 313.502 361.765C313.823 361.87 314.112 362.053 314.345 362.297C314.582 362.56 314.763 362.868 314.876 363.204C315.031 363.62 315.122 364.057 315.148 364.5L313.852 364.863C313.827 364.522 313.77 364.183 313.684 363.852C313.614 363.564 313.46 363.302 313.243 363.1C312.985 362.907 312.671 362.802 312.349 362.802C312.027 362.802 311.713 362.907 311.455 363.1C311.34 363.223 311.251 363.368 311.196 363.526C311.14 363.685 311.118 363.853 311.131 364.02C311.118 364.311 311.176 364.6 311.299 364.863C311.441 365.121 311.63 365.349 311.857 365.537L313.749 367.196C314.183 367.573 314.562 368.009 314.876 368.492C315.207 369.038 315.373 369.668 315.356 370.306C315.37 370.808 315.249 371.305 315.006 371.745C314.786 372.133 314.457 372.449 314.06 372.652C313.645 372.891 313.177 373.02 312.699 373.028Z" fill="#CBCBCB"/>
<path d="M319.231 373.028C318.666 373.046 318.109 372.902 317.624 372.613C317.195 372.337 316.856 371.94 316.652 371.472C316.42 370.93 316.288 370.351 316.263 369.762L317.65 369.399C317.676 369.784 317.737 370.165 317.831 370.539C317.916 370.876 318.081 371.187 318.311 371.447C318.431 371.566 318.575 371.659 318.733 371.72C318.892 371.78 319.061 371.806 319.231 371.796C319.399 371.809 319.568 371.785 319.727 371.727C319.886 371.669 320.03 371.578 320.151 371.46C320.374 371.187 320.486 370.839 320.462 370.488C320.48 370.052 320.362 369.622 320.125 369.256C319.857 368.926 319.567 368.614 319.257 368.323L317.378 366.677C317.028 366.39 316.749 366.026 316.561 365.615C316.366 365.17 316.273 364.687 316.289 364.202C316.267 363.852 316.319 363.501 316.442 363.173C316.565 362.845 316.755 362.546 317.002 362.297C317.258 362.059 317.561 361.875 317.89 361.757C318.22 361.639 318.57 361.589 318.92 361.61C319.316 361.605 319.71 361.666 320.086 361.791C320.408 361.893 320.698 362.076 320.929 362.323C321.166 362.588 321.35 362.896 321.473 363.23C321.616 363.649 321.703 364.084 321.732 364.526L320.436 364.889C320.417 364.547 320.36 364.208 320.268 363.878C320.202 363.591 320.054 363.329 319.84 363.126C319.588 362.923 319.269 362.821 318.946 362.841C318.615 362.825 318.29 362.936 318.038 363.152C317.923 363.274 317.835 363.42 317.779 363.578C317.723 363.736 317.701 363.905 317.714 364.072C317.702 364.363 317.76 364.652 317.883 364.915C318.03 365.173 318.223 365.401 318.453 365.589L320.345 367.247C320.772 367.628 321.147 368.064 321.46 368.543C321.79 369.09 321.957 369.72 321.939 370.358C321.951 370.858 321.835 371.353 321.602 371.796C321.375 372.179 321.048 372.493 320.656 372.704C320.217 372.933 319.726 373.045 319.231 373.028Z" fill="#CBCBCB"/>
<path d="M324.583 372.898L322.704 361.714H324L325.205 369.749L326.709 361.753H327.888L329.404 369.801L330.584 361.714H331.88L330.078 372.898H328.951L327.383 364.617L325.814 372.898H324.583Z" fill="#CBCBCB"/>
<path d="M335.949 373.028C335.318 373.062 334.692 372.908 334.148 372.587C333.684 372.28 333.34 371.822 333.176 371.291C332.973 370.672 332.876 370.024 332.891 369.373V365.122C332.872 364.478 332.973 363.837 333.189 363.23C333.364 362.728 333.701 362.3 334.148 362.012C334.696 361.702 335.32 361.554 335.949 361.584C336.578 361.557 337.201 361.705 337.751 362.012C338.194 362.303 338.531 362.73 338.71 363.23C338.92 363.838 339.02 364.479 339.008 365.122V369.36C339.018 370.007 338.917 370.652 338.71 371.265C338.544 371.792 338.206 372.248 337.751 372.561C337.21 372.894 336.583 373.056 335.949 373.028ZM335.949 371.797C336.285 371.824 336.62 371.732 336.895 371.537C337.112 371.353 337.262 371.103 337.323 370.825C337.395 370.466 337.429 370.101 337.427 369.736V364.837C337.43 364.476 337.395 364.115 337.323 363.761C337.264 363.49 337.113 363.247 336.895 363.074C336.606 362.913 336.28 362.829 335.949 362.829C335.618 362.829 335.292 362.913 335.003 363.074C334.781 363.243 334.629 363.488 334.575 363.761C334.492 364.114 334.452 364.475 334.459 364.837V369.736C334.453 370.102 334.493 370.468 334.575 370.825C334.63 371.105 334.781 371.357 335.003 371.537C335.278 371.732 335.613 371.824 335.949 371.797Z" fill="#CBCBCB"/>
<path d="M340.537 372.898V361.714H342.792C343.423 361.696 344.052 361.797 344.645 362.012C345.106 362.193 345.49 362.527 345.734 362.958C345.989 363.495 346.109 364.087 346.084 364.681C346.087 365.079 346.039 365.475 345.941 365.861C345.867 366.193 345.716 366.504 345.501 366.768C345.284 367.012 345.007 367.196 344.697 367.299L346.291 372.898H344.736L343.272 367.649H342.144V372.898H340.537ZM342.105 366.535H342.688C343.059 366.55 343.428 366.492 343.777 366.366C343.911 366.316 344.034 366.24 344.138 366.142C344.243 366.044 344.327 365.926 344.386 365.796C344.528 365.442 344.59 365.062 344.568 364.681C344.61 364.185 344.487 363.688 344.218 363.269C344.026 363.097 343.799 362.969 343.553 362.893C343.307 362.817 343.047 362.795 342.792 362.828H342.144L342.105 366.535Z" fill="#CBCBCB"/>
<path d="M347.704 372.898V361.714H350.14C350.817 361.684 351.492 361.813 352.11 362.089C352.58 362.334 352.948 362.739 353.147 363.23C353.371 363.835 353.477 364.477 353.458 365.122V369.243C353.477 369.922 353.372 370.598 353.147 371.239C352.972 371.776 352.615 372.235 352.136 372.535C351.564 372.841 350.918 372.985 350.27 372.95L347.704 372.898ZM349.272 371.784H350.153C350.587 371.822 351.019 371.702 351.372 371.447C351.627 371.19 351.779 370.849 351.799 370.488C351.856 369.975 351.882 369.46 351.877 368.945V365.316C351.89 364.843 351.855 364.37 351.773 363.904C351.75 363.747 351.694 363.597 351.609 363.463C351.524 363.329 351.412 363.215 351.281 363.126C350.925 362.929 350.52 362.839 350.114 362.867H349.272V371.784Z" fill="#CBCBCB"/>
<path d="M308.642 419.904C308.057 419.924 307.475 419.79 306.958 419.515C306.502 419.25 306.144 418.845 305.934 418.362C305.682 417.771 305.55 417.137 305.545 416.496L307.295 416.146C307.311 416.535 307.368 416.921 307.463 417.299C307.521 417.587 307.661 417.852 307.865 418.064C307.958 418.157 308.069 418.229 308.192 418.276C308.315 418.323 308.446 418.343 308.578 418.336C308.71 418.347 308.843 418.325 308.964 418.273C309.086 418.221 309.194 418.141 309.278 418.038C309.422 417.814 309.495 417.552 309.485 417.286C309.502 416.859 309.384 416.437 309.148 416.081C308.893 415.735 308.597 415.422 308.267 415.148L306.854 413.852C306.479 413.525 306.159 413.14 305.908 412.711C305.662 412.231 305.542 411.696 305.558 411.156C305.535 410.779 305.592 410.401 305.726 410.048C305.86 409.695 306.068 409.375 306.336 409.108C306.921 408.606 307.678 408.351 308.448 408.396C308.892 408.384 309.333 408.463 309.744 408.629C310.077 408.78 310.366 409.011 310.586 409.303C310.799 409.594 310.953 409.924 311.04 410.275C311.146 410.651 311.211 411.038 311.234 411.428L309.498 411.739C309.489 411.421 309.45 411.104 309.381 410.793C309.337 410.551 309.225 410.326 309.057 410.145C308.969 410.062 308.865 409.999 308.751 409.959C308.638 409.919 308.517 409.903 308.396 409.912C308.264 409.903 308.132 409.926 308.011 409.977C307.889 410.029 307.782 410.109 307.696 410.21C307.526 410.417 307.438 410.68 307.45 410.949C307.438 411.276 307.519 411.599 307.683 411.882C307.875 412.164 308.107 412.417 308.37 412.633L309.757 413.865C310.22 414.252 310.619 414.712 310.936 415.225C311.282 415.79 311.454 416.443 311.429 417.105C311.44 417.632 311.306 418.152 311.04 418.608C310.812 419.02 310.47 419.357 310.055 419.58C309.618 419.804 309.133 419.915 308.642 419.904Z" fill="#E5E5E5"/>
<path d="M312.595 419.761V408.564H314.604V419.761H312.595Z" fill="#E5E5E5"/>
<path d="M319.14 419.904C318.522 419.938 317.909 419.775 317.391 419.437C316.944 419.121 316.616 418.665 316.457 418.141C316.26 417.451 316.181 416.733 316.224 416.016V412.258C316.21 411.557 316.302 410.858 316.496 410.184C316.66 409.652 317.004 409.194 317.468 408.888C318.056 408.558 318.726 408.401 319.399 408.434C320.03 408.41 320.657 408.539 321.227 408.81C321.666 409.063 322.008 409.455 322.199 409.925C322.408 410.488 322.509 411.086 322.497 411.687V412.271H320.54V411.636C320.563 411.329 320.563 411.022 320.54 410.715C320.503 410.488 320.394 410.279 320.229 410.119C320.012 409.971 319.751 409.903 319.49 409.925C319.349 409.909 319.207 409.924 319.073 409.968C318.938 410.013 318.815 410.087 318.712 410.184C318.543 410.377 318.435 410.616 318.401 410.871C318.381 411.186 318.381 411.502 318.401 411.817V416.496C318.395 416.835 318.425 417.174 318.492 417.506C318.537 417.76 318.665 417.993 318.855 418.167C319.067 418.326 319.329 418.404 319.594 418.388C319.871 418.409 320.146 418.32 320.358 418.141C320.547 417.955 320.673 417.715 320.721 417.455C320.799 417.11 320.834 416.758 320.825 416.405V415.355H319.62V414.059H322.665V419.736H321.369L321.214 418.621C321.077 418.98 320.844 419.294 320.54 419.528C320.14 419.832 319.638 419.967 319.14 419.904Z" fill="#E5E5E5"/>
<path d="M324 419.761V408.564H325.426L328.147 414.953V408.564H329.832V419.761H328.536L325.801 413.074V419.761H324Z" fill="#E5E5E5"/>
<path d="M335.003 419.761V408.564H336.96V419.761H335.003Z" fill="#E5E5E5"/>
<path d="M338.749 419.761V408.564H340.161L342.883 414.953V408.564H344.568V419.761H343.272L340.537 413.074V419.761H338.749Z" fill="#E5E5E5"/>
<path d="M477.978 236.818C477.978 236.818 476.332 249.778 476.941 251.592C477.55 253.407 481.257 260.833 481.464 261.442C481.671 262.051 477.148 265.952 477.978 267.805C478.807 269.659 483.304 271.914 483.304 271.914C483.304 271.914 494.385 284.628 495.824 284.42C497.262 284.213 502.602 281.349 502.602 281.349L505.673 288.528L536.246 275.568L527.018 260.379C527.018 260.379 517.376 235.963 508.343 228.161C499.31 220.359 481.671 227.992 477.978 236.818Z" fill="white" stroke="#263238" stroke-linecap="round" stroke-linejoin="round"/>
<path d="M495.824 284.42L503.574 276.1L502.602 281.349L495.824 284.42Z" fill="#263238" stroke="#263238" stroke-linecap="round" stroke-linejoin="round"/>
<path d="M479.818 257.334C479.818 257.334 483.304 265.11 481.257 266.406C479.209 267.702 475.101 260.25 475.101 260.25L494.541 247.938" stroke="#263238" stroke-linecap="round" stroke-linejoin="round"/>
<path d="M486.181 271.084C487.101 270.589 487.8 269.767 488.141 268.78C488.482 267.793 488.439 266.715 488.022 265.758" stroke="#263238" stroke-linecap="round" stroke-linejoin="round"/>
<path d="M479.002 252.616C479.002 252.616 479.002 249.947 482.073 251.178" stroke="#263238" stroke-linecap="round" stroke-linejoin="round"/>
<path d="M482.073 258.565L484.536 262.881" stroke="#263238" stroke-linecap="round" stroke-linejoin="round"/>
<path d="M479.818 227.785C480.44 227.992 479.611 219.167 476.747 221.422C473.882 223.677 473.662 231.893 473.662 231.893C473.662 231.893 469.968 227.383 469.152 231.077C468.336 234.77 473.869 240.926 475.917 240.719C477.965 240.512 486.596 232.502 486.181 234.965C485.767 237.427 483.097 241.743 484.743 242.559C486.389 243.376 490.484 241.743 490.484 241.743C490.484 241.743 491.106 250.97 493.569 250.569C496.031 250.167 497.871 246.253 499.725 248.715C501.578 251.178 514.292 263.697 515.121 263.697C515.951 263.697 527.018 260.418 527.018 260.418C527.018 260.418 527.835 247.692 528.457 239.28C529.079 230.869 524.141 219.581 516.961 215.071C509.782 210.561 499.103 211.572 493.983 215.071C488.864 218.57 479.818 227.785 479.818 227.785Z" fill="#263238" stroke="#263238" stroke-linecap="round" stroke-linejoin="round"/>
<path d="M494.8 254.47C494.8 254.47 493.154 242.806 497.262 244.814C501.371 246.823 504.649 257.774 503.626 260.211C502.602 262.647 500.139 261.027 500.139 261.027" fill="white"/>
<path d="M494.8 254.47C494.8 254.47 493.154 242.806 497.262 244.814C501.371 246.823 504.649 257.774 503.626 260.211C502.602 262.647 500.139 261.027 500.139 261.027" stroke="#263238" stroke-linecap="round" stroke-linejoin="round"/>
<path d="M501.824 287.595L497.327 300.335C506.02 295.684 515.043 291.677 524.323 288.347C531.493 285.818 538.863 283.893 546.355 282.593L539.603 272.601C539.603 272.601 511.816 275.348 501.824 287.595Z" fill="#0EA960" stroke="#263238" stroke-linecap="round" stroke-linejoin="round"/>
<path d="M431.387 317.429L459.717 364.98C459.821 365.153 459.978 365.289 460.164 365.368C460.35 365.447 460.557 365.465 460.754 365.42L487.361 358.94C487.503 358.906 487.636 358.839 487.747 358.744C487.859 358.649 487.947 358.529 488.004 358.394C488.06 358.259 488.084 358.113 488.074 357.967C488.064 357.821 488.019 357.679 487.944 357.553L463.32 314.889C463.229 314.742 463.101 314.621 462.948 314.539C462.796 314.457 462.625 314.417 462.452 314.423L432.086 316.056C431.936 316.075 431.792 316.131 431.668 316.218C431.544 316.306 431.442 316.422 431.374 316.558C431.305 316.693 431.27 316.843 431.272 316.995C431.274 317.147 431.314 317.296 431.387 317.429Z" fill="#263238" stroke="#263238" stroke-linecap="round" stroke-linejoin="round"/>
<path d="M434.523 319.308L460.028 362.102L484.665 356.063L462.62 317.805L434.523 319.308Z" fill="#878787" stroke="#263238" stroke-linecap="round" stroke-linejoin="round"/>
<path d="M481.075 327.084C481.075 327.084 473.571 331.089 470.824 332.333C468.076 333.577 466.573 334.588 468.322 336.092C470.072 337.595 476.098 334.083 476.098 334.083L480.855 332.087L481.075 327.084Z" fill="white" stroke="#263238" stroke-linecap="round" stroke-linejoin="round"/>
<path d="M542.052 595.901L543.75 608.861C543.75 608.861 542.052 611.686 536.687 612.243C531.321 612.801 527.355 613.656 527.355 613.656L528.833 601.02L542.052 595.901Z" fill="white" stroke="#263238" stroke-linecap="round" stroke-linejoin="round"/>
<path d="M543.75 608.9L543.503 607.02C538.453 608.757 533.161 609.689 527.822 609.781L527.355 613.669C527.355 613.669 531.321 612.827 536.687 612.256C542.052 611.686 543.75 608.9 543.75 608.9Z" fill="white" stroke="#263238" stroke-linecap="round" stroke-linejoin="round"/>
<path d="M503.626 590.535L488.929 599.607C485.585 600.492 482.187 601.154 478.755 601.59C478.11 601.615 477.487 601.834 476.967 602.218C476.448 602.602 476.057 603.134 475.844 603.744C475.631 604.354 475.607 605.014 475.775 605.638C475.943 606.261 476.295 606.82 476.785 607.241C478.483 608.653 484.095 611.051 491.197 612.606C505.323 615.717 525.671 614.589 527.355 613.734C528.878 613.082 530.093 611.871 530.751 610.351C531.036 609.224 530.751 598.195 530.751 598.195C530.751 598.195 509.328 595.616 503.626 590.535Z" fill="white" stroke="#263238" stroke-linecap="round" stroke-linejoin="round"/>
<path d="M489.214 608.9C480.933 606.385 477.55 604.338 476.163 602.951C475.771 603.625 475.618 604.413 475.731 605.185C475.844 605.957 476.216 606.668 476.785 607.202C478.483 608.615 484.095 611.012 491.197 612.567C505.323 615.678 525.671 614.55 527.355 613.695C528.791 613.052 529.962 611.935 530.673 610.533C521.225 611.349 501.047 612.49 489.214 608.9Z" fill="white" stroke="#263238" stroke-linecap="round" stroke-linejoin="round"/>
<path d="M549.737 411.428C549.737 411.428 549.737 425.36 545.085 432.838C540.432 440.316 533.952 447.029 533.952 448.066C533.952 449.103 527.77 497.314 527.77 499.906C527.77 502.498 527.511 509.976 529.066 513.838C530.621 517.7 536.557 542.22 540.16 564.149C543.763 586.077 542.221 591.507 542.221 591.507C542.89 593.088 543.411 594.728 543.776 596.406C543.621 597.721 543.361 599.021 542.998 600.294C538.403 601.71 533.53 601.977 528.807 601.072C528.658 598.992 528.833 596.903 529.325 594.877C530.103 592.816 529.585 587.101 529.585 585.805C529.585 584.509 519.774 517.687 519.774 512.529C519.774 507.371 519.528 452.667 519.528 452.667L517.221 414.72C517.221 414.72 530.647 414.266 549.737 411.428Z" fill="#0EA960" stroke="#263238" stroke-linecap="round" stroke-linejoin="round"/>
<path d="M531.36 440.64C531.36 440.64 525.178 451.993 524.66 453.03C524.141 454.067 524.141 463.087 524.141 465.16C524.141 467.234 522.845 506.438 523.104 511.816C523.364 517.195 527.498 534.004 528.781 544.061C530.064 554.118 532.397 583.537 532.669 584.315C533.403 586.472 533.668 588.76 533.447 591.028C533.013 592.719 532.404 594.361 531.632 595.927C531.632 595.927 532.41 600.307 531.891 601.603C531.373 602.899 524.413 604.195 514.603 601.344C504.792 598.493 500.671 592.272 500.671 592.272C501.069 591.016 501.245 589.7 501.189 588.384C501.204 587.65 501.469 586.943 501.941 586.38C502.412 585.816 503.061 585.431 503.781 585.287L498.96 550.8C498.96 550.8 494.32 539.965 494.061 538.164C493.802 536.363 495.085 531.969 494.826 530.155C494.567 528.34 491.482 524.478 491.223 522.677C490.964 520.875 482.449 491.975 481.931 466.43C481.412 440.886 482.384 417.182 482.384 417.182C482.384 417.182 488.864 420.552 509.017 419.269C529.17 417.986 537.14 417.714 546.692 413.592" fill="#0EA960"/>
<path d="M531.36 440.64C531.36 440.64 525.178 451.993 524.66 453.03C524.141 454.067 524.141 463.087 524.141 465.16C524.141 467.234 522.845 506.438 523.104 511.816C523.364 517.195 527.498 534.004 528.781 544.061C530.064 554.118 532.397 583.537 532.669 584.315C533.403 586.472 533.668 588.76 533.447 591.028C533.013 592.719 532.404 594.361 531.632 595.927C531.632 595.927 532.41 600.307 531.891 601.603C531.373 602.899 524.413 604.195 514.603 601.344C504.792 598.493 500.671 592.272 500.671 592.272C501.069 591.016 501.245 589.7 501.189 588.384C501.204 587.65 501.469 586.943 501.941 586.38C502.412 585.816 503.061 585.431 503.781 585.287L498.96 550.8C498.96 550.8 494.32 539.965 494.061 538.164C493.802 536.363 495.085 531.969 494.826 530.155C494.567 528.34 491.482 524.478 491.223 522.677C490.964 520.875 482.449 491.975 481.931 466.43C481.412 440.886 482.384 417.182 482.384 417.182C482.384 417.182 488.864 420.552 509.017 419.269C529.17 417.986 537.14 417.714 546.692 413.592" stroke="#263238" stroke-linecap="round" stroke-linejoin="round"/>
<path d="M510.17 569.385L511.816 586.57C511.151 587.028 510.653 587.692 510.398 588.459C510.143 589.226 510.145 590.055 510.404 590.82C511.259 593.646 511.816 595.331 511.816 595.331" stroke="#263238" stroke-linecap="round" stroke-linejoin="round"/>
<path d="M495.357 483.201C495.552 484.497 495.772 485.663 495.992 486.829C500.515 510.002 505.609 527.524 505.894 528.366C506.179 529.209 502.498 532.319 503.911 534.017C504.774 535.07 505.83 535.949 507.021 536.609L509.613 563.643" stroke="#263238" stroke-linecap="round" stroke-linejoin="round"/>
<path d="M493.776 424.103C493.776 424.103 492.13 452.861 494.45 475.697" stroke="#263238" stroke-linecap="round" stroke-linejoin="round"/>
<path d="M487.296 423.546C487.296 423.546 486.441 433.706 492.091 438.8" stroke="#263238" stroke-linecap="round" stroke-linejoin="round"/>
<path d="M530.466 424.958C523.986 427.784 509.846 428.056 509.846 428.056L511.544 432.294C511.544 432.294 521.433 431.736 525.386 430.324" stroke="#263238" stroke-linecap="round" stroke-linejoin="round"/>
<path d="M482.332 417.079C482.332 417.079 485.831 423.559 513.073 422.081C540.315 420.604 550.813 416.081 551.072 413.826C551.112 411.315 550.943 408.805 550.567 406.322C550.567 406.322 499.077 410.08 482.332 417.079Z" fill="#C2C2C2" stroke="#263238" stroke-linecap="round" stroke-linejoin="round"/>
<path d="M497.327 300.335C497.327 300.335 482.073 307.346 481.775 309.588C481.477 311.831 473.52 372.328 473.52 372.328L461.532 358.331C461.532 358.331 461.778 353.328 461.026 351.333C460.274 349.337 460.028 347.833 458.279 347.082C456.529 346.33 450.775 344.84 449.284 343.583C447.794 342.325 443.53 338.334 442.532 339.837C441.534 341.34 439.525 343.842 440.031 345.591C440.536 347.341 442.532 350.775 442.532 351.838C442.532 352.901 442.532 360.34 445.785 363.839C448.032 366.094 450.768 367.801 453.781 368.829C453.781 368.829 461.557 389.331 464.279 393.336C467.001 397.341 478.535 406.581 478.535 406.581C478.535 406.581 475.788 413.061 476.539 413.58C477.291 414.098 480.79 419.321 481.723 419.321C482.656 419.321 512.724 414.331 514.966 414.072C517.208 413.813 539.719 414.072 541.469 413.333C544.477 412.114 547.4 410.694 550.217 409.082C551.283 408.362 552.081 407.309 552.487 406.088C552.892 404.867 552.883 403.545 552.459 402.33C551.461 398.326 550.463 370.086 550.463 367.584C550.463 365.083 555.466 345.332 557.708 337.582C560.549 326.293 562.802 314.864 564.46 303.342C564.706 299.596 561.712 290.848 560.714 290.382C559.717 289.915 546.212 282.606 546.212 282.606C546.212 282.606 524.076 284.342 497.327 300.335Z" fill="#C2C2C2" stroke="#263238" stroke-linecap="round" stroke-linejoin="round"/>
<path d="M478.574 406.581C478.574 406.581 487.322 405.078 488.825 403.834C490.329 402.589 503.574 363.839 504.144 361.584C504.714 359.329 505.44 332.087 505.44 332.087" stroke="#263238" stroke-linecap="round" stroke-linejoin="round"/>
<path d="M505.077 349.091L509.328 333.837" stroke="#263238" stroke-linecap="round" stroke-linejoin="round"/>
<path d="M472.573 387.336C471.822 383.085 473.571 372.328 473.571 372.328C473.571 372.328 475.321 382.825 478.574 387.076" stroke="#263238" stroke-linecap="round" stroke-linejoin="round"/>
<path d="M461.583 358.331C461.583 358.331 461.83 353.328 461.078 351.333C460.326 349.337 460.08 347.833 458.33 347.082C456.581 346.33 450.826 344.84 449.336 343.583C447.846 342.325 443.582 338.334 442.584 339.837C441.586 341.34 439.577 343.842 440.083 345.591C440.588 347.341 442.584 350.775 442.584 351.838C442.584 352.901 442.584 360.34 445.837 363.839C448.084 366.094 450.82 367.801 453.833 368.829C453.833 368.829 454.261 369.982 454.961 371.771C456.477 368.09 459.574 363.567 465.614 363.036L461.583 358.331Z" fill="white" stroke="#263238" stroke-linecap="round" stroke-linejoin="round"/>
<path d="M457.579 376.579C458.311 374.531 459.503 372.678 461.062 371.162C462.621 369.646 464.506 368.506 466.573 367.831" stroke="#263238" stroke-linecap="round" stroke-linejoin="round"/>
<path d="M515.069 414.072L540.315 406.581" stroke="#263238" stroke-linecap="round" stroke-linejoin="round"/>
<path d="M545.059 347.756C545.059 347.756 529.079 365.031 516.132 374.544" stroke="#263238" stroke-linecap="round" stroke-linejoin="round"/>
<path d="M536.855 360.716C536.855 360.716 524.763 372.807 519.579 376.695" stroke="#263238" stroke-linecap="round" stroke-linejoin="round"/>
</svg>
