<svg width="200" height="133" viewBox="0 0 200 133" fill="none" xmlns="http://www.w3.org/2000/svg">
<path d="M179.661 90.3817H131.461C130.6 90.3817 129.899 89.6821 129.899 88.823V18.7931C129.899 17.934 130.6 17.2344 131.461 17.2344H179.661C180.523 17.2344 181.224 17.934 181.224 18.7931V88.823C181.224 89.6821 180.523 90.3817 179.661 90.3817ZM131.464 17.3009C130.64 17.3009 129.968 17.9712 129.968 18.7931V88.823C129.968 89.6449 130.64 90.3152 131.464 90.3152H179.664C180.488 90.3152 181.16 89.6449 181.16 88.823V18.7931C181.16 17.9712 180.488 17.3009 179.664 17.3009H131.464Z" fill="#E0E0E0"/>
<path d="M124.083 90.3817H75.8826C75.0213 90.3817 74.3199 89.6821 74.3199 88.823V18.7931C74.3199 17.934 75.0213 17.2344 75.8826 17.2344H124.083C124.944 17.2344 125.645 17.934 125.645 18.7931V88.823C125.645 89.6821 124.944 90.3817 124.083 90.3817ZM75.8826 17.3009C75.0586 17.3009 74.3866 17.9712 74.3866 18.7931V88.823C74.3866 89.6449 75.0586 90.3152 75.8826 90.3152H124.083C124.907 90.3152 125.579 89.6449 125.579 88.823V18.7931C125.579 17.9712 124.907 17.3009 124.083 17.3009H75.8826Z" fill="#E0E0E0"/>
<path d="M68.536 90.3817H20.3387C19.4773 90.3817 18.776 89.6821 18.776 88.823V18.7931C18.776 17.934 19.4773 17.2344 20.3387 17.2344H68.5387C69.4 17.2344 70.1013 17.934 70.1013 18.7931V88.823C70.1013 89.6821 69.4 90.3817 68.5387 90.3817H68.536ZM20.3387 17.3009C19.5147 17.3009 18.8427 17.9712 18.8427 18.7931V88.823C18.8427 89.6449 19.5147 90.3152 20.3387 90.3152H68.5387C69.3627 90.3152 70.0347 89.6449 70.0347 88.823V18.7931C70.0347 17.9712 69.3627 17.3009 68.5387 17.3009H20.3387Z" fill="#E0E0E0"/>
<path d="M200 106.626H0V106.658H200V106.626Z" fill="#E0E0E0"/>
<path d="M189.163 114.441H174.301V114.553H189.163V114.441Z" fill="#EBEBEB"/>
<path d="M135.912 115.654H132.011V115.766H135.912V115.654Z" fill="#EBEBEB"/>
<path d="M30.2159 111.036H10.8373V111.148H30.2159V111.036Z" fill="#EBEBEB"/>
<path d="M37.0559 111.036H34.2133V111.148H37.0559V111.036Z" fill="#EBEBEB"/>
<path d="M88.32 112.928H46.2906V113.039H88.32V112.928Z" fill="#EBEBEB"/>
<path d="M107.291 19.9183C106.384 20.1497 105.627 20.6578 105.075 21.3281V21.3228C104.083 22.1075 103.517 22.025 103.275 21.9133L101.16 13.6939C101 13.0715 100.363 12.6937 99.7387 12.856L76.8374 18.7213C76.2134 18.8809 75.8347 19.5166 75.9973 20.1391L78.1253 28.409C77.5547 29.0687 76.256 28.6218 76.256 28.6218C75.48 28.3425 74.6187 28.2867 73.76 28.5048C71.4854 29.0873 70.1147 31.3989 70.6987 33.6678C71.2827 35.9368 73.6 37.3041 75.8747 36.7215C76.7813 36.4901 77.5387 35.982 78.0907 35.3117V35.317C78.912 34.668 79.44 34.6148 79.736 34.676L81.872 42.9805C82.032 43.6029 82.6694 43.9807 83.2934 43.8184L106.195 37.9531C106.819 37.7935 107.197 37.1578 107.035 36.5353L104.936 28.3771C105.432 27.5099 106.909 28.018 106.909 28.018C107.685 28.2973 108.547 28.3532 109.405 28.135C111.68 27.5525 113.051 25.241 112.467 22.972C111.883 20.703 109.565 19.3358 107.291 19.9183Z" fill="#EBEBEB"/>
<path d="M78.0933 18.397C77.9573 18.4315 78.5653 21.9693 83.2693 22.6609C87.9733 23.3525 99.232 30.5691 97.7653 40.1132C97.7653 40.1132 101.021 39.278 100.877 39.3152C100.733 39.3524 100.747 26.877 88.3573 23.2754C75.968 19.6738 86.2266 16.3115 86.2266 16.3115L78.0933 18.3943V18.397Z" fill="#F0F0F0"/>
<path d="M131.115 75.6393C131.784 76.4453 132.664 76.9693 133.608 77.2087H133.605C134.875 77.8391 135.061 78.4509 135.067 78.7488L127.723 84.8216C127.165 85.2818 127.088 86.1064 127.549 86.6623L144.467 107.019C144.928 107.575 145.755 107.652 146.312 107.192L153.701 101.082C154.645 101.346 154.811 102.87 154.811 102.87C154.899 103.785 155.253 104.686 155.885 105.45C157.565 107.472 160.571 107.753 162.597 106.075C164.624 104.399 164.907 101.401 163.224 99.3798C162.555 98.5738 161.675 98.0498 160.731 97.8104H160.733C159.683 97.289 159.373 96.781 159.296 96.4511L166.715 90.3172C167.272 89.857 167.349 89.0324 166.888 88.4764L152.44 71.0907L149.971 68.1168C149.509 67.5609 148.683 67.4837 148.125 67.9439L140.837 73.9715C139.717 73.8837 139.528 72.1494 139.528 72.1494C139.44 71.2343 139.085 70.3326 138.453 69.5692C136.773 67.5476 133.768 67.2656 131.741 68.9441C129.715 70.6199 129.432 73.6177 131.115 75.6393Z" fill="#EBEBEB"/>
<path d="M151.552 70.0193C151.552 70.0193 148.355 73.7938 147.781 76.9459C147.208 80.098 147.781 93.2783 144.661 95.8159C141.541 98.3536 137.704 98.8829 137.704 98.8829L140.392 101.506C140.392 101.506 146.384 98.5185 148.6 94.7519C150.816 90.9854 147.288 79.8533 149.667 77.8051C152.048 75.7595 155.896 75.2462 155.896 75.2462L151.549 70.0166L151.552 70.0193Z" fill="#F5F5F5"/>
<path d="M39.128 103.921C39.7413 103.801 40.2666 103.49 40.6613 103.064C41.3973 102.548 41.776 102.67 41.9146 102.758L43.0106 108.304C43.0933 108.727 43.504 109.001 43.928 108.919L59.44 105.865C59.864 105.783 60.1386 105.373 60.056 104.95L58.96 99.4119C58.832 99.3241 58.4533 99.1805 57.696 99.7151C57.3013 100.138 56.776 100.449 56.1626 100.569C54.6213 100.872 53.1253 99.8721 52.8213 98.3346C52.5173 96.7971 53.52 95.3049 55.0613 95.0016C55.6426 94.8872 56.216 94.9591 56.7226 95.1745C56.7226 95.1745 57.7386 95.5868 58.08 94.9591L56.9946 89.4741C56.912 89.0512 56.5013 88.7772 56.0773 88.8597L49.3813 90.1764C48.7466 89.8386 49.1653 88.8198 49.1653 88.8198C49.3813 88.3144 49.4533 87.7425 49.3386 87.1626C49.0346 85.6251 47.5386 84.625 45.9973 84.9282C44.456 85.2314 43.4533 86.7237 43.7573 88.2612C43.8773 88.873 44.1893 89.3997 44.6133 89.7907C45.1546 90.5568 45 90.9345 44.9146 91.0569L40.5653 91.9134C40.1413 91.9958 39.8666 92.4055 39.9493 92.8284L41.0373 98.324C40.6906 98.9331 39.688 98.5261 39.688 98.5261C39.1813 98.3107 38.608 98.2388 38.0266 98.3532C36.4853 98.6565 35.4826 100.149 35.7866 101.686C36.0906 103.224 37.5866 104.224 39.128 103.921Z" fill="#F0F0F0"/>
<path d="M50.7227 89.9153C50.7227 89.9153 51.1573 93.4212 49.1813 95.9774C47.2053 98.5337 43.4053 106.439 44.664 108.772L46.3093 108.448C46.3093 108.448 44.536 106.418 46.992 101.516C49.448 96.6132 53.0053 94.3522 52.5093 89.5615L50.7227 89.9126V89.9153Z" fill="#F5F5F5"/>
<path d="M172.384 37.1148C172.016 36.8435 171.584 36.7105 171.157 36.7078C170.509 36.5642 170.389 36.2982 170.368 36.1811L172.845 32.8428C173.035 32.5875 172.981 32.231 172.725 32.0422L163.389 25.1501C163.133 24.9613 162.776 25.0145 162.587 25.2698L160.115 28.6028C160.131 28.7145 160.24 28.9912 160.904 29.1375C161.331 29.1428 161.76 29.2731 162.131 29.5471C163.059 30.2307 163.253 31.5368 162.568 32.4625C161.883 33.3881 160.573 33.5823 159.645 32.8987C159.296 32.6407 159.051 32.2949 158.917 31.9145C158.917 31.9145 158.64 31.1591 158.131 31.2867L155.683 34.5878C155.493 34.8432 155.547 35.1996 155.803 35.3885L159.832 38.3623C159.963 38.8731 159.2 39.1497 159.2 39.1497C158.819 39.2827 158.472 39.5274 158.213 39.8759C157.528 40.8016 157.723 42.105 158.651 42.7912C159.579 43.4749 160.885 43.2807 161.573 42.355C161.845 41.9879 161.979 41.5597 161.984 41.1341C162.133 40.4611 162.416 40.36 162.525 40.344L165.144 42.2752C165.4 42.4641 165.757 42.4109 165.947 42.1555L168.4 38.8465C168.904 38.7321 169.179 39.4769 169.179 39.4769C169.312 39.8573 169.557 40.2031 169.907 40.4611C170.835 41.1447 172.141 40.9505 172.829 40.0248C173.515 39.0992 173.32 37.7958 172.392 37.1095L172.384 37.1148Z" fill="#F0F0F0"/>
<path d="M157.936 36.9607C157.936 36.9607 164.861 37.772 165.739 35.0349C166.616 32.2978 163.067 31.396 166.379 27.3555L167.315 28.0471C167.315 28.0471 165.408 27.6959 165.739 30.4358C166.069 33.1729 167.88 34.5348 166.288 36.3729C164.696 38.2109 159.829 38.3599 159.829 38.3599L157.936 36.9634V36.9607Z" fill="#F5F5F5"/>
<path d="M42.16 52.3088C41.6 51.6331 40.8613 51.1916 40.0693 50.9894H40.072C38.9333 50.4255 38.832 49.8775 38.848 49.6488L44.992 44.5762C45.4587 44.1905 45.5253 43.4989 45.1387 43.0307L30.9493 25.9296C30.5627 25.4641 29.8693 25.3976 29.4 25.7833L23.264 30.8479C23.2427 31.0634 23.3173 31.6273 24.488 32.2045H24.4853C25.2773 32.4093 26.016 32.8482 26.576 33.5265C27.9867 35.2263 27.7467 37.7426 26.0453 39.1471C24.344 40.5516 21.8187 40.3148 20.4107 38.6177C19.88 37.9767 19.5813 37.2213 19.5093 36.4499C19.5093 36.4499 19.3413 34.9177 18.3333 34.9177L12.256 39.9345C11.7893 40.3202 11.7227 41.0118 12.1093 41.4799L18.2347 48.8614C18.2427 49.8722 16.696 50.0371 16.696 50.0371C15.9253 50.109 15.1653 50.4069 14.5227 50.9362C12.8187 52.3434 12.5813 54.8597 13.992 56.5568C15.4027 58.2565 17.9253 58.4933 19.6267 57.0861C20.304 56.5275 20.7493 55.7907 20.952 55.0034C21.5387 53.8223 22.1093 53.7585 22.32 53.7851L26.2987 58.5784C26.6853 59.0439 27.3787 59.1104 27.848 58.7247L33.936 53.6973C34.9253 53.7159 35.0907 55.2295 35.0907 55.2295C35.1626 55.9982 35.4613 56.7563 35.992 57.3974C37.4027 59.0971 39.9253 59.3338 41.6267 57.9267C43.3307 56.5196 43.568 54.0032 42.1573 52.3061L42.16 52.3088Z" fill="#E6E6E6"/>
<path d="M26.3573 28.294C26.3573 28.294 33.5839 32.3106 33.5786 36.0532C33.5759 39.7958 22.7999 51.0104 27.8479 58.727L30.1466 56.873C30.1466 56.873 26.7279 56.349 28.1066 51.2471C29.4853 46.1452 35.4639 37.189 35.0533 33.7842C34.6426 30.3821 29.3973 25.7803 29.3973 25.7803L26.3546 28.2913L26.3573 28.294Z" fill="#EBEBEB"/>
<path d="M51.3893 24.5566L51.8506 26.5543L53.8533 27.0145L51.8506 27.4747L51.3893 29.4723L50.928 27.4747L48.9253 27.0145L50.928 26.5543L51.3893 24.5566Z" fill="#E6E6E6"/>
<path d="M180.347 22.0986L180.811 24.0963L182.811 24.5565L180.811 25.0167L180.347 27.0143L179.885 25.0167L177.883 24.5565L179.885 24.0963L180.347 22.0986Z" fill="#E6E6E6"/>
<path d="M32.0986 107.517L32.56 109.514L34.5626 109.974L32.56 110.435L32.0986 112.432L31.6373 110.435L29.6346 109.974L31.6373 109.514L32.0986 107.517Z" fill="#E6E6E6"/>
<path d="M11.52 59.4268L11.9814 61.4244L13.984 61.8846L11.9814 62.3474L11.52 64.3451L11.0587 62.3474L9.05603 61.8846L11.0587 61.4244L11.52 59.4268Z" fill="#E6E6E6"/>
<path d="M125.488 107.978L125.949 109.975L127.952 110.435L125.949 110.896L125.488 112.893L125.024 110.896L123.021 110.435L125.024 109.975L125.488 107.978Z" fill="#E6E6E6"/>
<path d="M123.443 19.1621L123.995 21.5481L126.387 22.0987L123.995 22.6494L123.443 25.0354L122.891 22.6494L120.499 22.0987L122.891 21.5481L123.443 19.1621Z" fill="#E6E6E6"/>
<path d="M186.189 47.2041L186.464 48.3905L187.653 48.6644L186.464 48.9384L186.189 50.1248L185.915 48.9384L184.728 48.6644L185.915 48.3905L186.189 47.2041Z" fill="#E6E6E6"/>
<path d="M110.624 91.2725L110.899 92.4562L112.088 92.7301L110.899 93.0041L110.624 94.1905L110.349 93.0041L109.16 92.7301L110.349 92.4562L110.624 91.2725Z" fill="#E6E6E6"/>
<path d="M74.9947 99.7734L75.2693 100.957L76.4587 101.231L75.2693 101.505L74.9947 102.691L74.7227 101.505L73.5333 101.231L74.7227 100.957L74.9947 99.7734Z" fill="#E6E6E6"/>
<path d="M11.232 92.7305L11.5066 93.9168L12.696 94.1908L11.5066 94.4648L11.232 95.6511L10.9573 94.4648L9.77063 94.1908L10.9573 93.9168L11.232 92.7305Z" fill="#E6E6E6"/>
<path d="M167.915 108.978L168.189 110.161L169.379 110.435L168.189 110.709L167.915 111.896L167.64 110.709L166.451 110.435L167.64 110.161L167.915 108.978Z" fill="#E6E6E6"/>
<path d="M70.8693 40.7959L71.144 41.9823L72.3333 42.2562L71.144 42.5302L70.8693 43.7139L70.5973 42.5302L69.408 42.2562L70.5973 41.9823L70.8693 40.7959Z" fill="#E6E6E6"/>
<path d="M70.5973 11.084L70.8693 12.2703L72.0586 12.5443L70.8693 12.8156L70.5973 14.002L70.3226 12.8156L69.1333 12.5443L70.3226 12.2703L70.5973 11.084Z" fill="#E6E6E6"/>
<path d="M19.152 23.7988L19.4267 24.9852L20.616 25.2592L19.4267 25.5331L19.152 26.7168L18.8773 25.5331L17.688 25.2592L18.8773 24.9852L19.152 23.7988Z" fill="#E6E6E6"/>
<path d="M145.291 42.6875L145.565 43.8712L146.755 44.1452L145.565 44.4192L145.291 45.6055L145.016 44.4192L143.829 44.1452L145.016 43.8712L145.291 42.6875Z" fill="#E6E6E6"/>
<path d="M106.499 104.301C106.155 104.046 105.755 103.926 105.355 103.921C104.752 103.785 104.637 103.538 104.619 103.428L106.928 100.314C107.104 100.077 107.053 99.7417 106.816 99.5661L98.1066 93.1369C97.8693 92.9614 97.5333 93.0119 97.3573 93.2486L95.0506 96.3582C95.0666 96.4619 95.168 96.7199 95.7866 96.8583C96.184 96.8636 96.584 96.9859 96.9306 97.2386C97.7946 97.877 97.9786 99.0953 97.3386 99.9572C96.6986 100.819 95.4773 101.003 94.6133 100.364C94.288 100.122 94.0586 99.8002 93.9333 99.4438C93.9333 99.4438 93.6746 98.7389 93.1973 98.8586L90.912 101.939C90.736 102.176 90.7866 102.511 91.024 102.686L94.784 105.461C94.9066 105.937 94.1946 106.198 94.1946 106.198C93.8373 106.323 93.5146 106.551 93.272 106.876C92.632 107.738 92.8133 108.956 93.68 109.594C94.544 110.233 95.7653 110.052 96.4053 109.187C96.6586 108.844 96.784 108.445 96.7866 108.049C96.9253 107.421 97.1893 107.325 97.2906 107.312L99.7333 109.116C99.9706 109.291 100.307 109.241 100.483 109.004L102.771 105.918C103.24 105.812 103.496 106.506 103.496 106.506C103.621 106.86 103.851 107.184 104.176 107.424C105.04 108.062 106.261 107.881 106.901 107.017C107.541 106.155 107.36 104.937 106.493 104.298L106.499 104.301Z" fill="#E6E6E6"/>
<path d="M91.8294 103.277C91.8294 103.277 91.9734 101.705 95.6027 102.372C99.232 103.04 102.648 102.303 102.896 100.79C103.141 99.2789 101.347 95.5283 101.347 95.5283L104.365 97.7574C104.365 97.7574 105.68 100.545 103.707 101.915C101.733 103.285 96.52 102.567 94.8987 103.277C93.2774 103.987 93.8027 104.732 93.8027 104.732L91.6587 103.354" fill="#EBEBEB"/>
<path d="M195.691 117.641C195.691 118.543 152.701 119.272 99.6693 119.272C46.6373 119.272 3.64795 118.54 3.64795 117.641C3.64795 116.742 46.6373 116.011 99.6693 116.011C152.701 116.011 195.691 116.742 195.691 117.641Z" fill="#F5F5F5"/>
<path d="M176.741 50.9597H143.669C142.768 50.9597 142.035 51.6885 142.035 52.5903V64.3953C142.261 64.6241 142.979 65.0736 144.752 64.2836V64.2889C145.733 63.5761 146.939 63.1505 148.248 63.1505C151.533 63.1505 154.195 65.8078 154.195 69.0823C154.195 72.3567 151.531 75.0141 148.248 75.0141C147.008 75.0141 145.859 74.6363 144.907 73.99C144.907 73.99 142.989 72.7318 142.035 73.8836V85.5769C142.035 86.476 142.765 87.2075 143.669 87.2075H176.741C177.643 87.2075 178.376 86.4787 178.376 85.5769V52.5876C178.376 51.6885 177.645 50.957 176.741 50.957V50.9597Z" fill="#28B876"/>
<path opacity="0.4" d="M176.741 50.9597H143.669C142.768 50.9597 142.035 51.6885 142.035 52.5903V64.3953C142.261 64.6241 142.979 65.0736 144.752 64.2836V64.2889C145.733 63.5761 146.939 63.1505 148.248 63.1505C151.533 63.1505 154.195 65.8078 154.195 69.0823C154.195 72.3567 151.531 75.0141 148.248 75.0141C147.008 75.0141 145.859 74.6363 144.907 73.99C144.907 73.99 142.989 72.7318 142.035 73.8836V85.5769C142.035 86.476 142.765 87.2075 143.669 87.2075H176.741C177.643 87.2075 178.376 86.4787 178.376 85.5769V52.5876C178.376 51.6885 177.645 50.957 176.741 50.957V50.9597Z" fill="white"/>
<path opacity="0.4" d="M165.728 87.21L165.24 81.4618C165.04 79.4615 164.688 78.1607 166.043 78.2591C167.397 78.3575 168.552 79.8605 169.053 81.7624L169.661 87.21" fill="black"/>
<path opacity="0.4" d="M171.635 87.2101C171.568 85.5716 171.864 76.8069 171.864 76.8069C171.864 74.655 170.709 68.4518 170.96 65.4487C171.211 62.4456 172.013 60.8948 173.168 60.9959C174.323 61.0969 174.824 63.4963 174.824 63.4963C174.824 63.4963 175.525 63.2968 176.128 64.547C176.731 65.7972 178.035 68.8987 178.035 68.8987C178.035 68.8987 180.109 78.2194 179.869 87.2075H171.637L171.635 87.2101Z" fill="black"/>
<path d="M177.149 117.64C177.149 117.64 176.277 104.425 174.595 103.431C174.301 103.258 169.155 98.7702 167.701 93.9663C166.248 89.1623 166.848 83.4593 166.648 81.4563C166.448 79.4533 166.096 78.1552 167.451 78.2537C168.805 78.3521 169.96 79.855 170.461 81.7569C170.963 83.6588 170.611 87.8616 171.264 88.6622C171.917 89.4629 172.368 88.9628 172.368 88.8112C172.368 88.6596 173.272 78.9532 173.272 76.804C173.272 74.6547 172.117 68.4489 172.368 65.4458C172.619 62.4426 173.421 60.8918 174.576 60.9929C175.731 61.094 176.232 63.4933 176.232 63.4933C176.232 63.4933 176.933 63.2938 177.536 64.544C178.139 65.7942 179.443 68.8958 179.443 68.8958C179.443 68.8958 179.592 66.4938 180.645 66.3954C181.699 66.2943 182.251 67.4966 182.651 68.9463C183.051 70.396 183.704 72.649 184.056 74.3993C184.408 76.1496 184.757 79.0038 184.757 79.0038C184.757 79.0038 185.109 74.2504 185.459 73.4497C185.811 72.649 187.064 71.9495 187.416 72.649C187.768 73.3486 187.064 81.3047 187.064 82.8049C187.064 84.3052 185.459 95.9134 186.061 98.5149C186.664 101.116 192.429 117.635 192.429 117.635H177.152L177.149 117.64Z" fill="#B97964"/>
<path d="M178.245 81.789C178.427 79.2274 178.605 76.6446 178.267 74.0883C177.968 71.8459 177.336 69.6594 176.925 67.4383C176.672 66.0737 176.501 64.6985 176.443 63.3126C176.432 63.0573 176.032 63.0546 176.043 63.3126C176.141 65.6242 176.579 67.8825 177.08 70.1382C177.328 71.2554 177.584 72.3752 177.776 73.5031C177.995 74.7825 178.064 76.0833 178.059 77.3787C178.053 78.8497 177.949 80.3207 177.845 81.789C177.827 82.0444 178.227 82.0444 178.245 81.789Z" fill="#A24E3F"/>
<path d="M179.331 68.8054C180.085 70.412 180.835 72.0719 181.317 73.7823C181.547 74.5962 181.557 75.4261 181.576 76.2667C181.6 77.4105 181.595 78.557 181.587 79.7008C181.581 80.3977 181.573 81.0919 181.56 81.7889C181.555 82.0469 181.955 82.0469 181.96 81.7889C181.995 80.0439 182.011 78.2963 181.984 76.5487C181.971 75.6948 181.989 74.809 181.787 73.9764C181.52 72.8832 181.077 71.8245 180.645 70.7871C180.339 70.0529 180.019 69.3241 179.68 68.6032C179.571 68.3718 179.227 68.574 179.333 68.8054H179.331Z" fill="#A24E3F"/>
<path d="M184.587 78.3282C184.44 79.9854 184.568 81.6612 184.571 83.3211C184.571 83.5791 184.971 83.5791 184.971 83.3211C184.971 81.6612 184.84 79.9854 184.987 78.3282C185.011 78.0729 184.608 78.0729 184.587 78.3282Z" fill="#A24E3F"/>
<path opacity="0.2" d="M148.688 50.9414C148.688 50.9414 148.808 58.7964 155.829 61.5734C162.848 64.3505 161.76 69.1784 159.944 73.163C158.128 77.1477 146.752 87.1999 147.237 87.1999H154.261C154.261 87.1999 153.531 83.968 158.853 77.4802C164.179 70.9925 165.909 65.6805 162.987 62.6614C160.064 59.6423 151.592 58.4346 154.496 50.9494H147.96" fill="white"/>
<path opacity="0.4" d="M142.035 76.512C142.035 76.512 147.309 78.9699 149.099 74.9586C149.099 74.9586 147.251 75.5677 145.856 74.1765C144.461 72.7854 141.955 72.9343 142.037 72.9343C142.12 72.9343 142.037 76.5147 142.037 76.5147L142.035 76.512Z" fill="black"/>
<path d="M144.68 63.1244C143.373 63.1244 142.168 63.55 141.184 64.2629V64.2575C139.461 65.0236 138.733 64.622 138.485 64.3879V52.5642C138.485 51.6651 137.755 50.9336 136.851 50.9336H103.779C102.877 50.9336 102.144 51.6624 102.144 52.5642V64.3693C102.371 64.598 103.088 65.0476 104.861 64.2575V64.2629C105.843 63.55 107.048 63.1244 108.357 63.1244C111.643 63.1244 114.304 65.7817 114.304 69.0562C114.304 72.3306 111.64 74.988 108.357 74.988C107.117 74.988 105.968 74.6103 105.016 73.9639C105.016 73.9639 103.099 72.7057 102.144 73.8575V85.5508C102.144 86.4499 102.875 87.1814 103.779 87.1814H118.056C119.224 88.131 117.947 90.0542 117.947 90.0542C117.299 91.0038 116.92 92.1503 116.92 93.3872C116.92 96.6643 119.584 99.319 122.867 99.319C126.149 99.319 128.813 96.6616 128.813 93.3872C128.813 92.0838 128.392 90.8788 127.677 89.8999C126.877 88.1098 127.347 87.3995 127.576 87.1814H136.848C137.749 87.1814 138.483 86.4526 138.483 85.5508V73.8335C139.443 72.7217 141.336 73.9665 141.336 73.9665C142.288 74.6129 143.437 74.9906 144.677 74.9906C147.963 74.9906 150.624 72.3333 150.624 69.0588C150.624 65.7844 147.96 63.127 144.677 63.127L144.68 63.1244Z" fill="#28B876"/>
<path opacity="0.2" d="M108.523 87.1125C108.523 87.1125 109.693 80.9307 119.701 75.1585C129.707 69.3863 118.813 50.9365 118.813 50.9365H121.832C121.832 50.9365 128.987 58.326 128.645 69.0272C128.272 80.7338 117.315 74.8792 113.984 80.7338C110.653 86.5885 113.208 87.1178 113.208 87.1178L108.525 87.1099L108.523 87.1125Z" fill="white"/>
<path opacity="0.2" d="M130.099 87.1198C130.099 87.1198 130.099 83.7682 133.992 80.4964C137.885 77.2246 138.485 76.9453 138.485 76.9453V79.5761C138.485 79.5761 134.299 81.1455 133.581 83.2735C132.864 85.4015 134.291 87.1172 134.291 87.1172H130.096L130.099 87.1198Z" fill="white"/>
<path opacity="0.4" d="M106.192 58.8895C106.192 58.8895 107.643 60.1025 108.837 58.7698C108.837 58.7698 111.984 61.0734 113.888 60.1184C113.888 60.1184 117.672 61.2277 119.165 59.8046L119.725 58.7698C119.725 58.7698 122.131 59.0943 122.669 56.8759C122.971 55.6363 121.496 53.5083 120.605 52.6305C120.605 52.6305 121.205 51.25 121.123 51.25C120.936 51.25 105.723 51.4309 105.723 51.4309L106.189 58.8922L106.192 58.8895Z" fill="black"/>
<path d="M128.355 38.676C127.963 38.8728 113.312 36.7927 110.56 38.1652C107.808 39.5378 103.131 47.0683 103.035 49.4197C102.936 51.7711 105.256 58.3546 105.355 58.7457C105.453 59.1367 107.389 59.1872 107.909 56.5884C108.008 56.099 108.107 54.7264 108.107 54.7264C108.107 54.7264 111.547 61.2939 114.787 58.352C114.787 58.352 116.355 60.1608 117.584 59.1101C118.813 58.0594 118.52 57.5673 118.52 57.5673C118.52 57.5673 120.877 58.2536 120.976 56.2931C121.075 54.3327 119.403 52.8617 119.403 52.8617L121.171 50.215C121.171 50.215 130.456 51.8483 132.96 50.1166C134.803 48.8425 134.827 48.1562 134.827 48.1562L154.277 11.4189H137.973L128.352 38.6706L128.355 38.676Z" fill="#FD8173"/>
<path d="M118.469 57.3203C117.744 56.8601 117.011 56.392 116.403 55.7828C115.795 55.1737 114.864 53.7399 114.765 52.8887C114.589 51.3699 116.408 49.0504 117.112 47.9385" stroke="#FD504E" stroke-linecap="round" stroke-linejoin="round"/>
<path d="M115.227 58.7694C114.232 57.9661 113.701 57.3703 112.789 56.2903C112.224 55.6226 111.589 54.7448 111.08 53.9016C110.459 52.8722 110.091 51.6885 110.565 50.5846C111.04 49.4807 113.499 45.1582 113.499 45.1582" stroke="#FD504E" stroke-linecap="round" stroke-linejoin="round"/>
<path d="M109.541 56.8761C108.456 55.594 107.349 53.2931 106.781 51.5295C106.384 50.2899 108.819 45.7094 109.92 43.874" stroke="#FD504E" stroke-linecap="round" stroke-linejoin="round"/>
<path d="M121.125 50.4037C121.776 49.9648 122.312 49.361 122.672 48.6641" stroke="#FD504E" stroke-linecap="round" stroke-linejoin="round"/>
<path d="M60.3947 64.2652V52.5719C60.3947 51.6728 59.664 50.9413 58.76 50.9413H46.0507C45.2534 49.9464 46.3627 48.2706 46.3627 48.2706C47.0107 47.321 47.3894 46.1746 47.3894 44.9377C47.3894 41.6605 44.7254 39.0059 41.4427 39.0059C38.16 39.0059 35.496 41.6632 35.496 44.9377C35.496 46.2411 35.9174 47.446 36.632 48.4249C37.2667 49.8427 37.1014 50.5848 36.8934 50.9413H25.6907C24.7894 50.9413 24.056 51.6701 24.056 52.5719V85.5612C24.056 86.4603 24.7867 87.1918 25.6907 87.1918H58.7627C59.664 87.1918 60.3974 86.4629 60.3974 85.5612V73.7561C60.1707 73.5273 59.4534 73.0778 57.68 73.8678V73.8625C56.6987 74.5754 55.4934 75.0036 54.184 75.0036C50.8987 75.0036 48.2374 72.3463 48.2374 69.0718C48.2374 65.7974 50.9014 63.14 54.184 63.14C55.424 63.14 56.5734 63.5178 57.5254 64.1641C57.5254 64.1641 59.4427 65.4223 60.3974 64.2705L60.3947 64.2652Z" fill="#28B876"/>
<path opacity="0.2" d="M49.1946 50.9414C49.1946 50.9414 50.9946 54.1467 46.8933 56.9477C42.792 59.746 38.0426 66.2071 37.1066 70.5855C36.1706 74.9639 24.0826 75.9694 24.0826 75.9694V83.3482C24.0826 83.3482 36.1706 81.8134 38.4746 76.2726C40.776 70.7318 41.096 65.2762 44.9306 61.4724C48.7653 57.6686 56.608 50.9441 56.608 50.9441H49.1973" fill="white"/>
<path opacity="0.4" d="M24.424 62.3371C24.424 62.3371 25.6347 62.2733 26.0853 64.2656C26.536 66.258 24.0533 73.0037 24.0533 73.0037V66.8751L24.424 62.3371Z" fill="black"/>
<path opacity="0.4" d="M31.08 75.4902C31.08 75.4902 33.336 75.6365 34.0613 77.9614L34.3067 79.0334C34.3067 79.0334 36.592 80.6081 35.92 83.5554C35.7653 84.231 34.9467 85.444 34.9467 85.444L35.7893 87.1916L31.5173 87.1251L29.9147 78.629L31.08 75.4929V75.4902Z" fill="black"/>
<path d="M18.496 94.0491C18.496 94.0491 16.3173 78.6105 16.064 74.7934C15.808 70.9763 22.7813 62.1052 23.632 61.8498C24.4827 61.5945 25.672 62.5281 25.3333 64.563C24.992 66.5979 21.9307 72.0775 21.9307 72.0775L22.44 75.6393C22.44 75.6393 25.9253 73.8571 28.9867 74.6205C32.048 75.3839 32.8133 77.081 32.5573 79.0308C32.5573 79.0308 34.2587 80.5576 34.344 82.0845C34.4293 83.6113 33.5787 84.7977 33.5787 84.7977C33.5787 84.7977 34.2587 87.173 33.664 88.1067C33.0693 89.0404 29.4133 90.4821 29.4133 90.4821C29.4133 90.4821 30.744 97.0762 27.408 99.3186C27.408 99.3186 22.352 117.657 22.464 117.638H6.27466C6.27466 117.638 15.96 98.7547 16.64 97.3981C17.32 96.0415 18.496 94.0438 18.496 94.0438V94.0491Z" fill="#FDBBB5"/>
<g opacity="0.2">
<path d="M29.7334 87.8218C29.6347 87.5026 29.552 87.1728 29.3867 86.8828C29.2214 86.5929 28.9547 86.3375 28.624 86.2764L29.5254 90.434C29.7627 89.9365 30.0054 89.4125 29.9814 88.8592C29.9654 88.5028 29.84 88.1623 29.7334 87.8218Z" fill="black"/>
</g>
<path d="M29.5253 91.3119C29.2773 89.8489 29.0267 88.3859 28.7787 86.9202C28.7547 86.7739 28.728 86.625 28.648 86.5026C28.568 86.3803 28.416 86.2872 28.2747 86.3217" stroke="#D7504D" stroke-linecap="round" stroke-linejoin="round"/>
<path d="M23.656 78.7696C26.7947 76.8411 30.6027 76.8597 32.56 79.033" stroke="#D7504D" stroke-linecap="round" stroke-linejoin="round"/>
<path d="M33.5813 84.8003C33.0746 83.5554 32.632 82.4728 31.352 82.0578C30.072 81.6428 27.8613 82.0419 26.7173 82.7521" stroke="#D7504D" stroke-linecap="round" stroke-linejoin="round"/>
<path d="M29.0374 87.5691C29.5707 87.0743 30.2667 86.7578 30.992 86.6807" stroke="#D7504D" stroke-linecap="round" stroke-linejoin="round"/>
<path d="M21.6427 76.27C23.0587 75.0304 26.096 74.5516 27.208 74.4346" stroke="#D7504D" stroke-linecap="round" stroke-linejoin="round"/>
<path opacity="0.2" d="M52.7521 74.8311C52.7521 74.8311 43.0721 82.2391 43.5627 87.1894H48.8801C48.8801 87.1894 44.5441 86.95 46.7521 83.3457C48.9601 79.7387 54.7681 74.8178 54.7734 74.9694C54.7734 75.0093 53.0774 74.9002 52.7521 74.8311Z" fill="white"/>
<path d="M78.6693 88.5457C78.6693 88.5457 80.456 86.1517 83.368 84.9441C86.28 83.7338 87.0266 83.9386 87.4506 84.7419C87.8773 85.5452 85.8906 88.0589 85.0373 88.7559C84.184 89.4528 78.8933 93.0065 78.8933 93.0065L78.6693 88.5484V88.5457Z" fill="#E97F3F"/>
<path d="M106.477 63.1322C105.171 63.1322 103.965 63.5578 102.981 64.2733V64.268C101.368 64.9862 100.629 64.6776 100.339 64.4436V52.572C100.339 51.6729 99.608 50.9414 98.704 50.9414H65.632C64.7307 50.9414 63.9973 51.6702 63.9973 52.572V64.5154C62.992 65.2096 61.392 64.1563 61.392 64.1563C60.44 63.5099 59.2907 63.1322 58.0507 63.1322C54.7653 63.1322 52.104 65.7895 52.104 69.064C52.104 72.3384 54.768 74.9958 58.0507 74.9958C59.3573 74.9958 60.5627 74.5702 61.5467 73.8546V73.86C62.8827 73.2641 63.6187 73.3758 63.9973 73.5647V85.556C63.9973 86.4551 64.728 87.1866 65.632 87.1866H98.704C99.6053 87.1866 100.339 86.4577 100.339 85.556V73.7748C101.315 72.772 103.136 73.9717 103.136 73.9717C104.088 74.6181 105.237 74.9958 106.477 74.9958C109.763 74.9958 112.424 72.3384 112.424 69.064C112.424 65.7895 109.76 63.1322 106.477 63.1322Z" fill="#6B6F70"/>
<path opacity="0.4" d="M68.4453 86.1757C68.4453 86.1757 73.44 85.2846 75.8373 85.0931H76.7893C76.7893 85.0931 77.248 77.5866 81.0933 77.3046L79.704 88.059L84.0453 87.1892C84.0453 87.1892 85.4986 78.5681 88.728 77.4695L89.9946 80.2865C89.9946 80.2865 92.0293 77.0093 95.1226 77.0147L91.5813 87.4605L83.1866 91.0249L75.8346 90.5514L68.4426 86.1757H68.4453Z" fill="black"/>
<path opacity="0.2" d="M95.2613 50.9336C95.4266 51.1358 95.4586 51.4151 95.4693 51.6784C95.5546 53.8303 94.6906 56.0036 93.1493 57.5118C90.3946 60.2064 86.1146 60.4963 82.7253 62.3344C79.76 63.9437 77.512 66.8138 76.6666 70.0723C76.392 71.131 76.256 72.2322 75.816 73.2324C74.9306 75.2513 72.904 76.5893 70.7786 77.1878C68.6533 77.7863 66.2026 77.5123 63.9946 77.4698V81.0102C66.2026 81.0528 69.4746 80.1058 71.6 79.5073C73.7253 78.9088 75.752 77.5708 76.6373 75.5519C77.0773 74.5517 77.2133 73.4478 77.488 72.3918C78.3333 69.1333 79.6586 65.9413 82.624 64.332C86.0133 62.494 91.216 62.5259 93.9706 59.8313C95.512 58.3231 98.9226 53.1015 98.8373 50.9496L95.2613 50.9363V50.9336Z" fill="white"/>
<path d="M65.7493 118.62C65.7813 117.928 70.6 97.6643 70.6 97.6643C73.32 95.0762 78.528 95.3289 80.96 94.9831C86.7467 94.1611 86.6373 92.4614 86.6373 92.4614C86.6373 92.4614 89.8747 92.7194 91.2933 90.6685C92.0267 89.6072 96.7733 77.036 96.7733 77.036C96.7733 77.036 95.8827 75.9774 93.6747 78.0921C91.4667 80.2094 89.9547 85.3539 89.9547 85.3539C89.9547 85.3539 91.5573 78.2703 91.5867 77.0174C91.616 75.7646 89.1387 76.1343 88.352 78.1798C87.5653 80.2254 84.9413 86.8594 84.9413 86.8594C84.2453 87.966 83.392 88.7134 82.2693 88.8438C82.2693 88.8438 83.1973 78.5895 83.1947 77.4696C83.192 76.3498 81.0427 76.52 80.1253 78.5336C79.208 80.5472 77.9573 86.112 77.9573 86.112C77.9573 86.112 67.7733 85.6066 66.0213 86.7264C62.6507 88.8837 51.3973 118.62 51.3973 118.62H65.7573H65.7493Z" fill="#FDAD6A"/>
<path d="M89.0533 91.3813C89.1867 91.4931 90.64 92.7725 92.4773 92.0144C94.3173 91.2563 96.5307 89.9981 98.9813 88.8916C101.432 87.785 101.648 87.6919 100.136 86.862C98.6267 86.0321 96.2133 87.0376 94.5787 87.5802C92.944 88.1202 91.4 88.5804 91.4 88.5804L89.0507 91.384L89.0533 91.3813Z" fill="#FDAD6A"/>
<path d="M86.6747 92.5041C88.328 91.0916 90.12 86.1627 91.5813 77.0176" stroke="#E97F3F" stroke-width="0.75" stroke-linecap="round" stroke-linejoin="round"/>
<path d="M78.9973 91.759C80.136 91.6499 80.896 91.4291 81.4613 90.9557C82.4747 90.1124 83.1867 77.4668 83.1867 77.4668" stroke="#E97F3F" stroke-width="0.75" stroke-linecap="round" stroke-linejoin="round"/>
<path d="M89.3867 92.0705C90.4454 91.7007 91.4294 90.3255 91.96 89.3386C92.4907 88.3518 96.408 78.297 96.7707 77.0361" stroke="#E97F3F" stroke-width="0.75" stroke-linecap="round" stroke-linejoin="round"/>
</svg>
