<svg width="648" height="648" viewBox="0 0 648 648" fill="none" xmlns="http://www.w3.org/2000/svg">
<path opacity="0.7" d="M88.0372 216.548C88.0372 216.548 51.9048 309.848 102.682 403.82C153.446 497.806 258.047 547.417 341.755 589.861C425.464 632.305 512.387 611.634 553.69 542.117C594.994 472.599 538.332 422.975 538.268 323.844C538.203 224.713 553.107 198.469 499.439 114.722C445.772 30.9613 314.034 12.4285 214.449 74.5458C114.864 136.663 88.0372 216.536 88.0372 216.536V216.548Z" fill="white" fill-opacity="0.3"/>
<path d="M274.208 601.81C115.085 574.905 137.804 487.114 89.1648 387.011C40.5259 286.921 35.2382 245.929 86.3395 158.63C137.441 71.3314 245.799 20.8004 344.943 91.4972C444.087 162.194 517.687 138.542 577.407 193.907C637.114 249.272 644.086 327.823 571.082 399.116C498.066 470.409 470.422 634.962 274.221 601.797L274.208 601.81Z" fill="#28B876"/>
<path opacity="0.7" d="M274.208 601.81C115.085 574.905 137.804 487.114 89.1648 387.011C40.5259 286.921 35.2382 245.929 86.3395 158.63C137.441 71.3314 245.799 20.8004 344.943 91.4972C444.087 162.194 517.687 138.542 577.407 193.907C637.114 249.272 644.086 327.823 571.082 399.116C498.066 470.409 470.422 634.962 274.221 601.797L274.208 601.81Z" fill="white"/>
<path d="M409.031 601.604C409.031 601.604 380.596 595.344 375.205 581.01C369.814 566.663 380.143 530.207 382.398 494.256H265.602C267.844 530.194 278.186 566.663 272.795 581.01C267.404 595.357 238.969 601.604 238.969 601.604C238.969 601.604 298.132 629.208 319.412 629.558C342.883 629.934 409.031 601.604 409.031 601.604Z" fill="white"/>
<path opacity="0.4" d="M250.387 598.078C254.884 599.258 260.237 600.554 265.499 601.603C273.961 603.301 282.191 604.325 286.273 603.159C287.44 602.822 288.464 602.29 289.345 601.603C296.24 596.277 294.866 581.865 294.866 581.865C348.443 577.887 371.239 529.935 371.952 528.444C366.418 549.556 353.238 584.133 356.944 598.052C357.359 599.646 358.085 600.8 359.018 601.603C361.791 604.001 366.483 603.34 371.239 601.603C379.002 598.778 386.96 593.063 386.96 593.063C381.698 589.965 377.084 585.961 375.218 580.997C369.827 566.663 380.156 530.194 382.411 494.243H265.615C267.87 530.194 278.199 566.663 272.808 580.997C269.711 589.252 258.967 594.825 250.413 598.078H250.387Z" fill="#28B876"/>
<path d="M409.031 601.604C409.031 601.604 380.596 595.344 375.205 581.01C369.814 566.663 380.143 530.207 382.398 494.256H265.602C267.844 530.194 278.186 566.663 272.795 581.01C267.404 595.357 238.969 601.604 238.969 601.604" stroke="#0B192D" stroke-miterlimit="10"/>
<path d="M377.771 516.106C377.771 516.106 348.08 553.405 339.902 558.628C329.184 565.471 305.96 565.147 300.516 559.315C295.073 553.483 268.959 520.863 269.192 513.216C269.62 499.284 377.758 516.106 377.758 516.106H377.771Z" fill="#0B192D"/>
<path d="M258.526 442.066C258.526 442.066 249.428 429.378 244.659 428.367C241.808 427.758 235.678 431.737 235.224 435.223C234.77 438.709 239.268 458.019 237.92 462.063C236.572 466.106 243.842 477.433 249.13 483.551C254.418 489.668 255.869 493.245 259.459 488.307" fill="white"/>
<mask id="mask0_228_4278" style="mask-type:luminance" maskUnits="userSpaceOnUse" x="235" y="428" width="25" height="63">
<path d="M258.526 442.066C258.526 442.066 249.428 429.378 244.659 428.367C241.808 427.758 235.678 431.737 235.224 435.223C234.77 438.709 239.268 458.019 237.92 462.063C236.572 466.106 243.842 477.433 249.13 483.551C254.418 489.668 255.869 493.245 259.459 488.307" fill="white"/>
</mask>
<g mask="url(#mask0_228_4278)">
<path opacity="0.4" d="M237.933 462.05C236.585 466.093 243.855 477.433 249.143 483.538C254.418 489.655 255.882 493.232 259.472 488.294C255.584 489.758 252.577 481.658 254.379 480.09C256.167 478.522 254.807 459.043 252.266 456.024C249.713 453.017 246.745 432.683 242.248 431.348C240.46 430.816 237.92 432.255 235.509 434.212C235.367 434.536 235.276 434.873 235.237 435.197C234.796 438.683 239.281 458.006 237.946 462.05H237.933Z" fill="#28B876"/>
</g>
<path d="M258.526 442.066C258.526 442.066 249.428 429.378 244.659 428.367C241.808 427.758 235.678 431.737 235.224 435.223C234.77 438.709 239.268 458.019 237.92 462.063C236.572 466.106 243.842 477.433 249.13 483.551C254.418 489.668 255.869 493.245 259.459 488.307" stroke="#0B192D" stroke-linecap="round" stroke-linejoin="round"/>
<path d="M239.281 445.202C239.281 445.202 237.933 439.435 240.849 437.944C243.765 436.441 247.484 454.727 249.83 456.438C252.176 458.149 250.504 462.503 249.83 464.979C249.156 467.454 251.852 468.128 252.072 469.917C252.292 471.718 252.526 473.74 251.178 474.18C249.83 474.634 245.112 471.264 243.765 468.569C242.417 465.873 241.743 457.786 241.743 457.786" stroke="#0B192D" stroke-linecap="round" stroke-linejoin="round"/>
<path d="M247.575 451.877C247.575 451.877 244.218 450.606 243.765 454.417" stroke="#0B192D" stroke-linecap="round" stroke-linejoin="round"/>
<path d="M389.474 442.066C389.474 442.066 398.572 429.378 403.341 428.367C406.192 427.758 412.322 431.737 412.776 435.223C413.23 438.709 408.732 458.019 410.08 462.063C411.428 466.106 404.158 477.433 398.87 483.551C393.582 489.668 392.131 493.245 388.541 488.307" fill="white"/>
<mask id="mask1_228_4278" style="mask-type:luminance" maskUnits="userSpaceOnUse" x="388" y="428" width="25" height="63">
<path d="M389.474 442.066C389.474 442.066 398.572 429.378 403.341 428.367C406.192 427.758 412.322 431.737 412.776 435.223C413.23 438.709 408.732 458.019 410.08 462.063C411.428 466.106 404.158 477.433 398.87 483.551C393.582 489.668 392.131 493.245 388.541 488.307" fill="white"/>
</mask>
<g mask="url(#mask1_228_4278)">
<path opacity="0.4" d="M388.541 488.307C392.118 493.219 393.569 489.655 398.857 483.538C404.132 477.434 411.415 466.094 410.067 462.05C408.732 458.007 413.217 438.683 412.776 435.197C412.737 434.873 412.646 434.562 412.517 434.238C410.093 432.281 407.54 430.804 405.752 431.348C401.255 432.683 398.274 453.017 395.734 456.024C393.193 459.043 391.82 478.522 393.608 480.09C395.397 481.646 392.416 489.694 388.554 488.307H388.541Z" fill="#28B876"/>
</g>
<path d="M389.474 442.066C389.474 442.066 398.572 429.378 403.341 428.367C406.192 427.758 412.322 431.737 412.776 435.223C413.23 438.709 408.732 458.019 410.08 462.063C411.428 466.106 404.158 477.433 398.87 483.551C393.582 489.668 392.131 493.245 388.541 488.307" stroke="#0B192D" stroke-linecap="round" stroke-linejoin="round"/>
<path d="M408.719 445.202C408.719 445.202 410.067 439.435 407.151 437.944C404.235 436.441 400.516 454.727 398.17 456.438C395.824 458.149 397.496 462.503 398.17 464.979C398.844 467.454 396.148 468.128 395.928 469.917C395.708 471.718 395.474 473.74 396.822 474.18C398.17 474.634 402.887 471.264 404.235 468.569C405.583 465.873 406.257 457.786 406.257 457.786" stroke="#0B192D" stroke-linecap="round" stroke-linejoin="round"/>
<path d="M400.425 451.877C400.425 451.877 403.782 450.606 404.235 454.417" stroke="#0B192D" stroke-linecap="round" stroke-linejoin="round"/>
<path d="M397.716 390.537C396.122 370.721 383.188 329.068 324.207 328.809C324.143 328.809 324.078 328.809 324 328.809C323.935 328.809 323.87 328.809 323.793 328.809C264.812 329.081 251.878 370.734 250.283 390.55C248.689 410.405 257.087 484.005 260.068 497.924C263.269 512.841 278.329 523.805 294.023 540.225C305.376 552.096 307.126 553.626 323.793 553.794C323.857 553.794 323.922 553.794 324 553.794C324.065 553.794 324.13 553.794 324.207 553.794C340.861 553.613 342.623 552.096 353.976 540.212C369.671 523.792 384.73 512.828 387.932 497.911C390.912 483.992 399.323 410.392 397.716 390.537Z" fill="white"/>
<mask id="mask2_228_4278" style="mask-type:luminance" maskUnits="userSpaceOnUse" x="250" y="328" width="148" height="226">
<path d="M397.716 390.537C396.122 370.721 383.188 329.068 324.207 328.809C324.143 328.809 324.078 328.809 324 328.809C323.935 328.809 323.87 328.809 323.793 328.809C264.812 329.081 251.878 370.734 250.283 390.55C248.689 410.405 257.087 484.005 260.068 497.924C263.269 512.841 278.329 523.805 294.023 540.225C305.376 552.096 307.126 553.626 323.793 553.794C323.857 553.794 323.922 553.794 324 553.794C324.065 553.794 324.13 553.794 324.207 553.794C340.861 553.613 342.623 552.096 353.976 540.212C369.671 523.792 384.73 512.828 387.932 497.911C390.912 483.992 399.323 410.392 397.716 390.537Z" fill="white"/>
</mask>
<g mask="url(#mask2_228_4278)">
<path opacity="0.4" d="M324.104 481.102C317.481 481.102 314.63 476.734 312.53 476.734C310.431 476.734 306.841 477.564 306.841 477.564C306.841 477.564 307.489 471.162 311.273 468.583C311.273 468.583 299.946 474.402 298.728 477.564C297.51 480.726 298.728 494.269 298.728 494.269C298.728 494.269 303.756 484.355 304.923 485.392C310.833 490.64 318.803 490.64 318.803 490.64L317.507 494.269L323.326 496.809C323.326 496.809 322.03 491.651 323.987 490.64C325.944 489.63 329.171 491.729 329.171 491.729C329.171 491.729 339.889 489.111 343.051 485.405C344.658 483.525 347.458 494.282 347.458 494.282C347.458 494.282 348.961 480.713 347.458 476.086C345.954 471.46 337.738 468.595 337.738 468.595C337.738 468.595 342.792 473.987 341.133 477.577C341.133 477.577 338.723 476.19 334.07 477.084C333.733 477.149 328.316 481.115 324.078 481.115L324.104 481.102Z" fill="#28B876"/>
<path opacity="0.4" d="M346.563 505.22C346.563 505.22 348.196 502.719 331.05 499.945L324 502.045L316.95 499.945C316.95 499.945 302.24 502.019 300.102 505.22C300.102 505.22 311.805 506.088 319.93 505L324 506.477L328.069 505C328.069 505 343.725 505.622 346.563 505.22Z" fill="#28B876"/>
<path opacity="0.4" d="M343.077 511.415C343.077 511.415 341.561 516.275 337.167 517.843C332.774 519.411 315.498 520.539 311.558 517.843C307.619 515.148 304.936 511.415 304.936 511.415C304.936 511.415 312.984 513.981 324.013 512.322C335.029 510.663 336.986 514.875 343.09 511.415H343.077Z" fill="#28B876"/>
<path opacity="0.4" d="M356.944 423.417C356.141 421.473 342.3 422.134 341.042 423.417C339.785 424.7 332.917 433.422 331.258 439.604C329.612 445.786 329.119 455.117 329.404 458.552C329.689 461.986 335.69 455.363 338.165 451.67C340.641 447.976 338.943 442.468 339.902 439.604C340.861 436.74 346.602 443.609 346.602 443.609C346.602 443.609 341.587 436.74 343.129 433.37C344.671 430.001 356.931 423.417 356.931 423.417H356.944Z" fill="#28B876"/>
<path opacity="0.4" d="M314.124 436.299C314.124 436.299 306.984 424.013 304.923 422.924C302.862 421.835 297.276 421.68 295.929 422.924C294.581 424.168 292.663 428.601 294.853 428.29C297.043 427.979 314.345 442.805 314.124 436.286V436.299Z" fill="#28B876"/>
<path opacity="0.4" d="M387.919 497.911C385.793 507.864 378.38 516.055 369.023 525.283C371.667 514.254 372.535 500.192 372.561 488.865C372.613 470.449 381.063 459.212 384.07 452.033C387.089 444.84 378.523 440.861 378.523 440.861C378.523 440.861 370.721 431.361 372.963 430.014C375.218 428.666 379.093 417.883 379.093 417.883L384.057 417.65C381.166 411.87 377.46 400.361 379.093 395.449C380.726 390.537 376.112 373.858 376.112 373.858L396.822 383.863C397.263 386.287 397.548 388.529 397.703 390.55C399.31 410.405 390.886 484.005 387.919 497.924V497.911Z" fill="#28B876"/>
<path opacity="0.4" d="M278.977 525.282C269.62 516.055 262.207 507.864 260.081 497.911C257.1 483.992 248.689 410.392 250.296 390.537C250.452 388.515 250.737 386.26 251.178 383.85L271.888 373.845C271.888 373.845 267.261 390.511 268.907 395.436C270.54 400.348 266.833 411.856 263.943 417.637L268.907 417.87C268.907 417.87 272.795 428.653 275.037 430C277.292 431.348 269.477 440.848 269.477 440.848C269.477 440.848 260.911 444.84 263.93 452.019C266.937 459.199 275.387 470.436 275.439 488.852C275.465 500.192 276.32 514.24 278.977 525.269V525.282Z" fill="#28B876"/>
</g>
<path d="M397.716 390.537C396.122 370.721 383.188 329.068 324.207 328.809C324.143 328.809 324.078 328.809 324 328.809C323.935 328.809 323.87 328.809 323.793 328.809C264.812 329.081 251.878 370.734 250.283 390.55C248.689 410.405 257.087 484.005 260.068 497.924C263.269 512.841 278.329 523.805 294.023 540.225C305.376 552.096 307.126 553.626 323.793 553.794C323.857 553.794 323.922 553.794 324 553.794C324.065 553.794 324.13 553.794 324.207 553.794C340.861 553.613 342.623 552.096 353.976 540.212C369.671 523.792 384.73 512.828 387.932 497.911C390.912 483.992 399.323 410.392 397.716 390.537Z" stroke="#0B192D" stroke-linecap="round" stroke-linejoin="round"/>
<path d="M341.47 418.88C342.053 416.405 344.179 414.474 346.9 413.93C353.795 412.556 363.191 410.508 371.654 413.074C383.512 416.664 383.059 423.403 383.059 423.403C383.059 423.403 379.547 416.962 371.654 417.714C363.761 418.466 341.029 420.708 341.029 420.708L341.47 418.867V418.88Z" fill="#0B192D"/>
<path d="M371.706 440.524C371.706 440.524 367.61 446.369 357.514 446.265C347.419 446.161 344.373 440.485 344.373 440.485L348.689 442.001C348.689 442.001 357.242 446.071 367.558 441.405L371.706 440.524Z" fill="#0B192D"/>
<path d="M346.589 435.637C346.589 435.637 351.527 430.324 355.7 430.155" stroke="#0B192D" stroke-linecap="round" stroke-linejoin="round"/>
<path d="M330.48 442.066C327.564 450.153 330.48 468.569 330.48 468.569" stroke="#0B192D" stroke-linecap="round" stroke-linejoin="round"/>
<path d="M347.445 439.487C347.445 439.487 358.214 443.971 367.183 439.487" stroke="#0B192D" stroke-linecap="round" stroke-linejoin="round"/>
<path d="M338.671 428.354C338.671 428.354 342.17 422.366 345.138 421.835" stroke="#0B192D" stroke-linecap="round" stroke-linejoin="round"/>
<path d="M306.53 418.88C305.947 416.405 303.821 414.474 301.1 413.93C294.205 412.556 284.809 410.508 276.346 413.074C264.488 416.664 264.941 423.403 264.941 423.403C264.941 423.403 268.453 416.962 276.346 417.714C284.239 418.466 306.971 420.708 306.971 420.708L306.53 418.867V418.88Z" fill="#0B192D"/>
<path d="M277.59 440.524C277.59 440.524 281.686 446.369 291.781 446.265C301.877 446.161 304.923 440.485 304.923 440.485L300.607 442.001C300.607 442.001 292.054 446.071 281.737 441.405L277.59 440.524Z" fill="#0B192D"/>
<path d="M302.707 435.637C302.707 435.637 297.769 430.324 293.596 430.155" stroke="#0B192D" stroke-linecap="round" stroke-linejoin="round"/>
<path d="M301.851 439.487C301.851 439.487 291.082 443.971 282.113 439.487" stroke="#0B192D" stroke-linecap="round" stroke-linejoin="round"/>
<path d="M302.862 421.848C312.466 423.416 317.52 442.066 317.52 442.066C320.436 450.153 317.52 468.569 317.52 468.569" stroke="#0B192D" stroke-linecap="round" stroke-linejoin="round"/>
<path d="M315.096 477.731C315.096 477.731 318.272 481.101 324.091 481.101C329.91 481.101 332.89 477.731 332.89 477.731" stroke="#0B192D" stroke-linecap="round" stroke-linejoin="round"/>
<path d="M328.679 487.517C328.679 487.517 330.7 485.041 332.748 483.823C334.796 482.605 336.169 484.847 336.169 484.847C336.169 484.847 333.539 487.322 331.556 486.933L328.692 487.517H328.679Z" fill="#0B192D"/>
<path d="M319.321 487.517C319.321 487.517 317.3 485.041 315.252 483.823C313.204 482.605 311.831 484.847 311.831 484.847C311.831 484.847 314.461 487.322 316.444 486.933L319.308 487.517H319.321Z" fill="#0B192D"/>
<path d="M311.273 486.959C311.273 486.959 305.169 485.196 304.949 482.28C304.729 479.364 306.854 477.563 306.854 477.563" stroke="#0B192D" stroke-linecap="round" stroke-linejoin="round"/>
<path d="M336.727 486.959C336.727 486.959 342.831 485.196 343.051 482.28C343.272 479.364 341.146 477.563 341.146 477.563" stroke="#0B192D" stroke-linecap="round" stroke-linejoin="round"/>
<path d="M349.272 506.944C349.272 506.944 348.041 504.235 346.563 505.22C345.086 506.205 328.808 504.546 328.069 505C327.694 505.233 324 506.477 324 506.477C324 506.477 320.293 505.22 319.931 505C319.192 504.533 302.914 506.205 301.437 505.22C299.959 504.235 298.728 506.944 298.728 506.944" stroke="#0B192D" stroke-linecap="round" stroke-linejoin="round"/>
<path d="M344.982 509.613C344.982 509.613 341.989 513.203 338.697 513.203C335.405 513.203 331.776 512.309 324.013 512.309C316.25 512.309 312.621 513.203 309.329 513.203C306.037 513.203 303.044 509.613 303.044 509.613" stroke="#0B192D" stroke-linecap="round" stroke-linejoin="round"/>
<path d="M344.982 502.641C344.982 502.641 333.902 500.101 331.05 499.945L324 502.045L316.95 499.945C314.099 500.101 303.018 502.641 303.018 502.641" stroke="#0B192D" stroke-linecap="round" stroke-linejoin="round"/>
<path d="M395.747 346.188C383.292 330.713 350.192 318.583 318.673 323.3C318.673 323.3 327.577 319.931 332.515 319.931C332.515 319.931 308.785 319.114 301.398 326.216L308.785 319.114C308.785 319.114 283.202 326.255 277.707 335.897L283.202 326.255C283.202 326.255 279.431 327.875 274.571 330.428C264.747 334.627 256.751 340.148 251.891 346.188C239.436 361.662 245.242 395.436 245.242 395.436C243.22 433.655 255.351 462.491 255.351 462.491C254.184 448.338 257.619 411.856 257.619 411.856C257.619 411.856 264.151 407.994 264.086 401.76C264.021 395.526 267.935 376.54 275.128 376.099C282.321 375.646 322.743 384.07 322.743 384.07C322.743 384.07 323.119 383.927 323.819 383.668C324.505 383.927 324.894 384.07 324.894 384.07C324.894 384.07 365.316 375.659 372.509 376.099C379.702 376.553 383.616 395.526 383.551 401.76C383.486 407.994 390.018 411.856 390.018 411.856C390.018 411.856 393.453 448.325 392.286 462.491C392.286 462.491 404.417 433.655 402.395 395.436C402.395 395.436 408.201 361.662 395.747 346.188Z" fill="#0B192D"/>
<path opacity="0.3" d="M325.322 375.892C325.322 375.892 312.66 358.331 322.173 341.937" stroke="white" stroke-linecap="round" stroke-linejoin="round"/>
<path opacity="0.3" d="M315.485 375.892C315.485 375.892 297.717 362.777 297.95 348.43" stroke="white" stroke-linecap="round" stroke-linejoin="round"/>
<path opacity="0.3" d="M302.862 374.104C302.862 374.104 278.718 367.999 275.97 356.167" stroke="white" stroke-linecap="round" stroke-linejoin="round"/>
<path opacity="0.3" d="M338.671 375.892C338.671 375.892 338.671 359.459 350.412 350.814" stroke="white" stroke-linecap="round" stroke-linejoin="round"/>
<path opacity="0.3" d="M350.412 374.104C350.412 374.104 354.961 364.837 366.535 362.621" stroke="white" stroke-linecap="round" stroke-linejoin="round"/>
<path d="M498.441 142.3V134.33L492.48 133.811C492.13 132.554 491.637 131.349 491.002 130.235L494.852 125.66L489.214 120.022L484.639 123.871C483.525 123.249 482.319 122.757 481.062 122.394L480.544 116.432H472.573L472.055 122.394C470.798 122.744 469.593 123.236 468.478 123.871L463.903 120.022L458.265 125.66L462.115 130.235C461.493 131.349 461 132.554 460.637 133.811L454.676 134.33V142.3L460.637 142.819C460.987 144.076 461.48 145.281 462.115 146.396L458.265 150.971L463.903 156.608L468.478 152.759C469.593 153.381 470.798 153.874 472.055 154.236L472.573 160.198H480.544L481.062 154.236C482.319 153.887 483.525 153.394 484.639 152.759L489.214 156.608L494.852 150.971L491.002 146.396C491.625 145.281 492.117 144.076 492.48 142.819L498.441 142.3ZM476.565 147.575C471.459 147.575 467.312 143.428 467.312 138.322C467.312 133.215 471.459 129.068 476.565 129.068C481.671 129.068 485.818 133.215 485.818 138.322C485.818 143.428 481.671 147.575 476.565 147.575Z" stroke="#0B192D" stroke-linecap="round" stroke-linejoin="round"/>
<path d="M528.677 160.068V154.405L524.426 154.042C524.18 153.148 523.817 152.292 523.376 151.502L526.111 148.249L522.106 144.244L518.853 146.979C518.063 146.538 517.208 146.188 516.313 145.929L515.95 141.678H510.287L509.924 145.929C509.03 146.188 508.174 146.538 507.384 146.979L504.131 144.244L500.126 148.249L502.861 151.502C502.42 152.292 502.07 153.148 501.811 154.042L497.56 154.405V160.068L501.811 160.431C502.07 161.326 502.42 162.181 502.861 162.972L500.126 166.224L504.131 170.229L507.384 167.495C508.174 167.935 509.03 168.285 509.924 168.544L510.287 172.795H515.95L516.313 168.544C517.208 168.285 518.063 167.935 518.853 167.495L522.106 170.229L526.111 166.224L523.376 162.972C523.817 162.181 524.167 161.326 524.426 160.431L528.677 160.068ZM513.112 163.827C509.47 163.827 506.528 160.872 506.528 157.243C506.528 153.614 509.47 150.66 513.112 150.66C516.754 150.66 519.696 153.614 519.696 157.243C519.696 160.872 516.754 163.827 513.112 163.827Z" stroke="#0B192D" stroke-linecap="round" stroke-linejoin="round"/>
<path d="M497.068 177.163V173.132L494.048 172.873C493.867 172.238 493.62 171.629 493.296 171.058L495.24 168.739L492.389 165.887L490.069 167.831C489.499 167.52 488.89 167.261 488.255 167.08L487.996 164.06H483.965L483.706 167.08C483.071 167.261 482.462 167.507 481.892 167.831L479.572 165.887L476.721 168.739L478.665 171.058C478.354 171.629 478.094 172.238 477.913 172.873L474.893 173.132V177.163L477.913 177.422C478.094 178.057 478.341 178.666 478.665 179.236L476.721 181.556L479.572 184.407L481.892 182.463C482.462 182.774 483.058 183.033 483.706 183.215L483.965 186.235H487.996L488.255 183.215C488.89 183.033 489.499 182.787 490.069 182.463L492.389 184.407L495.24 181.556L493.296 179.236C493.607 178.666 493.867 178.057 494.048 177.422L497.068 177.163ZM486 179.832C483.408 179.832 481.308 177.733 481.308 175.141C481.308 172.549 483.408 170.449 486 170.449C488.592 170.449 490.691 172.549 490.691 175.141C490.691 177.733 488.592 179.832 486 179.832Z" stroke="#0B192D" stroke-linecap="round" stroke-linejoin="round"/>
<path d="M434.471 151.334C434.471 119.737 460.093 94.1152 491.689 94.1152" stroke="#0B192D" stroke-linecap="round" stroke-linejoin="round"/>
<path d="M509.859 205.597C504.144 207.515 498.04 208.552 491.676 208.552C475.438 208.552 460.767 201.787 450.347 190.913C442.791 183.034 437.478 172.99 435.404 161.805" stroke="#0B192D" stroke-linecap="round" stroke-linejoin="round"/>
<path d="M525.761 197.303C523.195 199.208 520.461 200.906 517.583 202.37" stroke="#0B192D" stroke-linecap="round" stroke-linejoin="round"/>
<path d="M548.908 151.333C548.908 167.132 542.505 181.44 532.15 191.795" stroke="#0B192D" stroke-linecap="round" stroke-linejoin="round"/>
<path d="M503.211 95.2686C514.577 97.5884 524.724 103.291 532.539 111.274C535.015 113.801 537.257 116.549 539.24 119.504" stroke="#0B192D" stroke-linecap="round" stroke-linejoin="round"/>
<path d="M139.527 130.041L136.365 134.382" stroke="#0B192D" stroke-linecap="round" stroke-linejoin="round"/>
<path d="M133.047 131.959L136.21 127.617" stroke="#0B192D" stroke-linecap="round" stroke-linejoin="round"/>
<path d="M154.344 132.596C165.98 130.458 173.681 119.291 171.543 107.655C169.405 96.0178 158.239 88.3174 146.602 90.4553C134.965 92.5931 127.265 103.76 129.402 115.396C131.54 127.033 142.707 134.734 154.344 132.596Z" stroke="#0B192D" stroke-linecap="round" stroke-linejoin="round"/>
<path d="M111.987 164.371C110.51 163.296 110.186 161.235 111.262 159.758L130.533 133.306C131.609 131.829 133.669 131.505 135.147 132.581C136.624 133.656 136.948 135.717 135.873 137.194L116.601 163.646C115.525 165.123 113.465 165.447 111.987 164.371Z" stroke="#0B192D" stroke-linecap="round" stroke-linejoin="round"/>
<path d="M165.499 122.459C159.46 130.754 147.835 132.581 139.54 126.542C131.246 120.502 129.419 108.877 135.458 100.583C141.497 92.2883 153.122 90.461 161.417 96.5003C169.711 102.54 171.539 114.165 165.499 122.459Z" stroke="#0B192D" stroke-linecap="round" stroke-linejoin="round"/>
<path d="M117.158 179.081C88.5038 165.758 76.0752 131.725 89.398 103.071" stroke="#0B192D" stroke-linecap="round" stroke-linejoin="round"/>
<path d="M198.158 133.604C197.484 139.592 195.851 145.567 193.169 151.334C186.313 166.069 174.001 176.502 159.745 181.362C149.416 184.887 138.063 185.47 127.047 182.632" stroke="#0B192D" stroke-linecap="round" stroke-linejoin="round"/>
<path d="M197.329 115.694C197.977 118.83 198.366 122.018 198.469 125.245" stroke="#0B192D" stroke-linecap="round" stroke-linejoin="round"/>
<path d="M165.408 75.3232C179.729 81.9847 190.007 93.8301 195.022 107.581" stroke="#0B192D" stroke-linecap="round" stroke-linejoin="round"/>
<path d="M95.3207 93.1044C102.228 83.7732 111.663 76.9822 122.2 73.2627C125.531 72.0833 128.978 71.215 132.477 70.6577" stroke="#0B192D" stroke-linecap="round" stroke-linejoin="round"/>
<path d="M46.9411 270.021C46.9411 246.318 66.1478 227.111 89.8517 227.111" stroke="#0B192D" stroke-linecap="round" stroke-linejoin="round"/>
<path d="M103.486 310.716C99.1958 312.154 94.621 312.932 89.8517 312.932C77.6693 312.932 66.6662 307.852 58.8643 299.7C53.2008 293.79 49.2091 286.247 47.6539 277.862" stroke="#0B192D" stroke-linecap="round" stroke-linejoin="round"/>
<path d="M115.409 304.495C113.478 305.921 111.43 307.204 109.279 308.292" stroke="#0B192D" stroke-linecap="round" stroke-linejoin="round"/>
<path d="M132.762 270.021C132.762 281.867 127.954 292.598 120.191 300.361" stroke="#0B192D" stroke-linecap="round" stroke-linejoin="round"/>
<path d="M98.496 227.979C107.024 229.729 114.631 233.992 120.489 239.98C122.342 241.872 124.027 243.933 125.505 246.149" stroke="#0B192D" stroke-linecap="round" stroke-linejoin="round"/>
<path d="M107.088 261.26C107.088 251.748 99.3773 244.023 89.8517 244.023C80.3261 244.023 72.6149 251.735 72.6149 261.26C72.6149 267.714 76.1659 273.339 81.4277 276.294L81.9849 278.497H97.6925L98.2497 276.294C103.512 273.339 107.063 267.727 107.063 261.26H107.088Z" stroke="#0B192D" stroke-linecap="round" stroke-linejoin="round"/>
<path d="M94.6468 292.753H85.0694C83.7993 292.753 82.7496 291.794 82.62 290.537L81.4406 278.497H98.2757L97.0963 290.537C96.9667 291.794 95.9169 292.753 94.6468 292.753Z" stroke="#0B192D" stroke-linecap="round" stroke-linejoin="round"/>
<path d="M94.8283 292.973C94.8283 294.645 92.5992 296.006 89.8516 296.006C87.1041 296.006 84.875 294.645 84.875 292.973" stroke="#0B192D" stroke-linecap="round" stroke-linejoin="round"/>
<path d="M81.4277 265.407H85.4323L87.9206 260.159L90.8237 270.242L93.8563 261.26L95.3856 265.2H98.2627" stroke="#0B192D" stroke-linecap="round" stroke-linejoin="round"/>
<path d="M311.506 38.0245C324.583 32.2184 339.889 38.1022 345.695 51.1659" stroke="#0B192D" stroke-linecap="round" stroke-linejoin="round"/>
<path d="M302.927 79.1985C301.087 77.1897 299.531 74.844 298.365 72.2261C295.371 65.4998 295.475 58.1904 298.067 51.8918C299.946 47.3169 303.121 43.2734 307.359 40.3574" stroke="#0B192D" stroke-linecap="round" stroke-linejoin="round"/>
<path d="M309.277 84.24C308.02 83.5272 306.815 82.7107 305.675 81.7905" stroke="#0B192D" stroke-linecap="round" stroke-linejoin="round"/>
<path d="M332.554 85.3672C326.022 88.2702 318.92 88.2573 312.738 85.8726" stroke="#0B192D" stroke-linecap="round" stroke-linejoin="round"/>
<path d="M347.341 56.1558C348.468 61.2879 347.976 66.5238 346.11 71.2282C345.527 72.7186 344.788 74.1572 343.932 75.505" stroke="#0B192D" stroke-linecap="round" stroke-linejoin="round"/>
<path d="M324.207 68.1694H319.853L317.261 46.7983H326.799L324.207 68.1694Z" stroke="#0B192D" stroke-linecap="round" stroke-linejoin="round"/>
<path d="M324.207 72.0576H319.853L318.557 76.5936H325.503L324.207 72.0576Z" stroke="#0B192D" stroke-linecap="round" stroke-linejoin="round"/>
<path d="M570.123 321.667C556.217 325.011 542.221 316.444 538.877 302.538" stroke="#0B192D" stroke-linecap="round" stroke-linejoin="round"/>
<path d="M586.025 282.722C587.477 285.029 588.578 287.608 589.252 290.407C590.976 297.561 589.55 304.728 585.87 310.47C583.2 314.63 579.338 318.038 574.634 320.125" stroke="#0B192D" stroke-linecap="round" stroke-linejoin="round"/>
<path d="M580.686 276.605C581.8 277.538 582.837 278.562 583.783 279.664" stroke="#0B192D" stroke-linecap="round" stroke-linejoin="round"/>
<path d="M558.006 271.292C564.965 269.62 571.938 270.929 577.588 274.389" stroke="#0B192D" stroke-linecap="round" stroke-linejoin="round"/>
<path d="M538.164 297.341C537.983 292.092 539.421 287.025 542.104 282.735C542.959 281.375 543.931 280.104 545.02 278.912" stroke="#0B192D" stroke-linecap="round" stroke-linejoin="round"/>
<path d="M572.21 286.105C567.881 284.77 565.25 287.44 564.058 289.163C562.866 287.453 560.235 284.783 555.906 286.105C551.202 287.556 549.569 293.544 553.522 299.026C556.373 302.966 560.961 305.648 563.306 306.841C563.592 306.983 563.838 307.1 564.045 307.204C564.252 307.113 564.512 306.983 564.784 306.841C567.13 305.648 571.717 302.953 574.569 299.026C578.534 293.557 576.888 287.556 572.184 286.105H572.21Z" stroke="#0B192D" stroke-linecap="round" stroke-linejoin="round"/>
<path d="M465.795 350.348C483.771 341.068 505.868 348.105 515.147 366.081" stroke="#0B192D" stroke-linecap="round" stroke-linejoin="round"/>
<path d="M457.073 409.173C454.313 406.49 451.928 403.315 450.049 399.699C445.28 390.459 444.813 380.129 447.937 371.006C450.205 364.396 454.352 358.408 460.106 353.95" stroke="#0B192D" stroke-linecap="round" stroke-linejoin="round"/>
<path d="M466.469 415.782C464.629 414.875 462.866 413.825 461.182 412.62" stroke="#0B192D" stroke-linecap="round" stroke-linejoin="round"/>
<path d="M499.414 415.433C490.432 420.072 480.414 420.63 471.472 417.791" stroke="#0B192D" stroke-linecap="round" stroke-linejoin="round"/>
<path d="M517.882 372.976C519.903 380.13 519.631 387.569 517.402 394.36C516.689 396.511 515.782 398.597 514.693 400.58" stroke="#0B192D" stroke-linecap="round" stroke-linejoin="round"/>
<path d="M483.46 399.22C492.987 399.22 500.71 391.497 500.71 381.97C500.71 372.443 492.987 364.72 483.46 364.72C473.933 364.72 466.21 372.443 466.21 381.97C466.21 391.497 473.933 399.22 483.46 399.22Z" stroke="#0B192D" stroke-linecap="round" stroke-linejoin="round"/>
<path d="M487.024 385.677C484.976 387.646 481.723 387.569 479.753 385.521C477.783 383.473 477.861 380.22 479.909 378.25C481.956 376.28 485.209 376.358 487.179 378.406C489.149 380.454 489.071 383.707 487.024 385.677Z" stroke="#0B192D" stroke-linecap="round" stroke-linejoin="round"/>
<path d="M490.977 389.811C486.648 393.958 479.766 393.815 475.606 389.474C471.459 385.145 471.601 378.263 475.943 374.103C480.272 369.956 487.153 370.099 491.314 374.44C495.461 378.769 495.318 385.651 490.977 389.811Z" stroke="#0B192D" stroke-linecap="round" stroke-linejoin="round"/>
<path d="M483.46 381.97L502.239 363.995" stroke="#0B192D" stroke-linecap="round" stroke-linejoin="round"/>
<path d="M502.382 359.458L502.291 363.943L506.775 364.033" stroke="#0B192D" stroke-linecap="round" stroke-linejoin="round"/>
<path d="M499.582 362.141L499.478 366.625L503.963 366.729" stroke="#0B192D" stroke-linecap="round" stroke-linejoin="round"/>
<path d="M496.77 364.837L496.679 369.321L501.163 369.412" stroke="#0B192D" stroke-linecap="round" stroke-linejoin="round"/>
<path d="M150.751 426.993C136.845 430.336 122.848 421.77 119.504 407.864" stroke="#0B192D" stroke-linecap="round" stroke-linejoin="round"/>
<path d="M166.653 388.048C168.104 390.355 169.206 392.947 169.88 395.733C171.603 402.887 170.178 410.054 166.497 415.795C163.827 419.955 159.965 423.364 155.261 425.45" stroke="#0B192D" stroke-linecap="round" stroke-linejoin="round"/>
<path d="M161.313 381.931C162.428 382.864 163.464 383.888 164.411 384.989" stroke="#0B192D" stroke-linecap="round" stroke-linejoin="round"/>
<path d="M138.633 376.617C145.593 374.945 152.565 376.254 158.216 379.715" stroke="#0B192D" stroke-linecap="round" stroke-linejoin="round"/>
<path d="M118.791 402.667C118.61 397.418 120.048 392.351 122.731 388.061C123.587 386.7 124.559 385.43 125.647 384.238" stroke="#0B192D" stroke-linecap="round" stroke-linejoin="round"/>
<path d="M133.514 392.312V411.285H155.87" stroke="#0B192D" stroke-linecap="round" stroke-linejoin="round"/>
<path d="M141.458 397.639H138.128V411.286H141.458V397.639Z" stroke="#0B192D" stroke-linecap="round" stroke-linejoin="round"/>
<path d="M147.938 401.526H144.608V411.285H147.938V401.526Z" stroke="#0B192D" stroke-linecap="round" stroke-linejoin="round"/>
<path d="M154.418 393.75H151.088V411.285H154.418V393.75Z" stroke="#0B192D" stroke-linecap="round" stroke-linejoin="round"/>
<path d="M170.605 381.97L324 237.064L135.134 261.598" stroke="#0B192D" stroke-linecap="round" stroke-linejoin="round"/>
<path d="M195.022 163.827L324 237.064L321.589 91.4458" stroke="#0B192D" stroke-linecap="round" stroke-linejoin="round"/>
<path d="M439.007 185.172L324 237.064L532.151 288.127" stroke="#0B192D" stroke-linecap="round" stroke-linejoin="round"/>
<path d="M324 237.064L453.043 353.964" stroke="#0B192D" stroke-linecap="round" stroke-linejoin="round"/>
<path d="M408.447 232.982C408.447 186.339 370.63 148.534 324 148.534C277.37 148.534 239.553 186.351 239.553 232.982C239.553 279.612 274.285 314.254 318.233 317.222L324 339.241L329.767 317.222C373.715 314.254 408.447 277.694 408.447 232.982Z" fill="white"/>
<path d="M408.447 232.982C408.447 186.339 370.63 148.534 324 148.534C277.37 148.534 239.553 186.351 239.553 232.982C239.553 279.612 274.285 314.254 318.233 317.222L324 339.241L329.767 317.222C373.715 314.254 408.447 277.694 408.447 232.982Z" stroke="#0B192D" stroke-linecap="round" stroke-linejoin="round"/>
<path d="M374.531 241.846C374.09 243.894 373.753 246.304 373.416 248.624C372.911 252.188 372.38 255.869 371.511 258.357C371.122 259.459 370.176 260.651 368.893 261.818C368.829 263.269 368.194 271.745 362.245 274.454C362.038 275.918 361.364 277.473 359.64 278.458C359.42 278.575 338.8 289.759 331.465 289.759C330.934 289.759 330.467 289.695 330.091 289.578C326.566 288.412 324.907 286.221 325.024 282.67C325.063 281.335 325.335 279.819 325.866 278.095C324.479 276.164 324.79 273.702 325.076 271.525C325.27 270.125 325.438 268.803 325.166 267.779C324.466 265.122 325.464 260.794 325.737 259.731C324.855 258.357 325.127 254.43 325.594 249.13C325.762 247.302 325.918 245.592 325.918 244.542C325.918 243.388 326.501 242.352 327.331 241.47C326.76 238.891 327.188 233.37 327.266 232.58C325.814 227.046 327.046 218.998 327.24 217.792C324.415 210.6 326.501 203.886 326.955 202.577C324.531 197.873 325.775 188.788 325.918 187.803C325.814 187.064 325.179 181.569 327.797 179.042C328.912 177.953 330.48 177.578 332.411 177.927C336.908 178.757 339.733 179.327 341.781 179.884C343.194 180.273 344.23 180.649 345.151 181.077C346.486 181.686 348.222 183.669 349.09 186.015C350.283 185.678 353.471 185.107 356.465 187.401C359.381 189.656 359.497 191.717 359.394 192.572C365.744 196.473 368.155 212.427 368.414 214.397C369.062 215.032 371.472 217.818 370.371 222.639C372.367 224.804 373.002 227.512 372.159 230.312C371.965 230.934 371.706 231.556 371.382 232.152C371.563 232.321 375.671 236.39 374.531 241.82V241.846Z" fill="#28B876"/>
<path opacity="0.2" d="M374.531 241.846C374.09 243.894 373.753 246.304 373.416 248.624C372.911 252.188 372.38 255.869 371.511 258.357C371.123 259.459 370.176 260.651 368.893 261.817C368.829 263.269 368.194 271.745 362.245 274.453C362.038 275.918 361.364 277.473 359.64 278.458C359.42 278.575 338.8 289.759 331.465 289.759C330.934 289.759 330.467 289.694 330.091 289.578C326.566 288.411 324.907 286.221 325.024 282.67C325.231 282.774 325.439 282.994 325.633 283.409C327.499 287.141 331.037 287.517 334.018 286.934C336.999 286.338 337.738 282.813 337.738 282.813L332.605 279.599C332.605 279.599 338.489 277.719 342.131 276.346C345.773 274.972 343.66 271.835 343.66 271.835C340.006 272.419 338.165 270.825 338.165 270.825C338.165 270.825 338.684 268.492 340.433 267.844C342.183 267.196 348.3 263.593 345.941 261.714C343.595 259.847 340.433 261.584 340.433 261.584C335.703 262.323 334.018 259.614 334.018 259.614C334.018 259.614 347.302 255.752 347.108 251.177C346.913 246.602 345.747 244.529 345.747 244.529C345.747 244.529 351.073 242.986 352.058 239.267C353.056 235.534 348.831 231.115 348.831 231.115C350.983 231.659 352.395 228.471 352.058 227.305C351.708 226.126 356.335 222.393 356.128 219.853C355.933 217.3 352.058 216.989 352.058 216.989C354.456 211.96 350.387 201.32 350.387 201.32C351.501 195.734 346.524 190.926 346.524 190.926C346.848 186.714 344.179 182.645 341.742 179.884C343.155 180.273 344.192 180.649 345.112 181.077C346.447 181.686 348.183 183.669 349.052 186.014C350.244 185.677 353.432 185.107 356.426 187.401C359.342 189.656 359.459 191.717 359.355 192.572C365.705 196.473 368.116 212.427 368.375 214.397C369.023 215.032 371.434 217.818 370.332 222.639C372.328 224.804 372.963 227.512 372.12 230.312C371.926 230.934 371.667 231.556 371.343 232.152C371.524 232.32 375.633 236.39 374.492 241.82L374.531 241.846Z" fill="black"/>
<path d="M322.121 278.108C324.052 284.459 322.743 287.997 317.896 289.591C317.52 289.708 317.066 289.772 316.522 289.772C313.736 289.772 309.031 288.152 304.249 286.156C296.46 282.878 288.49 278.536 288.347 278.471C286.623 277.486 285.949 275.931 285.742 274.467C279.806 271.745 279.158 263.282 279.094 261.831C277.811 260.664 276.864 259.472 276.476 258.37C275.607 255.895 275.076 252.201 274.57 248.637C274.234 246.317 273.897 243.92 273.456 241.859C272.302 236.442 276.424 232.36 276.605 232.191C276.281 231.595 276.009 230.973 275.828 230.351C274.985 227.551 275.633 224.843 277.616 222.678C276.515 217.857 278.938 215.071 279.573 214.436C279.845 212.466 282.243 196.525 288.593 192.611C288.49 191.743 288.593 189.682 291.522 187.44C294.516 185.146 297.704 185.716 298.896 186.053C299.765 183.708 301.501 181.725 302.836 181.116C305.104 180.066 307.968 179.366 315.576 177.966C317.364 177.642 318.842 177.94 319.943 178.861C320.034 178.925 320.112 179.003 320.19 179.081C322.795 181.595 322.16 187.09 322.069 187.842C322.211 188.827 323.456 197.912 321.032 202.616C321.486 203.912 323.572 210.639 320.747 217.831C320.941 219.037 322.186 227.085 320.721 232.619C320.786 233.409 321.214 238.93 320.656 241.509C321.473 242.391 322.069 243.427 322.069 244.581C322.069 245.631 322.224 247.341 322.38 249.169C322.859 254.469 323.132 258.383 322.25 259.77C322.522 260.833 323.52 265.161 322.821 267.818C322.548 268.855 322.717 270.164 322.911 271.564C323.196 273.741 323.507 276.203 322.121 278.134V278.108Z" fill="#28B876"/>
<path opacity="0.2" d="M322.121 278.108C324.052 284.459 322.743 287.997 317.896 289.591C317.52 289.707 317.066 289.772 316.522 289.772C313.736 289.772 309.031 288.152 304.249 286.156C306.711 286.532 308.876 286.493 310.236 285.716C315.719 282.567 311.921 279.612 311.921 279.612C319.088 280.311 317.572 271.849 318.142 267.857C318.712 263.878 313.943 260.288 313.943 260.288C317.65 260.859 316.781 252.499 318.388 249.415C320.008 246.33 317.222 239.5 317.222 239.5C316.613 234.083 314.423 232.359 317.222 228.679C320.021 224.985 317.222 215.991 317.222 215.991C317.222 215.991 319.14 211.96 318.388 208.759C317.65 205.532 318.388 199.247 318.388 199.247C315.757 195.903 318.388 184.9 318.388 184.9C318.518 182.088 319.192 180.157 319.943 178.848C320.034 178.912 320.112 178.99 320.19 179.068C322.795 181.582 322.16 187.077 322.069 187.829C322.211 188.814 323.456 197.899 321.032 202.603C321.486 203.899 323.572 210.626 320.747 217.818C320.941 219.024 322.186 227.072 320.721 232.606C320.786 233.396 321.214 238.917 320.656 241.496C321.473 242.378 322.069 243.414 322.069 244.568C322.069 245.618 322.224 247.328 322.38 249.156C322.859 254.456 323.132 258.37 322.25 259.757C322.523 260.82 323.52 265.148 322.821 267.805C322.548 268.842 322.717 270.151 322.911 271.551C323.196 273.728 323.507 276.19 322.121 278.121V278.108Z" fill="black"/>
<path d="M337.958 190.953C337.958 190.953 336.649 198.314 340.576 201.347C340.576 201.347 339.785 210.393 342.144 214.579C342.144 214.579 338.217 222.951 342.144 228.174C342.144 228.174 337.439 240.719 342.144 243.868C346.848 247.005 359.407 238.373 364.37 237.336C369.334 236.3 375.347 228.446 369.826 222.808" stroke="#0B192D" stroke-linecap="round" stroke-linejoin="round"/>
<path d="M354.897 216.406C354.897 216.406 354.948 213.788 354.897 210.133C354.845 206.479 352.084 201.346 352.084 201.346C353.393 198.055 348.429 190.952 348.429 190.952C350.516 187.725 347.172 182.567 344.943 181.544C342.714 180.507 339.811 179.807 332.32 178.433C324.842 177.072 326.436 187.816 326.436 187.816C326.436 187.816 324.907 197.847 327.512 202.552C327.512 202.552 324.635 209.939 327.771 217.754C327.771 217.754 326.203 226.709 327.771 232.541C327.771 232.541 327.201 239.099 327.875 241.613" stroke="#0B192D" stroke-linecap="round" stroke-linejoin="round"/>
<path d="M349.7 217.741C349.7 217.741 355.208 215.162 361.493 217.741" stroke="#0B192D" stroke-linecap="round" stroke-linejoin="round"/>
<path d="M332.722 238.529C332.722 238.529 326.41 241.043 326.41 244.542C326.41 248.041 324.79 258.137 326.268 259.628C327.758 261.118 340.783 260.328 349.7 254.314C349.7 254.314 360.962 255.364 363.32 252.487C365.679 249.61 369.658 248.871 370.15 247.018" stroke="#0B192D" stroke-linecap="round" stroke-linejoin="round"/>
<path d="M371.045 232.541C371.045 232.541 375.153 236.533 374.051 241.756C372.95 246.978 372.483 254.158 371.045 258.202C369.619 262.245 360.34 267.727 354.896 266.12C354.896 266.12 339.267 272.238 335.34 270.605" stroke="#0B192D" stroke-linecap="round" stroke-linejoin="round"/>
<path d="M326.268 259.627C326.268 259.627 324.881 264.773 325.646 267.65C326.41 270.527 324.026 275.063 326.41 278.031C328.795 280.998 348.144 279.417 351.022 276.281" stroke="#0B192D" stroke-linecap="round" stroke-linejoin="round"/>
<path d="M361.493 270.877C361.493 270.877 363.113 275.918 359.407 278.031C355.7 280.143 335.107 290.706 330.26 289.125C325.413 287.531 324.557 283.967 326.423 278.031" stroke="#0B192D" stroke-linecap="round" stroke-linejoin="round"/>
<path d="M368.414 261.598C368.414 261.598 368.219 271.408 361.843 274.104" stroke="#0B192D" stroke-linecap="round" stroke-linejoin="round"/>
<path d="M348.766 186.65C348.766 186.65 352.629 185.107 356.154 187.816C359.679 190.525 358.823 192.844 358.823 192.844C365.563 196.473 367.934 214.669 367.934 214.669C367.934 214.669 371.161 217.456 369.826 222.808C368.492 228.16 360.962 226.877 354.897 230.195C348.818 233.513 342.144 228.186 342.144 228.186" stroke="#0B192D" stroke-linecap="round" stroke-linejoin="round"/>
<path d="M342.144 243.855C342.144 243.855 339.785 248.404 334.044 249.402" stroke="#0B192D" stroke-linecap="round" stroke-linejoin="round"/>
<path d="M340.446 224.506C340.446 224.506 336.221 223.663 331.685 226.074" stroke="#0B192D" stroke-linecap="round" stroke-linejoin="round"/>
<path d="M327.758 217.741C327.758 217.741 333.253 213.516 335.34 214.307" stroke="#0B192D" stroke-linecap="round" stroke-linejoin="round"/>
<path d="M340.446 204.897C340.446 204.897 333.513 204.107 331.685 206.984" stroke="#0B192D" stroke-linecap="round" stroke-linejoin="round"/>
<path d="M327.499 202.539C327.499 202.539 328.29 198.884 331.685 198.353" stroke="#0B192D" stroke-linecap="round" stroke-linejoin="round"/>
<path d="M326.41 187.816C326.41 187.816 328.536 184.071 331.672 184.68" stroke="#0B192D" stroke-linecap="round" stroke-linejoin="round"/>
<path d="M354.897 266.12C354.897 266.12 355.48 262.064 353.121 260.275" stroke="#0B192D" stroke-linecap="round" stroke-linejoin="round"/>
<path d="M349.7 254.314C349.7 254.314 351.553 248.689 351.022 247.315" stroke="#0B192D" stroke-linecap="round" stroke-linejoin="round"/>
<path d="M337.75 259.705C337.75 259.705 340.317 260.833 340.446 263.191" stroke="#0B192D" stroke-linecap="round" stroke-linejoin="round"/>
<path d="M358.603 228.666C358.603 228.666 360.703 232.087 359.653 234.446" stroke="#0B192D" stroke-linecap="round" stroke-linejoin="round"/>
<path d="M367.934 214.657C367.934 214.657 363.852 211.43 361.493 210.911" stroke="#0B192D" stroke-linecap="round" stroke-linejoin="round"/>
<path d="M352.071 201.333C352.071 201.333 355.454 199.662 358.603 200.439" stroke="#0B192D" stroke-linecap="round" stroke-linejoin="round"/>
<path d="M310.042 190.953C310.042 190.953 311.351 198.314 307.424 201.347C307.424 201.347 308.215 210.393 305.856 214.579C305.856 214.579 309.783 222.951 305.856 228.174C305.856 228.174 310.56 240.719 305.856 243.868C301.151 247.018 288.593 238.373 283.63 237.336C278.666 236.3 272.652 228.446 278.173 222.808" stroke="#0B192D" stroke-linecap="round" stroke-linejoin="round"/>
<path d="M293.103 216.406C293.103 216.406 293.051 213.788 293.103 210.133C293.155 206.479 295.916 201.346 295.916 201.346C294.607 198.055 299.57 190.952 299.57 190.952C297.484 187.725 300.827 182.567 303.057 181.544C305.286 180.507 308.189 179.807 315.68 178.433C323.157 177.072 321.563 187.816 321.563 187.816C321.563 187.816 323.093 197.847 320.488 202.552C320.488 202.552 323.365 209.939 320.229 217.754C320.229 217.754 321.797 226.709 320.229 232.541C320.229 232.541 320.799 239.099 320.125 241.613" stroke="#0B192D" stroke-linecap="round" stroke-linejoin="round"/>
<path d="M298.3 217.741C298.3 217.741 292.792 215.162 286.507 217.741" stroke="#0B192D" stroke-linecap="round" stroke-linejoin="round"/>
<path d="M315.278 238.529C315.278 238.529 321.589 241.043 321.589 244.542C321.589 248.041 323.222 258.137 321.732 259.628C320.254 261.118 307.217 260.328 298.3 254.314C298.3 254.314 287.038 255.364 284.679 252.487C282.321 249.61 278.342 248.871 277.849 247.018" stroke="#0B192D" stroke-linecap="round" stroke-linejoin="round"/>
<path d="M276.955 232.541C276.955 232.541 272.847 236.533 273.948 241.756C275.063 246.978 275.517 254.158 276.955 258.202C278.381 262.245 287.66 267.727 293.103 266.12C293.103 266.12 308.733 272.238 312.66 270.605" stroke="#0B192D" stroke-linecap="round" stroke-linejoin="round"/>
<path d="M321.719 259.627C321.719 259.627 323.106 264.773 322.341 267.65C321.576 270.527 323.961 275.063 321.576 278.031C319.192 280.998 299.842 279.417 296.965 276.281" stroke="#0B192D" stroke-linecap="round" stroke-linejoin="round"/>
<path d="M286.507 270.877C286.507 270.877 284.887 275.918 288.593 278.031C292.3 280.143 312.893 290.706 317.74 289.125C322.587 287.544 323.443 283.967 321.576 278.031" stroke="#0B192D" stroke-linecap="round" stroke-linejoin="round"/>
<path d="M279.586 261.598C279.586 261.598 279.78 271.408 286.157 274.104" stroke="#0B192D" stroke-linecap="round" stroke-linejoin="round"/>
<path d="M299.233 186.65C299.233 186.65 295.371 185.107 291.846 187.816C288.334 190.525 289.176 192.844 289.176 192.844C282.437 196.473 280.066 214.669 280.066 214.669C280.066 214.669 276.839 217.456 278.173 222.808C279.508 228.16 287.038 226.877 293.103 230.195C299.182 233.513 305.856 228.186 305.856 228.186" stroke="#0B192D" stroke-linecap="round" stroke-linejoin="round"/>
<path d="M305.856 243.855C305.856 243.855 308.215 248.404 313.956 249.402" stroke="#0B192D" stroke-linecap="round" stroke-linejoin="round"/>
<path d="M307.554 224.506C307.554 224.506 311.779 223.663 316.315 226.074" stroke="#0B192D" stroke-linecap="round" stroke-linejoin="round"/>
<path d="M320.242 217.741C320.242 217.741 314.746 213.516 312.66 214.307" stroke="#0B192D" stroke-linecap="round" stroke-linejoin="round"/>
<path d="M307.554 204.897C307.554 204.897 314.487 204.107 316.315 206.984" stroke="#0B192D" stroke-linecap="round" stroke-linejoin="round"/>
<path d="M320.501 202.539C320.501 202.539 319.71 198.884 316.315 198.353" stroke="#0B192D" stroke-linecap="round" stroke-linejoin="round"/>
<path d="M321.589 187.816C321.589 187.816 319.464 184.071 316.328 184.68" stroke="#0B192D" stroke-linecap="round" stroke-linejoin="round"/>
<path d="M293.103 266.12C293.103 266.12 292.52 262.064 294.879 260.275" stroke="#0B192D" stroke-linecap="round" stroke-linejoin="round"/>
<path d="M298.3 254.314C298.3 254.314 296.447 248.689 296.978 247.315" stroke="#0B192D" stroke-linecap="round" stroke-linejoin="round"/>
<path d="M310.249 259.705C310.249 259.705 307.683 260.833 307.554 263.191" stroke="#0B192D" stroke-linecap="round" stroke-linejoin="round"/>
<path d="M289.397 228.666C289.397 228.666 287.297 232.087 288.347 234.446" stroke="#0B192D" stroke-linecap="round" stroke-linejoin="round"/>
<path d="M280.066 214.657C280.066 214.657 284.148 211.43 286.507 210.911" stroke="#0B192D" stroke-linecap="round" stroke-linejoin="round"/>
<path d="M295.929 201.333C295.929 201.333 292.546 199.662 289.397 200.439" stroke="#0B192D" stroke-linecap="round" stroke-linejoin="round"/>
</svg>
