<svg width="80" height="80" viewBox="0 0 80 80" fill="none" xmlns="http://www.w3.org/2000/svg">
<path d="M61.2844 38.6327C59.3985 43.1733 56.0844 47.0702 51.7157 49.6468C49.3438 51.0608 47.85 53.4483 47.6938 56.1202H32.3125C32.1563 53.4812 30.6469 51.0296 28.3063 49.6468C21.2985 45.514 16.9469 37.9108 16.9469 29.8187C16.9469 23.4546 19.4922 17.5327 24.0953 13.1327C25.0703 12.2062 26.0907 11.3733 27.1906 10.6499C19.5235 20.439 22.7282 39.8265 39.4297 42.7952C52.2188 45.0733 58.6766 40.9577 61.2844 38.6312V38.6327Z" fill="#67E5AA"/>
<path opacity="0.6" d="M61.2844 38.6327C59.3985 43.1733 56.0844 47.0702 51.7157 49.6468C49.3438 51.0608 47.85 53.4483 47.6938 56.1202H32.3125C32.1563 53.4812 30.6469 51.0296 28.3063 49.6468C21.2985 45.514 16.9469 37.9108 16.9469 29.8187C16.9469 23.4546 19.4922 17.5327 24.0953 13.1327C25.0703 12.2062 26.0907 11.3733 27.1906 10.6499C19.5235 20.439 22.7282 39.8265 39.4297 42.7952C52.2188 45.0733 58.6766 40.9577 61.2844 38.6312V38.6327Z" fill="#67E5AA"/>
<path d="M32.0531 62.3954H47.9609C48.6218 62.3954 49.1578 61.8595 49.1578 61.197C49.1578 60.5345 48.6218 59.9985 47.9609 59.9985H32.0531C31.3921 59.9985 30.8562 60.5345 30.8562 61.197C30.8562 61.8595 31.3921 62.3954 32.0531 62.3954Z" fill="#375A64"/>
<path d="M30.8563 65.655C30.8563 64.994 31.3922 64.4565 32.0532 64.4565H47.961C48.6219 64.4565 49.1579 64.9925 49.1579 65.655C49.1579 70.7003 45.0532 74.8065 40.0063 74.8065C34.9594 74.8065 30.8547 70.7019 30.8547 65.655H30.8563Z" fill="#375A64"/>
<path d="M39.9922 6.76572C40.3687 6.76572 40.7484 6.7751 41.1281 6.79229C53.0375 7.35635 62.8719 17.5173 63.0516 29.447C63.1891 37.6923 58.8484 45.4298 51.7219 49.6392C49.3375 51.0532 47.8578 53.447 47.6937 56.1157H32.3187C32.1484 53.4798 30.6422 51.036 28.3031 49.6532C21.2984 45.511 16.9469 37.9095 16.9469 29.8173C16.9469 23.4595 19.4859 17.5329 24.0953 13.1298C28.4047 9.0251 34.0516 6.76572 39.9937 6.76572M39.9937 5.19385C33.6281 5.19385 27.6391 7.58603 23.0109 11.9923C18.0922 16.6907 15.375 23.0188 15.375 29.8173C15.375 38.4657 20.0297 46.586 27.5031 51.0048C29.5156 52.1938 30.7625 54.3376 30.7625 56.6142C30.7625 57.2017 31.2469 57.686 31.8344 57.686H48.1766C48.4703 57.686 48.7344 57.5688 48.9406 57.3782C49.1313 57.1735 49.2484 56.8938 49.2484 56.6142C49.2484 54.3095 50.4672 52.2095 52.5234 50.9907C60.1297 46.4985 64.7687 38.2313 64.6219 29.422C64.4312 16.6767 53.9188 5.82666 41.2031 5.22353C40.7984 5.20478 40.3953 5.19541 39.9922 5.19541L39.9937 5.19385Z" fill="#375A64"/>
<path d="M27.2391 37.1437C28.0032 37.6874 29.1782 37.9812 30.5141 37.9812C31.1313 37.9812 31.7766 37.9218 32.4235 37.8046L32.7313 37.7452L32.8782 38.0249C33.3922 38.9358 33.8469 40.0218 34.2438 41.2265C35.7563 45.939 35.6969 50.6671 35.6391 55.2343C35.625 56.1155 35.6094 56.9077 35.6094 57.6858H36.8719C36.8719 56.8937 36.886 56.0999 36.886 55.2921C36.9594 50.828 37.0328 45.778 35.4328 40.8436C35.0797 39.7421 34.6688 38.7296 34.2141 37.8483L33.9938 37.4077L34.4641 37.2312C35.7266 36.7608 36.9313 36.0999 38.0172 35.264C38.6188 34.8093 39.1922 34.3093 39.6907 33.7952L40.0141 33.4718L40.3235 33.7952C40.8219 34.3093 41.3813 34.7937 41.9969 35.264C43.0985 36.1015 44.2875 36.7624 45.55 37.2312L46.0203 37.4077L45.8 37.8483C45.3453 38.7296 44.9344 39.7421 44.5813 40.8436C42.9953 45.7765 43.0547 50.828 43.1282 55.2765C43.1422 56.0983 43.1422 56.8921 43.1422 57.6843H44.4047C44.4047 56.9061 44.3907 56.1124 44.375 55.3061C44.3172 50.6811 44.2578 45.953 45.7703 41.2249C46.1672 40.0202 46.6219 38.9343 47.136 38.0233L47.2828 37.7437L47.5907 37.803C48.2516 37.9202 48.8828 37.9796 49.5 37.9796C50.85 37.9796 52.011 37.6858 52.775 37.1421C53.6125 36.5546 53.9203 35.7327 53.6407 34.8812C53.3172 33.839 52.4078 33.1921 51.2625 33.1921C49.7938 33.1921 48.1938 34.2343 46.8875 36.0405L46.6969 36.3046L46.3891 36.2015C45.1266 35.7905 43.9078 35.1296 42.7625 34.264C42.1453 33.7937 41.5735 33.2796 41.0735 32.7374L40.8235 32.4874L41.0297 32.1937C42.5563 30.0499 43.1438 27.7015 42.6 26.0718C42.2032 24.9265 41.2344 24.2358 40.0157 24.2358C38.7969 24.2358 37.8141 24.9265 37.4172 26.0718C36.8735 27.7015 37.461 30.0515 38.9891 32.1937L39.1953 32.4874L38.9453 32.7374C38.4469 33.2812 37.8735 33.7952 37.2563 34.264C36.125 35.1296 34.8922 35.7905 33.6297 36.2015L33.3219 36.3046L33.1313 36.0405C31.825 34.2343 30.2235 33.1921 28.7563 33.1921C27.611 33.1921 26.7 33.839 26.3782 34.8812C26.0985 35.7327 26.4219 36.5546 27.2438 37.1421L27.2391 37.1437ZM47.9563 36.6452L48.5875 35.9702C49.4688 35.0155 50.4672 34.4577 51.2594 34.4577C51.8469 34.4577 52.2875 34.7515 52.4485 35.2796C52.5813 35.7343 52.1844 36.014 52.0516 36.1171C51.4938 36.4983 50.5532 36.7187 49.4375 36.7187C49.261 36.7187 49.0703 36.7187 48.8797 36.7046L47.9547 36.6468L47.9563 36.6452ZM39.6313 30.8608C38.6328 29.2312 38.2516 27.5577 38.6188 26.4702C38.825 25.8249 39.3094 25.5015 40.0141 25.5015C40.7188 25.5015 41.1891 25.8249 41.4094 26.4702C41.7625 27.5562 41.3797 29.2312 40.3813 30.8608L40.0141 31.478L39.6328 30.8608H39.6313ZM27.5625 35.2655C27.7391 34.7515 28.1641 34.4577 28.7516 34.4577C29.5453 34.4577 30.5438 35.0155 31.4235 35.9702L32.0547 36.6452L31.1297 36.703C30.9391 36.7171 30.7625 36.7171 30.586 36.7171C29.4703 36.7171 28.5157 36.4968 27.9578 36.1155C27.825 36.0124 27.4141 35.7343 27.561 35.264L27.5625 35.2655Z" fill="#375A64"/>
<path d="M64.6156 29.4248C64.4265 16.6826 53.9156 5.82637 41.2062 5.22949C40.7984 5.19824 40.389 5.19824 39.9969 5.19824C36.164 5.19824 32.4547 6.0623 29.0937 7.72793L28.8109 8.8748C28.2297 9.4248 27.6797 10.0217 27.1937 10.6498C30.964 8.13574 35.3953 6.76855 39.9984 6.76855C40.375 6.76855 40.7531 6.76855 41.1297 6.78418C53.039 7.3498 62.875 17.5154 63.0469 29.4404C63.0937 32.6451 62.4812 35.7561 61.2875 38.6311C62.3094 37.7201 62.7484 37.0904 62.7484 37.2326C62.7484 37.3748 62.1672 39.3373 61.3656 42.0404C63.5328 38.2545 64.6969 33.9014 64.6172 29.4248H64.6156Z" fill="#375A64"/>
</svg>
